<?xml version="1.0" encoding="utf-8"?>
<!-- Generator: Adobe Illustrator 26.5.0, SVG Export Plug-In . SVG Version: 6.00 Build 0)  -->
<svg version="1.1" id="Слой_1" xmlns="http://www.w3.org/2000/svg" xmlns:xlink="http://www.w3.org/1999/xlink" x="0px" y="0px"
	 viewBox="0 0 1080 1080" style="enable-background:new 0 0 1080 1080;" xml:space="preserve">
<style type="text/css">
	.st0{fill:none;}
	.st1{fill:url(#SVGID_1_);}
	.st2{fill:url(#SVGID_00000026163332024773354760000016924713072480615094_);}
</style>
<rect x="17.5" y="17.5" class="st0" width="1045" height="1045"/>
<g>
	
		<linearGradient id="SVGID_1_" gradientUnits="userSpaceOnUse" x1="471.3251" y1="1134.9679" x2="471.5612" y2="1480.3152" gradientTransform="matrix(1 0 0 1 0 -540)">
		<stop  offset="6.751359e-03" style="stop-color:#F0FBFF"/>
		<stop  offset="0.2439" style="stop-color:#ECF7FA"/>
		<stop  offset="0.5128" style="stop-color:#E1EAED"/>
		<stop  offset="0.7961" style="stop-color:#D0D4D6"/>
		<stop  offset="1" style="stop-color:#BFC0C1"/>
	</linearGradient>
	<path class="st1" d="M925.5,806c0,44.9-13.3,86.6-36.4,121c-8.3,12.5-18.1,24.3-28.9,34.6l0,0c-17.6,13.8-39.7,22.1-63.5,22.1
		c0,0-224.1-0.3-224.6,0H122.9c-38.1,0-71.3-21.1-89.8-52.5l0,0C24.3,911.9,19,890.6,17.8,868v-0.3c-0.3-2.8-0.3-5.5-0.3-8.5
		c0-92.9,72.3-168.1,161.4-168.1c7.8,0,15.3,0.5,22.8,1.8c-4.8-1-7.3-1.8-7.3-1.8s2.8,0.5,8.3,1.8c0.3-1.3,0.5-3.5,1-6.8
		c17.8-94.4,126.7-178.7,235.2-180.4c9.3-0.3,38.1,0.3,73,11.5c51.4,16.8,95.9,50.7,126.7,95.4c25.6-12.3,54.2-19.1,84.1-19.1
		C834.6,594.2,925.5,689.1,925.5,806z"/>
	
		<radialGradient id="SVGID_00000106129088477481753470000015143946265350649519_" cx="656.2607" cy="1053.0664" r="466.8162" gradientTransform="matrix(1 0 0 1 0 -540)" gradientUnits="userSpaceOnUse">
		<stop  offset="6.751361e-03" style="stop-color:#D6D6D8"/>
		<stop  offset="0.3775" style="stop-color:#D4D4D7"/>
		<stop  offset="0.543" style="stop-color:#CDCDD2"/>
		<stop  offset="0.6677" style="stop-color:#C0C0C9"/>
		<stop  offset="0.772" style="stop-color:#AEAEBD"/>
		<stop  offset="0.8634" style="stop-color:#9797AD"/>
		<stop  offset="0.9446" style="stop-color:#7B7A99"/>
		<stop  offset="1" style="stop-color:#636289"/>
	</radialGradient>
	<path style="fill:url(#SVGID_00000106129088477481753470000015143946265350649519_);" d="M1062.5,503.1
		c0,230.4-186.7,417.3-417.3,417.3c-104.1,0-199.5-38.1-272.5-101.4c23.8,4.3,48.4,6.5,73.3,6.5c230.4,0,417.3-186.7,417.3-417.3
		c0-126.2-56.2-239.4-144.8-316C914.2,126.7,1062.5,297.6,1062.5,503.1z"/>
</g>
</svg>
