<?xml version="1.0" encoding="utf-8"?>
<!-- Generator: Adobe Illustrator 26.5.0, SVG Export Plug-In . SVG Version: 6.00 Build 0)  -->
<svg version="1.1" id="Слой_1" xmlns="http://www.w3.org/2000/svg" xmlns:xlink="http://www.w3.org/1999/xlink" x="0px" y="0px"
	 viewBox="0 0 1080 1080" style="enable-background:new 0 0 1080 1080;" xml:space="preserve">
<style type="text/css">
	.st0{fill:none;}
	.st1{fill:url(#SVGID_1_);}
	.st2{opacity:0.32;fill:#FFE500;enable-background:new    ;}
	.st3{fill:#FFE500;}
	.st4{fill:url(#SVGID_00000173150033703684602180000001688187255440808085_);}
</style>
<rect x="17.5" y="17.5" class="st0" width="1045" height="1045"/>
<g>
	
		<linearGradient id="SVGID_1_" gradientUnits="userSpaceOnUse" x1="479.1225" y1="991.7727" x2="479.362" y2="1343.1552" gradientTransform="matrix(1 0 0 1 0 -540)">
		<stop  offset="6.751359e-03" style="stop-color:#F0FBFF"/>
		<stop  offset="0.2439" style="stop-color:#ECF7FA"/>
		<stop  offset="0.5128" style="stop-color:#E1EAED"/>
		<stop  offset="0.7961" style="stop-color:#D0D4D6"/>
		<stop  offset="1" style="stop-color:#BFC0C1"/>
	</linearGradient>
	<path class="st1" d="M941.1,666.5c0,45.9-13.6,88.2-37,123.2c-8.5,12.8-18.3,24.8-29.3,35.4l0,0c-17.9,14.2-40.3,22.4-64.5,22.4
		c0,0-227.9-0.2-228.5,0h-457c-38.6,0-72.6-21.5-91.5-53.3l0,0c-9.1-19.7-14.4-41.3-15.5-64.4v-0.2c-0.2-2.8-0.2-5.7-0.2-8.7
		c0-94.5,73.6-171,164.1-171c7.9,0,15.5,0.6,23,1.8c-4.9-1.2-7.5-1.8-7.5-1.8s2.8,0.6,8.3,1.8c0.2-1.2,0.6-3.7,1.2-6.9
		c18.1-95.8,128.9-181.8,239.1-183.4c9.4-0.2,38.6,0.2,74.2,11.8c52.5,16.9,97.6,51.6,129.1,97c26-12.6,55.1-19.5,85.6-19.5
		C848.8,450.9,941.1,547.5,941.1,666.5z"/>
	<g>
		<circle class="st2" cx="461.1" cy="506.2" r="366.6"/>
		<circle class="st2" cx="461.1" cy="506.2" r="314.3"/>
		<circle class="st3" cx="461.1" cy="506.2" r="270.4"/>
	</g>
	
		<linearGradient id="SVGID_00000092421110169461167100000017329981237399231105_" gradientUnits="userSpaceOnUse" x1="726.051" y1="1192.0311" x2="726.2255" y2="1447.9713" gradientTransform="matrix(1 0 0 1 0 -540)">
		<stop  offset="6.751359e-03" style="stop-color:#F0FBFF"/>
		<stop  offset="0.2439" style="stop-color:#ECF7FA"/>
		<stop  offset="0.5128" style="stop-color:#E1EAED"/>
		<stop  offset="0.7961" style="stop-color:#D0D4D6"/>
		<stop  offset="1" style="stop-color:#BFC0C1"/>
	</linearGradient>
	<path style="fill:url(#SVGID_00000092421110169461167100000017329981237399231105_);" d="M1062.5,808.6c0,33.3-9.8,64.2-27,89.7
		c-6.1,9.4-13.4,17.9-21.5,25.8l0,0c-13,10.2-29.3,16.3-47,16.3c0,0-166.1-0.2-166.3,0H468c-28.1,0-52.9-15.5-66.5-39l0,0
		c-6.5-14.4-10.4-30.1-11.4-46.8v-0.2c-0.2-2-0.2-4.1-0.2-6.3c0-68.9,53.5-124.6,119.7-124.6c5.7,0,11.4,0.4,16.9,1.2
		c-3.5-0.8-5.3-1.2-5.3-1.2s2,0.4,6.1,1.4c0.2-0.8,0.4-2.8,0.8-4.9c13.2-69.9,93.9-132.4,174.2-133.6c7.1-0.2,28.1,0.2,54.1,8.5
		c38.2,12.4,71,37.6,93.9,70.7c18.9-9.1,40-14.2,62.4-14.2C995.2,651.4,1062.5,721.8,1062.5,808.6z"/>
</g>
</svg>
