<?xml version="1.0" encoding="utf-8"?>
<!-- Generator: Adobe Illustrator 26.5.0, SVG Export Plug-In . SVG Version: 6.00 Build 0)  -->
<svg version="1.1" id="Слой_1" xmlns="http://www.w3.org/2000/svg" xmlns:xlink="http://www.w3.org/1999/xlink" x="0px" y="0px"
	 viewBox="0 0 1080 1080" style="enable-background:new 0 0 1080 1080;" xml:space="preserve">
<style type="text/css">
	.st0{fill:none;}
	.st1{fill:url(#SVGID_1_);}
	.st2{fill:url(#SVGID_00000123431222379632243990000013172053839642055323_);}
	.st3{fill:url(#SVGID_00000070119556585757525650000004457755619983546544_);}
	.st4{fill:url(#SVGID_00000017518106730201818150000006942392908612945041_);}
	.st5{fill:url(#SVGID_00000047754812216008364820000010740229539781072059_);}
	.st6{fill:url(#SVGID_00000088102590093227869460000003440277430375681688_);}
	.st7{fill:url(#SVGID_00000155844428027733052310000006469807673825298596_);}
</style>
<rect x="17.5" y="17.5" class="st0" width="1045" height="1045"/>
<g>
	
		<linearGradient id="SVGID_1_" gradientUnits="userSpaceOnUse" x1="539.813" y1="734.015" x2="540.0842" y2="1131.7234" gradientTransform="matrix(1 0 0 1 0 -540)">
		<stop  offset="6.751359e-03" style="stop-color:#F0FBFF"/>
		<stop  offset="0.2439" style="stop-color:#ECF7FA"/>
		<stop  offset="0.5128" style="stop-color:#E1EAED"/>
		<stop  offset="0.7961" style="stop-color:#D0D4D6"/>
		<stop  offset="1" style="stop-color:#BFC0C1"/>
	</linearGradient>
	<path class="st1" d="M1062.5,437.1c0,51.7-15.5,99.8-41.8,139.4c-9.7,14.6-20.8,28-33.2,40l0,0c-20.2,15.9-45.6,25.4-73,25.4
		c0,0-258.1-0.4-258.5,0H138.7c-43.7,0-82-24.1-103.5-60.4l0,0c-10.1-22.3-16.3-46.8-17.5-72.8v-0.2c-0.2-3.3-0.2-6.4-0.2-9.7
		c0-107,83.3-193.6,185.9-193.6c8.9,0,17.5,0.6,26.2,1.9c-5.6-1.2-8.5-1.9-8.5-1.9s3.1,0.6,9.5,2.1c0.2-1.4,0.6-4.1,1.2-7.6
		C252.5,191.2,377.9,93.9,502.6,92c10.7-0.2,43.7,0.2,84.1,13.2c59.4,19.2,110.3,58.3,146,109.7c29.5-14.2,62.3-22.1,96.9-22.1
		C958.2,193.1,1062.5,302.5,1062.5,437.1z"/>
	<g>
		<g>
			
				<linearGradient id="SVGID_00000070820650771504262390000012866509994124142015_" gradientUnits="userSpaceOnUse" x1="851.1817" y1="1151.4932" x2="977.0795" y2="1151.4932" gradientTransform="matrix(1 0 0 1 0 -540)">
				<stop  offset="0" style="stop-color:#ACFFFA"/>
				<stop  offset="1" style="stop-color:#3B8981"/>
			</linearGradient>
			<path style="fill:url(#SVGID_00000070820650771504262390000012866509994124142015_);" d="M968.5,626.4
				c15.5,26.6,9.5,59.4-13.2,72.4c-22.7,13.2-54,1.6-69.3-24.9c-0.2-0.4-0.4-0.8-0.8-1.2c-0.2-0.4-0.4-0.8-0.6-1l-7-32.4
				l-26.4-120.4l90.1,82.3l26.2,23.9l0,0C968.1,625.6,968.3,626,968.5,626.4z"/>
		</g>
	</g>
	<g>
		<g>
			
				<linearGradient id="SVGID_00000065053469196404065590000008321540705740499334_" gradientUnits="userSpaceOnUse" x1="585.8682" y1="1286.3145" x2="711.766" y2="1286.3145" gradientTransform="matrix(1 0 0 1 0 -540)">
				<stop  offset="0" style="stop-color:#ACFFFA"/>
				<stop  offset="1" style="stop-color:#3B8981"/>
			</linearGradient>
			<path style="fill:url(#SVGID_00000065053469196404065590000008321540705740499334_);" d="M703.2,761.2
				c15.5,26.6,9.5,59.4-13.2,72.4c-22.7,13.2-54,1.6-69.3-24.9c-0.2-0.4-0.4-0.8-0.8-1.2c-0.2-0.4-0.4-0.8-0.6-1l-7-32.4
				l-26.4-120.4l90.3,82.3l26,24.1l0,0C702.8,760.4,703,760.8,703.2,761.2z"/>
		</g>
	</g>
	<g>
		<g>
			
				<linearGradient id="SVGID_00000136399957960000800020000013665867196665943226_" gradientUnits="userSpaceOnUse" x1="790.9862" y1="1385.266" x2="916.8841" y2="1385.266" gradientTransform="matrix(1 0 0 1 0 -540)">
				<stop  offset="0" style="stop-color:#ACFFFA"/>
				<stop  offset="1" style="stop-color:#3B8981"/>
			</linearGradient>
			<path style="fill:url(#SVGID_00000136399957960000800020000013665867196665943226_);" d="M908.3,860.2
				c15.5,26.6,9.5,59.4-13.2,72.4c-22.7,13.2-54,1.6-69.3-24.9c-0.2-0.4-0.4-0.8-0.8-1.2c-0.2-0.4-0.4-0.8-0.6-1l-7-32.4L791,752.5
				l90.3,82.3l26.2,23.9l0,0C907.7,859.3,907.9,859.7,908.3,860.2z"/>
		</g>
	</g>
	<g>
		<g>
			
				<linearGradient id="SVGID_00000030486011792382696950000008405496196459402892_" gradientUnits="userSpaceOnUse" x1="368.7935" y1="1385.266" x2="494.6912" y2="1385.266" gradientTransform="matrix(1 0 0 1 0 -540)">
				<stop  offset="0" style="stop-color:#ACFFFA"/>
				<stop  offset="1" style="stop-color:#3B8981"/>
			</linearGradient>
			<path style="fill:url(#SVGID_00000030486011792382696950000008405496196459402892_);" d="M486.1,860.2
				c15.5,26.6,9.5,59.4-13.2,72.4c-22.7,13.2-54,1.6-69.3-24.9c-0.2-0.4-0.4-0.8-0.8-1.2c-0.2-0.4-0.4-0.8-0.6-1l-7-32.4
				l-26.4-120.4l90.3,82.3l26.2,23.9l0,0C485.7,859.3,485.9,859.7,486.1,860.2z"/>
		</g>
	</g>
	<g>
		<g>
			
				<linearGradient id="SVGID_00000043416461941962545640000014235021261259686556_" gradientUnits="userSpaceOnUse" x1="364.6705" y1="1120.1586" x2="490.5683" y2="1120.1586" gradientTransform="matrix(1 0 0 1 0 -540)">
				<stop  offset="0" style="stop-color:#ACFFFA"/>
				<stop  offset="1" style="stop-color:#3B8981"/>
			</linearGradient>
			<path style="fill:url(#SVGID_00000043416461941962545640000014235021261259686556_);" d="M482,595c15.5,26.6,9.5,59.4-13.2,72.4
				c-22.7,13.2-54,1.6-69.3-24.9c-0.2-0.4-0.4-0.8-0.8-1.2c-0.2-0.4-0.4-0.8-0.6-1l-7-32.4l-26.4-120.4l90.3,82.3l26.2,23.9l0,0
				C481.6,594.2,481.8,594.6,482,595z"/>
		</g>
	</g>
	<g>
		<g>
			
				<linearGradient id="SVGID_00000033355013879408687610000010098885129194472363_" gradientUnits="userSpaceOnUse" x1="147.8019" y1="1246.9401" x2="273.6997" y2="1246.9401" gradientTransform="matrix(1 0 0 1 0 -540)">
				<stop  offset="0" style="stop-color:#ACFFFA"/>
				<stop  offset="1" style="stop-color:#3B8981"/>
			</linearGradient>
			<path style="fill:url(#SVGID_00000033355013879408687610000010098885129194472363_);" d="M265.1,721.8
				c15.5,26.6,9.5,59.4-13.2,72.4c-22.7,13.2-54,1.6-69.3-24.9c-0.2-0.4-0.4-0.8-0.8-1.2c-0.2-0.4-0.4-0.8-0.6-1l-7-32.4
				l-26.4-120.4l90.3,82.3l26.2,23.9l0,0C264.5,721,264.7,721.4,265.1,721.8z"/>
		</g>
	</g>
</g>
</svg>
