<?xml version="1.0" encoding="utf-8"?>
<!-- Generator: Adobe Illustrator 26.5.0, SVG Export Plug-In . SVG Version: 6.00 Build 0)  -->
<svg version="1.1" id="Слой_1" xmlns="http://www.w3.org/2000/svg" xmlns:xlink="http://www.w3.org/1999/xlink" x="0px" y="0px"
	 viewBox="0 0 1080 1080" style="enable-background:new 0 0 1080 1080;" xml:space="preserve">
<style type="text/css">
	.st0{fill:none;}
	.st1{fill:url(#SVGID_1_);}
	.st2{fill:url(#SVGID_00000179646971937461851750000009994046585372941190_);}
	.st3{fill:url(#SVGID_00000147207389047568872560000002803924197528261524_);}
</style>
<rect x="17.5" y="17.5" class="st0" width="1045" height="1045"/>
<g>
	
		<linearGradient id="SVGID_1_" gradientUnits="userSpaceOnUse" x1="479.111" y1="990.1734" x2="479.3506" y2="1341.6217" gradientTransform="matrix(1 0 0 1 0 -540)">
		<stop  offset="6.751359e-03" style="stop-color:#F0FBFF"/>
		<stop  offset="0.2439" style="stop-color:#ECF7FA"/>
		<stop  offset="0.5128" style="stop-color:#E1EAED"/>
		<stop  offset="0.7961" style="stop-color:#D0D4D6"/>
		<stop  offset="1" style="stop-color:#BFC0C1"/>
	</linearGradient>
	<path class="st1" d="M941.1,665c0,45.9-13.6,88.2-37,123.2c-8.5,12.8-18.3,24.8-29.3,35.4l0,0c-17.9,14.2-40.4,22.4-64.6,22.4
		c0,0-227.9-0.2-228.5,0H124.8c-38.6,0-72.6-21.5-91.5-53.3l0,0c-9.1-19.7-14.4-41.3-15.6-64.4v-0.2c-0.2-2.8-0.2-5.7-0.2-8.7
		c0-94.5,73.6-171.1,164.2-171.1c7.9,0,15.6,0.6,23,1.8c-4.9-1.2-7.5-1.8-7.5-1.8s2.8,0.6,8.3,1.8c0.2-1.2,0.6-3.7,1.2-6.9
		c18.1-95.9,128.9-181.9,239.2-183.5c9.4-0.2,38.6,0.2,74.2,11.8c52.6,16.9,97.6,51.6,129.1,97c26-12.6,55.1-19.5,85.6-19.5
		C848.7,449.3,941.1,545.9,941.1,665z"/>
	
		<radialGradient id="SVGID_00000006710321772868243540000009956495501285817772_" cx="443.0974" cy="1022.844" r="379.0815" gradientTransform="matrix(1 0 0 1 0 -540)" gradientUnits="userSpaceOnUse">
		<stop  offset="6.751361e-03" style="stop-color:#D6D6D8"/>
		<stop  offset="0.3775" style="stop-color:#D4D4D7"/>
		<stop  offset="0.543" style="stop-color:#CDCDD2"/>
		<stop  offset="0.6677" style="stop-color:#C0C0C9"/>
		<stop  offset="0.772" style="stop-color:#AEAEBD"/>
		<stop  offset="0.8634" style="stop-color:#9797AD"/>
		<stop  offset="0.9446" style="stop-color:#7B7A99"/>
		<stop  offset="1" style="stop-color:#636289"/>
	</radialGradient>
	<path style="fill:url(#SVGID_00000006710321772868243540000009956495501285817772_);" d="M773.2,474.7
		c0,187.2-151.8,338.8-338.8,338.8c-84.6,0-162-30.9-221.2-82.3c19.3,3.5,39.2,5.3,59.4,5.3c187.2,0,338.8-151.8,338.8-338.8
		c0-102.6-45.7-194.5-117.7-256.7C652.5,169.2,773.2,307.9,773.2,474.7z"/>
	
		<linearGradient id="SVGID_00000106149523167626535010000001248708363953564573_" gradientUnits="userSpaceOnUse" x1="725.9876" y1="1190.4694" x2="726.1622" y2="1446.458" gradientTransform="matrix(1 0 0 1 0 -540)">
		<stop  offset="6.751359e-03" style="stop-color:#F0FBFF"/>
		<stop  offset="0.2439" style="stop-color:#ECF7FA"/>
		<stop  offset="0.5128" style="stop-color:#E1EAED"/>
		<stop  offset="0.7961" style="stop-color:#D0D4D6"/>
		<stop  offset="1" style="stop-color:#BFC0C1"/>
	</linearGradient>
	<path style="fill:url(#SVGID_00000106149523167626535010000001248708363953564573_);" d="M1062.5,807.1c0,33.3-9.8,64.2-27,89.8
		c-6.1,9.4-13.4,17.9-21.5,25.8l0,0c-13,10.2-29.3,16.3-47,16.3c0,0-166.1-0.2-166.3,0H467.9c-28.1,0-52.9-15.6-66.5-39l0,0
		c-6.5-14.4-10.4-30.1-11.4-46.8V853c-0.2-2-0.2-4.1-0.2-6.3c0-68.9,53.5-124.6,119.7-124.6c5.7,0,11.4,0.4,16.9,1.2
		c-3.5-0.8-5.3-1.2-5.3-1.2s2,0.4,6.1,1.4c0.2-0.8,0.4-2.8,0.8-4.9c13.2-69.9,93.9-132.5,174.2-133.7c7.1-0.2,28.1,0.2,54.1,8.5
		c38.2,12.4,71.1,37.6,93.9,70.7c18.9-9.1,40-14.2,62.4-14.2C995.4,649.8,1062.5,720.3,1062.5,807.1z"/>
</g>
</svg>
