<?xml version="1.0" encoding="utf-8"?>
<!-- Generator: Adobe Illustrator 26.5.0, SVG Export Plug-In . SVG Version: 6.00 Build 0)  -->
<svg version="1.1" id="Слой_1" xmlns="http://www.w3.org/2000/svg" xmlns:xlink="http://www.w3.org/1999/xlink" x="0px" y="0px"
	 viewBox="0 0 1080 1080" style="enable-background:new 0 0 1080 1080;" xml:space="preserve">
<style type="text/css">
	.st0{fill:none;}
	.st1{fill:url(#SVGID_1_);}
	.st2{fill:url(#SVGID_00000101824101453051146890000014082527038346566023_);}
</style>
<rect x="17.5" y="17.5" class="st0" width="1045" height="1045"/>
<g>
	
		<linearGradient id="SVGID_1_" gradientUnits="userSpaceOnUse" x1="472.8647" y1="829.6154" x2="473.1012" y2="1176.5236" gradientTransform="matrix(1 0 0 1 0 -540)">
		<stop  offset="6.751359e-03" style="stop-color:#F0FBFF"/>
		<stop  offset="0.2439" style="stop-color:#ECF7FA"/>
		<stop  offset="0.5128" style="stop-color:#E1EAED"/>
		<stop  offset="0.7961" style="stop-color:#D0D4D6"/>
		<stop  offset="1" style="stop-color:#BFC0C1"/>
	</linearGradient>
	<path class="st1" d="M928.9,501.7c0,45.1-13.4,87.1-36.6,121.6c-8.4,12.7-18.2,24.4-29,34.9l0,0c-17.8,13.8-39.7,22.1-63.7,22.1
		c0,0-225.1-0.2-225.5,0H122.9c-38.2,0-71.7-21.1-90.3-52.7l0,0c-8.8-19.4-14.2-40.7-15.3-63.5v-0.2c-0.2-2.7-0.2-5.6-0.2-8.6
		c0-93.2,72.7-168.8,162.2-168.8c7.7,0,15.3,0.6,22.8,1.7c-4.8-1-7.3-1.7-7.3-1.7s2.7,0.6,8.1,1.9c0.2-1.3,0.6-3.6,1-6.7
		c18-94.7,127.3-179.5,236.1-181.2c9.4-0.2,38.2,0.2,73.3,11.5c51.8,16.7,96.3,50.8,127.5,95.7c25.7-12.3,54.3-19.2,84.4-19.2
		C837.8,288.7,928.9,384.2,928.9,501.7z"/>
	
		<linearGradient id="SVGID_00000158749131034517643680000012257519706664704388_" gradientUnits="userSpaceOnUse" x1="681.8536" y1="1093.0995" x2="682.0507" y2="1382.8561" gradientTransform="matrix(1 0 0 1 0 -540)">
		<stop  offset="6.751359e-03" style="stop-color:#F0FBFF"/>
		<stop  offset="0.2439" style="stop-color:#ECF7FA"/>
		<stop  offset="0.5128" style="stop-color:#E1EAED"/>
		<stop  offset="0.7961" style="stop-color:#D0D4D6"/>
		<stop  offset="1" style="stop-color:#BFC0C1"/>
	</linearGradient>
	<path style="fill:url(#SVGID_00000158749131034517643680000012257519706664704388_);" d="M1062.8,730.3
		c0,37.8-11.3,72.7-30.5,101.6c-7.1,10.7-15.3,20.5-24.2,29l0,0c-14.8,11.5-33.2,18.6-53.3,18.6c0,0-188.1-0.2-188.3,0h-377
		c-32,0-59.8-17.6-75.4-44.1l0,0c-7.3-16.3-11.9-34.1-12.7-53.1v-0.2c-0.2-2.3-0.2-4.8-0.2-7.1c0-77.9,60.6-141,135.4-141
		c6.5,0,12.7,0.4,19,1.5c-4-0.8-6.1-1.5-6.1-1.5s2.3,0.4,6.9,1.5c0.2-1,0.4-2.9,0.8-5.6c15-79.2,106.2-149.8,197.3-151.3
		c7.9-0.2,32,0.2,61.2,9.6c43.3,14,80.5,42.4,106.4,80c21.5-10.2,45.3-16.1,70.6-16.1C986.8,552.5,1062.8,632.1,1062.8,730.3z"/>
</g>
</svg>
