<?xml version="1.0" encoding="utf-8"?>
<!-- Generator: Adobe Illustrator 26.5.0, SVG Export Plug-In . SVG Version: 6.00 Build 0)  -->
<svg version="1.1" id="Слой_1" xmlns="http://www.w3.org/2000/svg" xmlns:xlink="http://www.w3.org/1999/xlink" x="0px" y="0px"
	 viewBox="0 0 1080 1080" style="enable-background:new 0 0 1080 1080;" xml:space="preserve">
<style type="text/css">
	.st0{fill:none;}
	.st1{fill:#0071BC;}
	.st2{fill:url(#SVGID_1_);}
	.st3{fill:url(#SVGID_00000105407639270190645090000008683896651193933700_);}
	.st4{fill:url(#SVGID_00000160157641301738513060000005789875061178261658_);}
</style>
<rect x="17.5" y="17.5" class="st0" width="1045" height="1045"/>
<g>
	<path class="st1" d="M372.7,641.2l1-2.9c0,1,0,1.9,0,2.9H372.7z"/>
	<polygon class="st1" points="589.5,641.2 589.5,641.2 589.5,641 	"/>
	<g>
		
			<radialGradient id="SVGID_1_" cx="393.9626" cy="1086.4343" r="376.5971" gradientTransform="matrix(1 0 0 1 0 -540)" gradientUnits="userSpaceOnUse">
			<stop  offset="0" style="stop-color:#ACFFFA"/>
			<stop  offset="1" style="stop-color:#3B8981"/>
		</radialGradient>
		<path class="st2" d="M770.5,546.2c0,3.3-2.7,6-6,6h-69v32l-52.4-19.1l-35.9-12.9h-42.5v9.7l-82.1-7.8l-19.1-1.8h-52.6l68.4,57.5
			l35.3,15.8l56,25.2L552.7,672l80.1,67.3c2.5,2.1,2.9,6.2,0.8,8.8s-6,2.9-8.8,0.8l-80.1-67.3l-17.7,21.1l-34.5-50.9l-21.8-32.2
			l-71.2-59.9v55.6l1.9,19.9l7.8,82.1h-9.7v43.7l12.9,35.9l18.9,52.4h-32v67.9c0,3.3-2.7,6-6,6c-3.3,0-6-2.7-6-6v-67.9h-32
			l18.9-52.4l12.9-35.9v-43.5h-9.7l7.8-82.1l1.8-19.1v-56.9l-71.2,59.9l-21.8,32.2l-34.5,50.9l-17.7-21.1l-80.1,67.3
			c-2.5,2.1-6.6,1.9-8.8-0.8c-2.1-2.5-1.8-6.6,0.8-8.8l80.1-67.3l-17.7-21.1l56-25.2l35.5-15.8l68.4-57.5H323l-19.1,1.8l-82.1,7.8
			v-9.7h-43.7l-34.3,13.3l-52.4,18.9v-32H23.5c-3.3,0-6-2.7-6-6c0-3.3,2.7-6,6-6h67.9v-32l52.4,18.9l35.9,12.9h43.5v-9.7l82.1,7.8
			l19.9,1.9h52.1l-34.9-29.2l-35.5-16l-56.2-25.2l17.7-21.1L154.7,353c-2.5-2.1-2.9-6-0.8-8.8c2.1-2.5,6-2.9,8.8-0.8l113.7,95.3
			l17.7-21.1l34.5,50.9l21.6,32.2l37.8,31.6V476l-1.8-19.1l-7.8-82.1h9.7v-41.7l-12.9-35.9l-18.9-52.4h32v-69c0-3.3,2.7-6,6-6
			c3.3,0,6,2.7,6,6v69h32l-18.9,52.4l-12.9,35.9v42.5h9.7l-7.8,82.1l-1.9,19.9v55.8l37.8-31.8l21.6-32.2l34.5-50.9l17.7,21.1
			l113.7-95.3c2.5-2.1,6.6-1.8,8.8,0.8c2.1,2.5,1.9,6.4-0.8,8.8l-113.7,95.3l17.7,21.1l-56.2,25.2l-35.5,16l-34.9,29.2h52.1
			l19.9-1.9l82.1-7.8v9.7H608l35.9-12.9l52.4-18.9v32h69C767.7,540.2,770.5,542.9,770.5,546.2z"/>
	</g>
	<g>
		
			<radialGradient id="SVGID_00000016778111635941187780000016887847072575069366_" cx="877.0168" cy="1250.4095" r="162.8542" gradientTransform="matrix(1 0 0 1 0 -540)" gradientUnits="userSpaceOnUse">
			<stop  offset="0" style="stop-color:#ACFFFA"/>
			<stop  offset="1" style="stop-color:#3B8981"/>
		</radialGradient>
		<path style="fill:url(#SVGID_00000016778111635941187780000016887847072575069366_);" d="M1039.7,710.6c0,1.4-1.2,2.5-2.5,2.5
			h-29.8V727l-22.8-8.2l-15.4-5.7h-18.3v4.1l-35.5-3.3l-8.4-0.8h-22.8l29.6,25l15.2,6.8l24.2,10.9l-7.6,9.2l34.7,29.1
			c1.2,1,1.4,2.7,0.4,3.7c-1,1.2-2.5,1.2-3.7,0.4l-34.7-29.1l-7.6,9.2l-15-22l-9.4-14l-30.8-25.9v24.2l0.8,8.6l3.3,35.5h-4.3v18.9
			l5.7,15.4l8.2,22.8h-13.8v29.2c0,1.4-1.2,2.5-2.5,2.5c-1.4,0-2.5-1.2-2.5-2.5v-29.2h-13.8l8.2-22.8l5.7-15.6v-18.7h-4.1l3.3-35.5
			l0.8-8.4v-24.4l-30.8,25.9l-9.4,14l-14.8,22l-7.6-9.2l-34.7,29.1c-1.2,1-2.7,0.8-3.7-0.4c-1-1.2-0.8-2.9,0.4-3.7l34.7-29.1
			l-7.6-9.2l24.2-10.9l15.4-6.8l29.6-25h-22.8l-8.4,0.8l-35.5,3.3v-3.9h-18.9l-15.4,5.7l-22.8,8.2v-13.8h-29.2
			c-1.4,0-2.5-1.2-2.5-2.5c0-1.4,1.2-2.5,2.5-2.5h29.2v-13.8l22.8,8.2l15.6,5.7h18.7V704l35.5,3.3l8.6,0.8h22.6l-15-12.7l-15.4-6.8
			l-24.4-10.9l7.6-9.2l-49.1-41.3c-1.2-1-1.4-2.5-0.4-3.7c1-1.2,2.5-1.4,3.7-0.4l49.1,41.3l7.6-9.2l15,22l9.4,13.8l16.4,13.6v-24.4
			l-0.8-8.4l-3.3-35.5h4.1v-18.3l-5.7-15.6l-8.2-22.8h13.8v-29.8c0-1.4,1.2-2.5,2.5-2.5c1.4,0,2.5,1.2,2.5,2.5v29.8h13.8l-8.2,22.8
			l-5.7,15.4v18.3h4.3l-3.3,35.5l-0.8,8.6v24.2l16.4-13.8l9.4-13.8l15-22l7.6,9.2l49.1-41.3c1.2-1,2.7-0.8,3.7,0.4
			c1,1.2,0.8,2.7-0.4,3.7l-49.1,41.3l7.6,9.2l-24.4,10.9l-15.4,6.8l-15,12.7h22.6l8.6-0.8l35.5-3.3v4.3h18.3l15.6-5.7l22.8-8.2v13.8
			h29.2C1038.6,708.1,1039.7,709.2,1039.7,710.6z"/>
	</g>
	<g>
		
			<radialGradient id="SVGID_00000056420514042050081480000006613519036625853345_" cx="931.0417" cy="828.4803" r="131.5523" gradientTransform="matrix(1 0 0 1 0 -540)" gradientUnits="userSpaceOnUse">
			<stop  offset="0" style="stop-color:#ACFFFA"/>
			<stop  offset="1" style="stop-color:#3B8981"/>
		</radialGradient>
		<path style="fill:url(#SVGID_00000056420514042050081480000006613519036625853345_);" d="M1062.5,288.3c0,1.2-1,2.1-2.1,2.1h-24.2
			v11.1l-18.3-6.6l-12.5-4.5h-14.8v3.3l-28.7-2.7l-6.6-0.6H937l24,20.1l12.3,5.5l19.7,8.8l-6.2,7.4l28.1,23.6c1,0.8,1,2.1,0.2,3.1
			s-2.1,1-3.1,0.2l-28.1-23.6l-6.2,7.4l-12.1-17.7l-7.6-11.3l-25-20.9v19.5l0.6,7l2.7,28.7h-3.3v15.2l4.5,12.5l6.6,18.3h-11.1v23.8
			c0,1.2-1,2.1-2.1,2.1s-2.1-1-2.1-2.1v-23.8h-11.1l6.6-18.3l4.5-12.5v-15.2h-3.3l2.7-28.7l0.6-6.6v-19.7l-25,20.9l-7.6,11.3
			l-12.1,17.7l-6.2-7.4l-28.1,23.6c-1,0.8-2.3,0.6-3.1-0.2c-0.8-1-0.6-2.3,0.2-3.1l28.1-23.6l-6.2-7.4l19.7-8.8l12.3-5.5l24-20.1
			h-18.3l-6.6,0.6l-28.7,2.7v-3.3h-15.2l-12.5,4.5l-18.3,6.6v-11.1h-23.8c-1.2,0-2.1-1-2.1-2.1c0-1.2,1-2.1,2.1-2.1h23.8v-11.1
			l18.3,6.6l12.5,4.5h15.2V283l28.7,2.7l7,0.6h18.1l-12.1-10.1l-12.5-5.7l-19.7-8.8l6.2-7.4L846.9,221c-1-0.8-1-2.1-0.2-3.1
			s2.1-1,3.1-0.2l39.8,33.3l6.2-7.4l12.1,17.7l7.6,11.3l13.3,11.1v-19.7l-0.6-6.6l-2.7-28.7h3.3V214l-4.5-12.5l-6.6-18.3h11.1V159
			c0-1.2,1-2.1,2.1-2.1s2.1,1,2.1,2.1v24.2h11.1l-6.6,18.3l-4.5,12.5v14.8h3.3l-2.7,28.7l-0.6,7V284l13.3-11.1l7.6-11.3l12.1-17.7
			l6.2,7.4l39.8-33.3c1-0.8,2.3-0.6,3.1,0.2c0.8,1,0.6,2.3-0.2,3.1l-39.8,33.3l6.2,7.4l-19.7,8.8l-12.5,5.7l-12.1,10.1h18.1l7-0.6
			l28.7-2.7v3.3h14.8l12.5-4.5l18.3-6.6v11.1h24.2C1061.6,286.1,1062.5,287.1,1062.5,288.3z"/>
	</g>
</g>
</svg>
