<?xml version="1.0" encoding="utf-8"?>
<!-- Generator: Adobe Illustrator 26.5.0, SVG Export Plug-In . SVG Version: 6.00 Build 0)  -->
<svg version="1.1" xmlns="http://www.w3.org/2000/svg" xmlns:xlink="http://www.w3.org/1999/xlink" x="0px" y="0px"
	 viewBox="0 0 1080 1080" style="enable-background:new 0 0 1080 1080;" xml:space="preserve">
<style type="text/css">
	.st0{display:none;fill:#FF7BAC;}
	.st1{fill:#E2E2E3;}
	.st2{fill:none;}
	.st3{fill:#0071BC;}
	.st4{fill:url(#SVGID_1_);}
	.st5{fill:url(#SVGID_00000171678849543836667650000008707026460793747869_);}
	.st6{fill:url(#SVGID_00000107555731065409436450000007332087052093757857_);}
</style>
<g id="Слой_2">
</g>
<g id="Слой_1">
	<path class="st0" d="M697,495c0.1,3.2-0.3,6.5-1.1,10c-0.2,0.8-0.4,1.6-0.6,2.4c-1.6,5.3-4.2,10.8-7.8,16.9
		c-0.2,0.4-0.5,0.8-0.7,1.2c-0.1,0.2-0.3,0.4-0.4,0.7c-0.7,1.1-1.4,2.2-2.2,3.4c-0.3,0.5-0.7,1-1,1.5c-0.5,0.7-1,1.5-1.5,2.2
		c-3.1,4.3-6.6,8.9-10.5,13.8c-0.8,1-1.7,2-2.5,3.1h0c-1.1,1.4-2.3,2.8-3.6,4.2c-3.2,3.8-6.6,7.7-10.3,11.9l0,0
		c-0.7,0.8-1.5,1.7-2.2,2.5c-1.9,2.1-3.8,4.3-5.8,6.5c-0.4,0.4-0.8,0.8-1.2,1.3c-0.4,0.5-0.9,0.9-1.3,1.4c-0.7,0.7-1.3,1.4-2,2.2
		c-1.7,1.9-3.5,3.8-5.3,5.8c-0.8,0.9-1.7,1.8-2.5,2.8c-0.6,0.6-1.1,1.2-1.7,1.8c-0.3,0.3-0.6,0.7-1,1c-0.3,0.3-0.5,0.6-0.8,0.8
		c-0.6-0.8-0.9-1.8-1.2-2.8c-1.1-0.9-2.4-1.4-3.6-1.6c-0.7,1.8-0.8,2.8-0.2,3.7c0.3,0.5,0.8,0.9,1.6,1.4c0.2,0.2,0.4,0.5,0.4,0.8
		c0.1,0.6,0.3,0.9,0.6,1.2c-0.4,0.4-0.8,0.8-1.2,1.2c-0.5,0.5-1,1.1-1.5,1.6c-0.2,0.2-0.4,0.4-0.6,0.6c-0.7,0.8-1.5,1.6-2.2,2.4
		c-2,2.2-4.1,4.4-6.2,6.6c-0.1,0.1-0.2,0.2-0.3,0.4h0c-0.1,0.1-0.1,0.2-0.2,0.2c0,0,0,0-0.1,0.1v0c-1,1.1-2,2.2-3.1,3.3
		c-0.2,0.2-0.5,0.5-0.7,0.7c-0.5,0.5-1,1-1.5,1.6c-0.1,0.1-0.2,0.2-0.2,0.3c-1.5,1.6-3,3.2-4.7,5c-3.3,3.5-6.8,7.3-10.7,11.4
		c-0.3,0.4-0.7,0.7-1,1.1c-1.4,1.5-2.9,3.1-4.4,4.7c-1.4,1.5-2.8,3-4.2,4.5c-0.3,0.3-0.6,0.7-0.9,1c-0.8,0.8-1.6,1.7-2.4,2.5
		c-3.1,3.2-6.2,6.6-9.6,10.2c-1-0.7-1.8-1.4-2.6-2.4c-0.1-1.8-1.8-3.2-1.5-5.2c0.2-1,0.2-2.1,1.4-2.5c1.1-0.5,1.6,0.3,2.2,1.1
		c1.2,1.5,2,0.5,2.4-0.7c0.5-1.6,0.6-3.4,0-5.1c-0.8,1-0.9,3.3-3,1.5c-1.2,1.7-3.1,2.7-4.3,4.5c-0.9,1.5-2.8,0.3-4.2,0.3
		c-0.6,0.7-1,1.4-1.4,2.2c1.1,1.2,2.5,2.2,3.6,3.4c0.1,0.1,0.2,0.3,0.4,0.4c0.1,0.1,0.2,0.2,0.3,0.4c0.1,0.1,0.1,0.2,0.2,0.3
		c0.1,0.1,0.1,0.2,0.2,0.3c0.1,0.1,0.1,0.3,0.2,0.4c0.2,0.5,1.5,1.1,0.6,1.6c-1.3,0.6-0.7,3-2.6,2.6c-1.1-0.2-0.5-1.5-0.9-1.9
		c-0.6-0.8-1.1-1.7-1.7-2.5c-0.1-0.1-0.1-0.2-0.2-0.3c0,0,0,0,0-0.1h0c-0.3-0.1-0.6-0.4-0.9-0.6c-0.7,0.8-1.3,1.6-1.6,2.6
		c-0.9,3.4-3.5,5.6-5.8,7.9c-1.3,1.3-3.1,2.4-5.2,1.1c-2.5-1.5-4.4-0.3-6.4,1.1c-1.4,1-2.8,1.9-4.1,2.9c0.1,1,0,1.9-0.2,2.8
		c0.4,0.7,0.8,1.4,1.1,2.1c0.1,0.2,0.2,0.3,0.3,0.5c0.5,0.9,1,1.7,1.8,2.4c0.1,0.1,0.2,0.2,0.2,0.2c0.1,0.1,0.2,0.2,0.4,0.3
		c0.4,0.3,0.7,0.4,1.1,0.2c2.5-1.3,5-1,7.7-0.7c0.2,0,0.3,0,0.5,0.1c0.1,0,0.1,0,0.2,0c0.1,0,0.2,0,0.3,0c0.1,0,0.2,0,0.3,0.1
		c0.1,0,0.3,0.1,0.4,0.1c0,0,0,0,0,0c0.1,0,0.1,0.1,0.2,0.1c0.1,0,0.1,0.1,0.2,0.1c-5.5,5.8-11.2,11.9-17.2,18.2
		c-1.6,1.7-3.2,3.3-4.8,5.1c-1.8,1.9-3.7,3.9-5.5,5.9c-0.7,0.8-1.5,1.5-2.2,2.3c-1.8-1.7-3.7-3.4-5.7-5.2l0,0
		c-1.5-1.4-3-2.8-4.6-4.2h0c-0.9-0.8-1.7-1.6-2.6-2.4c-1.8-1.7-3.6-3.4-5.5-5.1h0c-1.6-1.5-3.3-3.1-5-4.7c-0.4-0.4-0.8-0.8-1.2-1.2
		c-4.7-4.4-9.6-9.1-14.7-14c-0.7-0.7-1.4-1.4-2.1-2.1c-1.8-1.7-3.6-3.5-5.4-5.3c-0.8-0.8-1.7-1.6-2.5-2.5c-3.5-3.4-7-6.9-10.6-10.5
		c-1.3-1.3-2.6-2.6-3.9-3.9c-0.7-0.7-1.4-1.4-2-2.1c-1.7-1.7-3.4-3.4-5.1-5.1c-1.3-1.3-2.5-2.6-3.8-3.9c-2.7-2.7-5.4-5.5-8.1-8.3
		c-0.9-1-1.8-1.9-2.7-2.9c-0.9-1-1.9-1.9-2.8-2.9c-0.5-0.5-1-1-1.4-1.5c-0.6-0.6-1.2-1.2-1.8-1.8c-1-1-1.9-2-2.8-3c0,0,0,0,0,0
		c-0.3-0.3-0.6-0.7-1-1l0,0c-0.3-0.4-0.7-0.8-1.1-1.2c-1.4-1.5-2.8-3-4.2-4.5c-1.1-1.2-2.2-2.4-3.3-3.6c-0.6-0.6-1.2-1.3-1.8-1.9
		c-0.3-0.3-0.6-0.6-0.9-0.9c-1.1-1.2-2.1-2.3-3.2-3.5c-3.3-3.7-6.5-7.2-9.6-10.6c-0.5-0.6-1-1.1-1.5-1.7c-0.6-0.7-1.2-1.4-1.8-2.1
		c-0.9-1-1.8-2-2.6-3c-0.3-0.4-0.7-0.8-1-1.1c-7.3-8.4-13.5-15.9-18.9-22.7c0,0,0,0,0,0c-2.9-3.6-5.4-7-7.8-10.2
		c-0.4-0.6-0.8-1.2-1.2-1.7c-0.5-0.7-1-1.4-1.5-2c-0.5-0.7-1-1.4-1.5-2.1v0c-0.4-0.6-0.9-1.2-1.3-1.8c-3.8-5.5-6.8-10.3-9.3-14.6
		c2.4-0.6,4.9-1.4,7.5-0.7c0.3,0.1,0.7-0.4,1-0.6c-1.1-0.6-2.3-1.4-3.3-2.2c-1.6-1.2-2.7-1-4.1,0.5c0.1-1.3,1.5-1.9,0.6-3
		c1.4-0.5,3.2,0.5,4.3-0.8c1.1-1.3,2.5-1.8,4-2.5c1.6-0.7,1.6-3.1,2.6-4.5c0.6-0.9-0.9-1.1-1.4-1.7c-2.4,1-0.1-1.7-1.4-1.9
		c-0.3,0,0-1.1,0.6-1.4c0.1,0,0.2,0,0.2,0.1c0.4,2.2,2.7,0.8,3.6,2c0.3,0,0.6,0,0.9,0c-0.3-1.3-1.4-2.4-1.1-4c0.1-0.8,0.1-2.2-1.5-2
		c-1.5,0.2-1.4-1.1-1.7-2c0.9-0.7,2.9,0.7,2.7-1.3c-0.1-1.1-1.2-1.9-2.8-1.2c-0.8,0.3-1.9-0.2-2.9-0.3c-3,1-3.5,4.2-5.1,6.3
		c0.4,0.7,0.8,1.5,1.2,2.2c-0.7,0.7-1.6,1.3-0.9,2.6c0.9,1.5,0.3,2.7-0.7,3.9c-1.2,1.4-2.5,0.1-3.7-0.1c-0.4,0-0.7-0.4-1.1-0.6
		c-0.6-0.3-1.2-0.6-1.5,0.2c-0.2,0.6,0.3,0.9,0.8,1c1,0.2,1.9,0.5,1.6,1.7c-0.3,1-1.2,0.6-2,0.7c-0.4,0-0.8,0.1-1.2,0.2
		c-3.2-7.2-4.1-12.4-4.2-16.5v-0.4c0-0.4,0-0.8,0-1.2c0-0.9,0-1.7,0.1-2.4c0.1-2.2,0.3-4.5,0.7-6.7c1.8-12.5,6.8-24.4,13.8-35.2
		c0.5-0.9,1.1-1.7,1.7-2.5c0.3-0.5,0.6-0.9,1-1.4c3.3-4.7,6.9-9.1,10.8-13.2c1.2-1.3,2.5-2.6,3.8-3.9c10.9-10.7,23.3-19.4,35.2-25.1
		c0.7-0.3,1.4-0.7,2.1-1c1.2-0.5,2.3-1,3.4-1.5c2.4-1,4.8-1.9,7.1-2.6c0.5-0.2,0.9-0.3,1.4-0.4c5.4-1.6,10.4-2.4,15-2.4
		c2.9,0,5.7,0.1,8.6,0.4c3.1,0.3,6.2,0.7,9.2,1.3c1,0.2,1.9,0.4,2.8,0.6c3,0.7,6,1.5,9,2.4c0.5,0.2,1,0.3,1.5,0.5c0,0,0.1,0,0.1,0
		c1.7,0.6,3.5,1.2,5.2,2c0.9,0.4,1.9,0.8,2.8,1.2c1.3,0.6,2.6,1.2,3.9,1.9c2,1,4,2.1,6,3.3c3.2,1.9,6.2,4,9.1,6.2
		c2.4,1.9,4.8,3.9,7.1,6c2.1,2,4.2,4.1,6.2,6.3c2.3,2.6,4.5,5.3,6.6,8.2c0.4,0.5,0.7,1,1.1,1.6c0.1,0.2,0.2,0.3,0.3,0.5
		c0.2-0.3,0.4-0.5,0.6-0.8c0.2-0.3,0.4-0.6,0.6-0.8c0.6-0.8,1.2-1.6,1.8-2.5c3.2-4.2,6.8-8.2,10.6-11.9c2.2-2.1,4.4-4,6.8-5.8
		c0.6-0.5,1.3-1,2-1.5c1-0.8,2.1-1.5,3.2-2.3c1.4-1,2.9-1.9,4.3-2.8c2.8-1.7,5.6-3.2,8.5-4.6c2.7-1.3,5.4-2.4,8.1-3.4
		c5-1.8,10.2-3.2,15.6-4.2c0.9-0.2,1.9-0.3,2.8-0.5c0.1,0,0.1,0,0.2,0c4.7-0.7,9.5-1.1,14.4-1.1c4.1,0,8.5,0.7,13.3,1.9
		c2,0.5,4.2,1.2,6.3,2c0.4,0.1,0.8,0.3,1.3,0.4c1.2,0.5,2.4,0.9,3.6,1.5h0c1.9,0.8,3.9,1.7,5.8,2.7c2.3,1.1,4.6,2.4,6.9,3.7
		c0.9,0.5,1.8,1.1,2.8,1.6l0,0c1.3,0.8,2.5,1.6,3.8,2.4c0.7,0.4,1.3,0.9,2,1.3c5.7,3.9,11.3,8.4,16.6,13.3c1.9,1.8,3.7,3.6,5.5,5.4
		c0.2,0.2,0.3,0.4,0.5,0.6c1,1,1.9,2.1,2.8,3.1c0,0,0,0,0,0c1.7,1.9,3.4,3.9,5,6c0.8,1,1.5,2,2.3,3c0.4,0.6,0.8,1.2,1.2,1.8
		c4.3,6.1,7.9,12.5,10.6,19.3c0.5,1.3,1,2.6,1.5,3.9c1.9,5.5,3.3,11.2,3.9,17c0.1,0.5,0.1,1,0.1,1.5c0.1,0.7,0.1,1.4,0.1,2v0
		C697,493.9,697,494.5,697,495z"/>
	<path class="st1" d="M240.5,296.4c0.1-0.3,0.2-0.7,0.4-0.8c0.2-0.1,0.7,0.1,0.8,0.3c0.1,0.2-0.1,0.7-0.3,0.8
		C241.1,296.8,240.7,296.5,240.5,296.4z"/>
	<rect x="11.5" y="11.5" class="st2" width="1057" height="1057"/>
	<g>
		<path class="st3" d="M370.8,642.3l1-3c0,1,0,2,0,3H370.8z"/>
		<polygon class="st3" points="590.1,642.3 590.1,642.3 590.1,642.1 		"/>
		<g>
			
				<radialGradient id="SVGID_1_" cx="392.3184" cy="1086.5067" r="380.837" gradientTransform="matrix(1 0 0 1 0 -540)" gradientUnits="userSpaceOnUse">
				<stop  offset="0" style="stop-color:#ACFFFA"/>
				<stop  offset="1" style="stop-color:#3B8981"/>
			</radialGradient>
			<path class="st4" d="M773.1,546.3c0,3.4-2.8,6.1-6.1,6.1h-69.8v32.3l-53-19.3l-36.3-13h-43v9.9l-83-7.9l-19.3-1.8h-53.2
				l69.2,58.2l35.7,16l56.6,25.4l-17.9,21.3l81,68c2.6,2.2,3,6.3,0.8,8.9s-6.1,3-8.9,0.8l-81-68l-17.9,21.3L491.9,653l-22.1-32.5
				l-72-60.5v56.2l2,20.1l7.9,83h-9.9v44.2l13,36.3l19.1,53h-32.3v68.6c0,3.4-2.8,6.1-6.1,6.1c-3.4,0-6.1-2.8-6.1-6.1v-68.6h-32.3
				l19.1-53l13-36.3v-44h-9.9l7.9-83l1.8-19.3v-57.6l-72,60.5L291,652.6L256.1,704l-17.9-21.3l-81,68c-2.6,2.2-6.7,2-8.9-0.8
				c-2.2-2.6-1.8-6.7,0.8-8.9l81-68l-17.9-21.3l56.6-25.4l35.9-16l69.2-58.2h-53.2l-19.3,1.8l-83,7.9V552H174l-34.7,13.4l-53,19.1
				v-32.3H17.7c-3.4,0-6.1-2.8-6.1-6.1c0-3.4,2.8-6.1,6.1-6.1h68.6v-32.3l53,19.1l36.3,13h44v-9.9l83,7.9l20.1,2h52.6l-35.3-29.6
				l-35.9-16.2l-56.8-25.4l17.9-21.3l-115-96.4c-2.6-2.2-3-6.1-0.8-8.9c2.2-2.6,6.1-3,8.9-0.8l115,96.4l17.9-21.3l34.9,51.5
				l21.9,32.5l38.3,31.9v-57l-1.8-19.3l-7.9-83h9.9v-42.2l-13-36.3l-19.1-53h32.3v-69.8c0-3.4,2.8-6.1,6.1-6.1
				c3.4,0,6.1,2.8,6.1,6.1v69.8h32.3l-19.1,53l-13,36.3v43h9.9l-7.9,83l-2,20.1v56.4l38.3-32.1l21.9-32.5l34.9-51.5l17.9,21.3
				l115-96.4c2.6-2.2,6.7-1.8,8.9,0.8c2.2,2.6,2,6.5-0.8,8.9l-115,96.4l17.9,21.3l-56.8,25.4L445.6,511l-35.3,29.6h52.6l20.1-2
				l83-7.9v9.9h42.8l36.3-13l53-19.1v32.3h69.8C770.3,540.2,773.1,543,773.1,546.3z"/>
		</g>
		<g>
			
				<radialGradient id="SVGID_00000052805550946611400330000003738934107207318716_" cx="880.8112" cy="1252.328" r="164.6877" gradientTransform="matrix(1 0 0 1 0 -540)" gradientUnits="userSpaceOnUse">
				<stop  offset="0" style="stop-color:#ACFFFA"/>
				<stop  offset="1" style="stop-color:#3B8981"/>
			</radialGradient>
			<path style="fill:url(#SVGID_00000052805550946611400330000003738934107207318716_);" d="M1045.4,712.5c0,1.4-1.2,2.6-2.6,2.6
				h-30.2v14l-23.1-8.3l-15.6-5.7h-18.5v4.1l-35.9-3.4l-8.5-0.8H888l30,25.2l15.4,6.9l24.4,11l-7.7,9.3l35.1,29.4
				c1.2,1,1.4,2.8,0.4,3.7c-1,1.2-2.6,1.2-3.7,0.4l-35.1-29.4l-7.7,9.3l-15.2-22.3l-9.5-14.2l-31.2-26.2v24.4l0.8,8.7l3.4,35.9h-4.3
				v19.1l5.7,15.6l8.3,23.1h-14v29.6c0,1.4-1.2,2.6-2.6,2.6s-2.6-1.2-2.6-2.6V845h-14l8.3-23.1l5.7-15.8v-18.9h-4.1l3.4-35.9
				l0.8-8.5v-24.6l-31.2,26.2l-9.5,14.2l-15,22.3l-7.7-9.3l-35.1,29.4c-1.2,1-2.8,0.8-3.7-0.4c-1-1.2-0.8-3,0.4-3.7l35.1-29.4
				l-7.7-9.3l24.4-11l15.6-6.9l30-25.2h-23.1l-8.5,0.8l-35.9,3.4v-3.9h-19.1l-15.6,5.7l-23.1,8.3v-14h-29.6c-1.4,0-2.6-1.2-2.6-2.6
				c0-1.4,1.2-2.6,2.6-2.6h29.6v-14l23.1,8.3l15.8,5.7h18.9v-4.3l35.9,3.4l8.7,0.8h22.9l-15.2-12.8l-15.6-6.9l-24.6-11l7.7-9.3
				l-49.7-41.8c-1.2-1-1.4-2.6-0.4-3.7c1-1.2,2.6-1.4,3.7-0.4l49.7,41.8l7.7-9.3l15.2,22.3l9.5,14l16.6,13.8V682l-0.8-8.5l-3.4-35.9
				h4.1v-18.5l-5.7-15.8l-8.3-23.1h14v-30.2c0-1.4,1.2-2.6,2.6-2.6s2.6,1.2,2.6,2.6v30.2h14l-8.3,23.1l-5.7,15.6v18.5h4.3l-3.4,35.9
				l-0.8,8.7v24.4l16.6-14l9.5-14l15.2-22.3l7.7,9.3l49.7-41.8c1.2-1,2.8-0.8,3.7,0.4c1,1.2,0.8,2.8-0.4,3.7l-49.7,41.8l7.7,9.3
				l-24.6,11l-15.6,6.9L888,709.6h22.9l8.7-0.8l35.9-3.4v4.3H974l15.8-5.7l23.1-8.3v14h29.6C1044.2,710,1045.4,711.1,1045.4,712.5z"
				/>
		</g>
		<g>
			
				<radialGradient id="SVGID_00000088833703794289416940000011026651033740527494_" cx="935.4443" cy="825.6486" r="133.0333" gradientTransform="matrix(1 0 0 1 0 -540)" gradientUnits="userSpaceOnUse">
				<stop  offset="0" style="stop-color:#ACFFFA"/>
				<stop  offset="1" style="stop-color:#3B8981"/>
			</radialGradient>
			<path style="fill:url(#SVGID_00000088833703794289416940000011026651033740527494_);" d="M1068.4,285.5c0,1.2-1,2.2-2.2,2.2
				h-24.4v11.2l-18.5-6.7l-12.6-4.5h-15v3.4l-29-2.8l-6.7-0.6h-18.5l24.3,20.3l12.4,5.5l19.9,8.9l-6.3,7.5l28.4,23.9
				c1,0.8,1,2.2,0.2,3.2c-0.8,1-2.2,1-3.2,0.2l-28.4-23.9l-6.3,7.5l-12.2-17.9l-7.7-11.4l-25.2-21.1v19.7l0.6,7.1l2.8,29h-3.4v15.4
				l4.5,12.6l6.7,18.5h-11.2v24.1c0,1.2-1,2.2-2.2,2.2s-2.2-1-2.2-2.2v-24.1h-11.2l6.7-18.5l4.5-12.6V346h-3.4l2.8-29l0.6-6.7v-19.9
				l-25.2,21.1l-7.7,11.4l-12.2,17.9l-6.3-7.5l-28.4,23.9c-1,0.8-2.4,0.6-3.2-0.2c-0.8-1-0.6-2.4,0.2-3.2l28.4-23.9l-6.3-7.5
				l19.9-8.9l12.4-5.5l24.3-20.3h-18.5l-6.7,0.6l-29,2.8v-3.4h-15.4l-12.6,4.5l-18.5,6.7v-11.2H804c-1.2,0-2.2-1-2.2-2.2
				c0-1.2,1-2.2,2.2-2.2h24.1v-11.2l18.5,6.7l12.6,4.5h15.4v-3.4l29,2.8l7.1,0.6H929l-12.2-10.3l-12.6-5.7l-19.9-8.9l6.3-7.5
				l-40.2-33.7c-1-0.8-1-2.2-0.2-3.2c0.8-1,2.2-1,3.2-0.2l40.2,33.7l6.3-7.5l12.2,17.9l7.7,11.4l13.4,11.2V261l-0.6-6.7l-2.8-29h3.4
				v-15l-4.5-12.6l-6.7-18.5h11.2v-24.4c0-1.2,1-2.2,2.2-2.2s2.2,1,2.2,2.2v24.4h11.2l-6.7,18.5l-4.5,12.6v15h3.4l-2.8,29l-0.6,7.1
				v19.7l13.4-11.2l7.7-11.4l12.2-17.9l6.3,7.5l40.2-33.7c1-0.8,2.4-0.6,3.2,0.2c0.8,1,0.6,2.4-0.2,3.2l-40.2,33.7l6.3,7.5
				l-19.9,8.9l-12.6,5.7l-12.2,10.3H960l7.1-0.6l29-2.8v3.4h15l12.6-4.5l18.5-6.7v11.2h24.4C1067.4,283.3,1068.4,284.3,1068.4,285.5
				z"/>
		</g>
	</g>
</g>
</svg>
