<svg width="109" height="97" viewBox="0 0 109 97" fill="none" xmlns="http://www.w3.org/2000/svg">
<rect width="109" height="97" fill="#F5F5F5"/>
<g id="&#208;&#147;&#208;&#190;&#208;&#187;&#208;&#190;&#208;&#178;&#208;&#189;&#208;&#184;&#208;&#185; &#208;&#181;&#208;&#186;&#209;&#128;&#208;&#176;&#208;&#189;">
<rect width="375" height="812" transform="translate(-189 -44)" fill="white"/>
<path id="&#208;&#188;. &#208;&#148;&#208;&#190;&#208;&#189;&#208;&#181;&#209;&#134;&#209;&#140;&#208;&#186; &#208;&#148;&#208;&#190;&#208;&#189;&#208;&#181;&#209;&#134;&#209;&#140;&#208;&#186;&#208;&#176; &#208;&#190;&#208;&#177;&#208;&#187;., &#208;&#163;&#208;&#186;&#209;&#128;&#208;&#176;&#209;&#151;&#208;&#189;&#208;&#176;" d="M-168 94.2727L-163.432 83.9091H-161.523L-167.182 97H-168.818L-174.375 83.9091H-172.5L-168 94.2727ZM-173.148 83.9091V97H-175.159V83.9091H-173.148ZM-162.852 97V83.9091H-160.841V97H-162.852ZM-155.693 97.1364C-156.114 97.1364 -156.474 96.9858 -156.776 96.6847C-157.077 96.3835 -157.227 96.0227 -157.227 95.6023C-157.227 95.1818 -157.077 94.821 -156.776 94.5199C-156.474 94.2187 -156.114 94.0682 -155.693 94.0682C-155.273 94.0682 -154.912 94.2187 -154.611 94.5199C-154.31 94.821 -154.159 95.1818 -154.159 95.6023C-154.159 95.8807 -154.23 96.1364 -154.372 96.3693C-154.509 96.6023 -154.693 96.7898 -154.926 96.9318C-155.153 97.0682 -155.409 97.1364 -155.693 97.1364ZM-145.027 101.227V95.125H-143.902C-143.516 94.7727 -143.152 94.2756 -142.811 93.6335C-142.464 92.9858 -142.172 92.1222 -141.933 91.0426C-141.689 89.9574 -141.527 88.5795 -141.447 86.9091L-141.072 79.5455H-130.709V95.125H-128.697V101.193H-130.709V97H-143.016V101.227H-145.027ZM-141.379 95.125H-132.72V81.4205H-139.163L-139.436 86.9091C-139.504 88.1818 -139.624 89.3352 -139.794 90.3693C-139.964 91.3977 -140.183 92.3097 -140.45 93.1051C-140.717 93.8949 -141.027 94.5682 -141.379 95.125ZM-120.458 97.2727C-121.64 97.2727 -122.677 96.9915 -123.569 96.429C-124.455 95.8665 -125.148 95.0795 -125.648 94.0682C-126.143 93.0568 -126.39 91.875 -126.39 90.5227C-126.39 89.1591 -126.143 87.9687 -125.648 86.9517C-125.148 85.9347 -124.455 85.1449 -123.569 84.5824C-122.677 84.0199 -121.64 83.7386 -120.458 83.7386C-119.276 83.7386 -118.242 84.0199 -117.356 84.5824C-116.464 85.1449 -115.771 85.9347 -115.276 86.9517C-114.776 87.9687 -114.526 89.1591 -114.526 90.5227C-114.526 91.875 -114.776 93.0568 -115.276 94.0682C-115.771 95.0795 -116.464 95.8665 -117.356 96.429C-118.242 96.9915 -119.276 97.2727 -120.458 97.2727ZM-120.458 95.4659C-119.56 95.4659 -118.822 95.2358 -118.242 94.7756C-117.663 94.3153 -117.234 93.7102 -116.955 92.9602C-116.677 92.2102 -116.538 91.3977 -116.538 90.5227C-116.538 89.6477 -116.677 88.8324 -116.955 88.0767C-117.234 87.321 -117.663 86.7102 -118.242 86.2443C-118.822 85.7784 -119.56 85.5455 -120.458 85.5455C-121.356 85.5455 -122.094 85.7784 -122.674 86.2443C-123.254 86.7102 -123.683 87.321 -123.961 88.0767C-124.239 88.8324 -124.379 89.6477 -124.379 90.5227C-124.379 91.3977 -124.239 92.2102 -123.961 92.9602C-123.683 93.7102 -123.254 94.3153 -122.674 94.7756C-122.094 95.2358 -121.356 95.4659 -120.458 95.4659ZM-102.695 89.5341V91.4091H-109.922V89.5341H-102.695ZM-109.445 83.9091V97H-111.456V83.9091H-109.445ZM-101.161 83.9091V97H-103.172V83.9091H-101.161ZM-91.9986 97.2727C-93.2599 97.2727 -94.348 96.9943 -95.2628 96.4375C-96.1719 95.875 -96.8736 95.0909 -97.3679 94.0852C-97.8565 93.0739 -98.1009 91.8977 -98.1009 90.5568C-98.1009 89.2159 -97.8565 88.0341 -97.3679 87.0114C-96.8736 85.983 -96.1861 85.1818 -95.3054 84.608C-94.419 84.0284 -93.3849 83.7386 -92.2031 83.7386C-91.5213 83.7386 -90.848 83.8523 -90.1832 84.0795C-89.5185 84.3068 -88.9134 84.6761 -88.3679 85.1875C-87.8224 85.6932 -87.3878 86.3636 -87.0639 87.1989C-86.7401 88.0341 -86.5781 89.0625 -86.5781 90.2841V91.1364H-96.669V89.3977H-88.6236C-88.6236 88.6591 -88.7713 88 -89.0668 87.4205C-89.3565 86.8409 -89.7713 86.3835 -90.3111 86.0483C-90.8452 85.7131 -91.4759 85.5455 -92.2031 85.5455C-93.0043 85.5455 -93.6974 85.7443 -94.2827 86.142C-94.8622 86.5341 -95.3082 87.0455 -95.6207 87.6761C-95.9332 88.3068 -96.0895 88.983 -96.0895 89.7045V90.8636C-96.0895 91.8523 -95.919 92.6903 -95.5781 93.3778C-95.2315 94.0597 -94.7514 94.5795 -94.1378 94.9375C-93.5241 95.2898 -92.8111 95.4659 -91.9986 95.4659C-91.4702 95.4659 -90.9929 95.392 -90.5668 95.2443C-90.1349 95.0909 -89.7628 94.8636 -89.4503 94.5625C-89.1378 94.2557 -88.8963 93.875 -88.7259 93.4205L-86.7827 93.9659C-86.9872 94.625 -87.331 95.2045 -87.8139 95.7045C-88.2969 96.1989 -88.8935 96.5852 -89.6037 96.8636C-90.3139 97.1364 -91.1122 97.2727 -91.9986 97.2727ZM-73.223 83.9091V95.125H-71.3821V101.227H-73.3935V97H-83.5185V83.9091H-81.5071V95.125H-75.2344V83.9091H-73.223ZM-66.5455 88.6477H-62.7955C-61.2614 88.6477 -60.0881 89.0369 -59.2756 89.8153C-58.4631 90.5937 -58.0568 91.5795 -58.0568 92.7727C-58.0568 93.5568 -58.2386 94.2699 -58.6023 94.9119C-58.9659 95.5483 -59.5 96.0568 -60.2045 96.4375C-60.9091 96.8125 -61.7727 97 -62.7955 97H-68.2841V83.9091H-66.2727V95.125H-62.7955C-62 95.125 -61.3466 94.9148 -60.8352 94.4943C-60.3239 94.0739 -60.0682 93.5341 -60.0682 92.875C-60.0682 92.1818 -60.3239 91.6165 -60.8352 91.179C-61.3466 90.7415 -62 90.5227 -62.7955 90.5227H-66.5455V88.6477ZM-54.995 97V83.9091H-52.9837V89.6023H-51.6541L-46.9496 83.9091H-44.3587L-49.6428 90.2159L-44.2905 97H-46.8814L-51.1768 91.4773H-52.9837V97H-54.995ZM-176.489 124.523V119.438H-175.551C-175.229 119.144 -174.926 118.73 -174.642 118.195C-174.353 117.655 -174.109 116.935 -173.911 116.036C-173.707 115.131 -173.572 113.983 -173.506 112.591L-173.193 106.455H-164.557V119.438H-162.881V124.494H-164.557V121H-174.812V124.523H-176.489ZM-173.449 119.438H-166.233V108.017H-171.602L-171.83 112.591C-171.886 113.652 -171.986 114.613 -172.128 115.474C-172.27 116.331 -172.452 117.091 -172.675 117.754C-172.897 118.412 -173.155 118.973 -173.449 119.438ZM-156.015 121.227C-156.999 121.227 -157.864 120.993 -158.607 120.524C-159.346 120.055 -159.923 119.4 -160.34 118.557C-160.752 117.714 -160.958 116.729 -160.958 115.602C-160.958 114.466 -160.752 113.474 -160.34 112.626C-159.923 111.779 -159.346 111.121 -158.607 110.652C-157.864 110.183 -156.999 109.949 -156.015 109.949C-155.03 109.949 -154.168 110.183 -153.429 110.652C-152.686 111.121 -152.108 111.779 -151.696 112.626C-151.28 113.474 -151.071 114.466 -151.071 115.602C-151.071 116.729 -151.28 117.714 -151.696 118.557C-152.108 119.4 -152.686 120.055 -153.429 120.524C-154.168 120.993 -155.03 121.227 -156.015 121.227ZM-156.015 119.722C-155.266 119.722 -154.651 119.53 -154.168 119.146C-153.685 118.763 -153.328 118.259 -153.096 117.634C-152.864 117.009 -152.748 116.331 -152.748 115.602C-152.748 114.873 -152.864 114.194 -153.096 113.564C-153.328 112.934 -153.685 112.425 -154.168 112.037C-154.651 111.649 -155.266 111.455 -156.015 111.455C-156.763 111.455 -157.378 111.649 -157.861 112.037C-158.344 112.425 -158.702 112.934 -158.934 113.564C-159.166 114.194 -159.282 114.873 -159.282 115.602C-159.282 116.331 -159.166 117.009 -158.934 117.634C-158.702 118.259 -158.344 118.763 -157.861 119.146C-157.378 119.53 -156.763 119.722 -156.015 119.722ZM-141.212 114.778V116.341H-147.234V114.778H-141.212ZM-146.837 110.091V121H-148.513V110.091H-146.837ZM-139.933 110.091V121H-141.609V110.091H-139.933ZM-132.298 121.227C-133.349 121.227 -134.256 120.995 -135.018 120.531C-135.776 120.062 -136.361 119.409 -136.773 118.571C-137.18 117.728 -137.384 116.748 -137.384 115.631C-137.384 114.513 -137.18 113.528 -136.773 112.676C-136.361 111.819 -135.788 111.152 -135.054 110.673C-134.315 110.19 -133.454 109.949 -132.469 109.949C-131.901 109.949 -131.339 110.044 -130.786 110.233C-130.232 110.422 -129.727 110.73 -129.273 111.156C-128.818 111.578 -128.456 112.136 -128.186 112.832C-127.916 113.528 -127.781 114.385 -127.781 115.403V116.114H-136.19V114.665H-129.486C-129.486 114.049 -129.609 113.5 -129.855 113.017C-130.097 112.534 -130.442 112.153 -130.892 111.874C-131.337 111.594 -131.863 111.455 -132.469 111.455C-133.136 111.455 -133.714 111.62 -134.202 111.952C-134.685 112.278 -135.056 112.705 -135.317 113.23C-135.577 113.756 -135.707 114.319 -135.707 114.92V115.886C-135.707 116.71 -135.565 117.409 -135.281 117.982C-134.992 118.55 -134.592 118.983 -134.081 119.281C-133.57 119.575 -132.975 119.722 -132.298 119.722C-131.858 119.722 -131.46 119.66 -131.105 119.537C-130.745 119.409 -130.435 119.22 -130.175 118.969C-129.914 118.713 -129.713 118.396 -129.571 118.017L-127.952 118.472C-128.122 119.021 -128.409 119.504 -128.811 119.92C-129.214 120.332 -129.711 120.654 -130.303 120.886C-130.894 121.114 -131.56 121.227 -132.298 121.227ZM-116.652 110.091V119.438H-115.118V124.523H-116.794V121H-125.232V110.091H-123.555V119.438H-118.328V110.091H-116.652ZM-111.087 114.04H-107.962C-106.684 114.04 -105.706 114.364 -105.029 115.013C-104.352 115.661 -104.013 116.483 -104.013 117.477C-104.013 118.131 -104.165 118.725 -104.468 119.26C-104.771 119.79 -105.216 120.214 -105.803 120.531C-106.39 120.844 -107.11 121 -107.962 121H-112.536V110.091H-110.86V119.438H-107.962C-107.299 119.438 -106.755 119.262 -106.329 118.912C-105.903 118.562 -105.69 118.112 -105.69 117.562C-105.69 116.985 -105.903 116.514 -106.329 116.149C-106.755 115.785 -107.299 115.602 -107.962 115.602H-111.087V114.04ZM-101.462 121V110.091H-99.7859V114.835H-98.6779L-94.7575 110.091H-92.5984L-97.0018 115.347L-92.5415 121H-94.7006L-98.2802 116.398H-99.7859V121H-101.462ZM-87.5096 121.256C-88.2009 121.256 -88.8282 121.125 -89.3917 120.865C-89.9551 120.6 -90.4026 120.219 -90.734 119.722C-91.0655 119.22 -91.2312 118.614 -91.2312 117.903C-91.2312 117.278 -91.1081 116.772 -90.8619 116.384C-90.6156 115.991 -90.2866 115.683 -89.8746 115.46C-89.4627 115.238 -89.0082 115.072 -88.511 114.963C-88.0091 114.849 -87.5049 114.759 -86.9982 114.693C-86.3353 114.608 -85.7979 114.544 -85.386 114.501C-84.9693 114.454 -84.6663 114.376 -84.4769 114.267C-84.2828 114.158 -84.1857 113.969 -84.1857 113.699V113.642C-84.1857 112.941 -84.3775 112.397 -84.761 112.009C-85.1398 111.62 -85.7151 111.426 -86.4869 111.426C-87.2871 111.426 -87.9144 111.601 -88.369 111.952C-88.8235 112.302 -89.1431 112.676 -89.3278 113.074L-90.9187 112.506C-90.6346 111.843 -90.2558 111.327 -89.7823 110.957C-89.3041 110.583 -88.7833 110.323 -88.2198 110.176C-87.6516 110.025 -87.0929 109.949 -86.5437 109.949C-86.1933 109.949 -85.7908 109.991 -85.3363 110.077C-84.877 110.157 -84.4343 110.325 -84.0082 110.581C-83.5773 110.837 -83.2198 111.223 -82.9357 111.739C-82.6516 112.255 -82.5096 112.946 -82.5096 113.812V121H-84.1857V119.523H-84.271C-84.3846 119.759 -84.574 120.013 -84.8391 120.283C-85.1043 120.553 -85.457 120.782 -85.8974 120.972C-86.3377 121.161 -86.8751 121.256 -87.5096 121.256ZM-87.2539 119.75C-86.591 119.75 -86.0323 119.62 -85.5778 119.359C-85.1185 119.099 -84.7728 118.763 -84.5408 118.351C-84.3041 117.939 -84.1857 117.506 -84.1857 117.051V115.517C-84.2567 115.602 -84.413 115.68 -84.6545 115.751C-84.8912 115.818 -85.1658 115.877 -85.4783 115.929C-85.7861 115.976 -86.0868 116.019 -86.3803 116.057C-86.6692 116.09 -86.9035 116.118 -87.0835 116.142C-87.5191 116.199 -87.9263 116.291 -88.305 116.419C-88.6791 116.542 -88.9821 116.729 -89.2141 116.98C-89.4414 117.226 -89.555 117.562 -89.555 117.989C-89.555 118.571 -89.3396 119.011 -88.9087 119.31C-88.4731 119.603 -87.9215 119.75 -87.2539 119.75ZM-69.3935 121.227C-70.3783 121.227 -71.2424 120.993 -71.9858 120.524C-72.7244 120.055 -73.3021 119.4 -73.7188 118.557C-74.1307 117.714 -74.3366 116.729 -74.3366 115.602C-74.3366 114.466 -74.1307 113.474 -73.7188 112.626C-73.3021 111.779 -72.7244 111.121 -71.9858 110.652C-71.2424 110.183 -70.3783 109.949 -69.3935 109.949C-68.4086 109.949 -67.5469 110.183 -66.8082 110.652C-66.0649 111.121 -65.4872 111.779 -65.0753 112.626C-64.6586 113.474 -64.4503 114.466 -64.4503 115.602C-64.4503 116.729 -64.6586 117.714 -65.0753 118.557C-65.4872 119.4 -66.0649 120.055 -66.8082 120.524C-67.5469 120.993 -68.4086 121.227 -69.3935 121.227ZM-69.3935 119.722C-68.6454 119.722 -68.0298 119.53 -67.5469 119.146C-67.0639 118.763 -66.7064 118.259 -66.4744 117.634C-66.2424 117.009 -66.1264 116.331 -66.1264 115.602C-66.1264 114.873 -66.2424 114.194 -66.4744 113.564C-66.7064 112.934 -67.0639 112.425 -67.5469 112.037C-68.0298 111.649 -68.6454 111.455 -69.3935 111.455C-70.1416 111.455 -70.7571 111.649 -71.2401 112.037C-71.723 112.425 -72.0805 112.934 -72.3125 113.564C-72.5445 114.194 -72.6605 114.873 -72.6605 115.602C-72.6605 116.331 -72.5445 117.009 -72.3125 117.634C-72.0805 118.259 -71.723 118.763 -71.2401 119.146C-70.7571 119.53 -70.1416 119.722 -69.3935 119.722ZM-53.7951 106L-52.9428 107.023C-53.2743 107.345 -53.6578 107.57 -54.0934 107.697C-54.529 107.825 -55.0214 107.903 -55.5707 107.932C-56.1199 107.96 -56.7307 107.989 -57.4031 108.017C-58.1606 108.045 -58.788 108.23 -59.2852 108.571C-59.7823 108.912 -60.1658 109.404 -60.4357 110.048C-60.7056 110.692 -60.8784 111.483 -60.9542 112.42H-60.8121C-60.4428 111.739 -59.9315 111.237 -59.2781 110.915C-58.6246 110.593 -57.9239 110.432 -57.1758 110.432C-56.3235 110.432 -55.5565 110.631 -54.8746 111.028C-54.1928 111.426 -53.6531 112.016 -53.2553 112.797C-52.8576 113.578 -52.6587 114.542 -52.6587 115.688C-52.6587 116.829 -52.8623 117.813 -53.2695 118.642C-53.672 119.471 -54.2378 120.11 -54.967 120.56C-55.6914 121.005 -56.5413 121.227 -57.5167 121.227C-58.4921 121.227 -59.3467 120.998 -60.0806 120.538C-60.8145 120.074 -61.3851 119.388 -61.7923 118.479C-62.1995 117.565 -62.4031 116.436 -62.4031 115.091V113.926C-62.4031 111.497 -61.9911 109.655 -61.1673 108.401C-60.3387 107.146 -59.0934 106.497 -57.4315 106.455C-56.8443 106.436 -56.3211 106.431 -55.8619 106.44C-55.4026 106.45 -55.0025 106.429 -54.6616 106.376C-54.3207 106.324 -54.0318 106.199 -53.7951 106ZM-57.5167 119.722C-56.8585 119.722 -56.2927 119.556 -55.8192 119.224C-55.341 118.893 -54.9741 118.427 -54.7184 117.825C-54.4627 117.219 -54.3349 116.507 -54.3349 115.688C-54.3349 114.892 -54.4651 114.215 -54.7255 113.656C-54.9812 113.098 -55.3481 112.671 -55.8263 112.378C-56.3046 112.084 -56.8775 111.938 -57.5451 111.938C-58.0328 111.938 -58.4708 112.02 -58.859 112.186C-59.2473 112.352 -59.5787 112.596 -59.8533 112.918C-60.128 113.24 -60.341 113.633 -60.4925 114.097C-60.6393 114.561 -60.7174 115.091 -60.7269 115.688C-60.7269 116.909 -60.4405 117.887 -59.8675 118.621C-59.2946 119.355 -58.511 119.722 -57.5167 119.722ZM-51.0607 121V119.438H-50.663C-50.3363 119.438 -50.064 119.374 -49.8462 119.246C-49.6284 119.113 -49.4532 118.884 -49.3207 118.557C-49.1834 118.225 -49.0792 117.766 -49.0082 117.179C-48.9324 116.587 -48.878 115.834 -48.8448 114.92L-48.646 110.091H-41.3732V121H-43.0494V111.653H-47.055L-47.2255 115.545C-47.2634 116.44 -47.3439 117.229 -47.467 117.911C-47.5853 118.588 -47.7676 119.156 -48.0138 119.615C-48.2553 120.074 -48.5773 120.42 -48.9798 120.652C-49.3822 120.884 -49.8865 121 -50.4925 121H-51.0607ZM-37.0763 121.114C-37.4267 121.114 -37.7274 120.988 -37.9783 120.737C-38.2293 120.486 -38.3548 120.186 -38.3548 119.835C-38.3548 119.485 -38.2293 119.184 -37.9783 118.933C-37.7274 118.682 -37.4267 118.557 -37.0763 118.557C-36.726 118.557 -36.4253 118.682 -36.1744 118.933C-35.9234 119.184 -35.7979 119.485 -35.7979 119.835C-35.7979 120.067 -35.8571 120.28 -35.9755 120.474C-36.0891 120.669 -36.243 120.825 -36.4371 120.943C-36.6265 121.057 -36.8396 121.114 -37.0763 121.114ZM-30.2901 119.011L-30.4038 119.778C-30.4843 120.318 -30.6074 120.896 -30.7731 121.511C-30.9341 122.127 -31.1022 122.707 -31.2773 123.251C-31.4525 123.796 -31.5969 124.229 -31.7106 124.551H-32.989C-32.9274 124.248 -32.8469 123.848 -32.7475 123.351C-32.6481 122.854 -32.5487 122.297 -32.4492 121.682C-32.3451 121.071 -32.2598 120.446 -32.1935 119.807L-32.1083 119.011H-30.2901ZM-20.5653 121.199V119.551H-19.6562C-19.3059 119.551 -19.0123 119.482 -18.7756 119.345C-18.5341 119.208 -18.3352 119.03 -18.179 118.812C-18.018 118.595 -17.8854 118.367 -17.7812 118.131L-17.554 117.591L-22.5824 106.455H-20.679L-16.6733 115.489L-13.0085 106.455H-11.1335L-16.1619 118.642C-16.3608 119.097 -16.5881 119.518 -16.8438 119.906C-17.0947 120.295 -17.438 120.607 -17.8736 120.844C-18.3045 121.08 -18.8892 121.199 -19.6278 121.199H-20.5653ZM-9.87997 121V110.091H-8.20384V114.835H-7.09588L-3.17543 110.091H-1.01634L-5.41974 115.347L-0.959516 121H-3.11861L-6.69815 116.398H-8.20384V121H-9.87997ZM0.862216 125.091V110.091H2.48153V111.824H2.6804C2.8035 111.634 2.97396 111.393 3.19176 111.099C3.4143 110.801 3.73153 110.536 4.14347 110.304C4.56013 110.067 5.12358 109.949 5.83381 109.949C6.75237 109.949 7.56203 110.179 8.26278 110.638C8.96354 111.097 9.51042 111.748 9.90341 112.591C10.2964 113.434 10.4929 114.428 10.4929 115.574C10.4929 116.729 10.2964 117.731 9.90341 118.578C9.51042 119.421 8.96591 120.074 8.26989 120.538C7.57386 120.998 6.77131 121.227 5.86222 121.227C5.16146 121.227 4.60038 121.111 4.17898 120.879C3.75758 120.643 3.43324 120.375 3.20597 120.077C2.97869 119.774 2.8035 119.523 2.6804 119.324H2.53835V125.091H0.862216ZM2.50994 115.545C2.50994 116.369 2.63068 117.096 2.87216 117.726C3.11364 118.351 3.46638 118.841 3.9304 119.196C4.39441 119.546 4.96259 119.722 5.63494 119.722C6.3357 119.722 6.92045 119.537 7.3892 119.168C7.86269 118.794 8.2178 118.292 8.45455 117.662C8.69602 117.027 8.81676 116.322 8.81676 115.545C8.81676 114.778 8.69839 114.087 8.46165 113.472C8.22964 112.851 7.87689 112.361 7.40341 112.001C6.93466 111.637 6.34517 111.455 5.63494 111.455C4.95313 111.455 4.38021 111.627 3.91619 111.973C3.45218 112.314 3.1018 112.792 2.86506 113.408C2.62831 114.018 2.50994 114.731 2.50994 115.545ZM16.2599 121.256C15.5687 121.256 14.9413 121.125 14.3778 120.865C13.8144 120.6 13.367 120.219 13.0355 119.722C12.7041 119.22 12.5384 118.614 12.5384 117.903C12.5384 117.278 12.6615 116.772 12.9077 116.384C13.1539 115.991 13.483 115.683 13.8949 115.46C14.3068 115.238 14.7614 115.072 15.2585 114.963C15.7604 114.849 16.2647 114.759 16.7713 114.693C17.4342 114.608 17.9716 114.544 18.3835 114.501C18.8002 114.454 19.1032 114.376 19.2926 114.267C19.4867 114.158 19.5838 113.969 19.5838 113.699V113.642C19.5838 112.941 19.392 112.397 19.0085 112.009C18.6297 111.62 18.0545 111.426 17.2827 111.426C16.4825 111.426 15.8551 111.601 15.4006 111.952C14.946 112.302 14.6264 112.676 14.4418 113.074L12.8509 112.506C13.1349 111.843 13.5137 111.327 13.9872 110.957C14.4654 110.583 14.9863 110.323 15.5497 110.176C16.1179 110.025 16.6766 109.949 17.2259 109.949C17.5762 109.949 17.9787 109.991 18.4332 110.077C18.8925 110.157 19.3352 110.325 19.7614 110.581C20.1922 110.837 20.5497 111.223 20.8338 111.739C21.1179 112.255 21.2599 112.946 21.2599 113.812V121H19.5838V119.523H19.4986C19.3849 119.759 19.1955 120.013 18.9304 120.283C18.6652 120.553 18.3125 120.782 17.8722 120.972C17.4318 121.161 16.8944 121.256 16.2599 121.256ZM16.5156 119.75C17.1785 119.75 17.7372 119.62 18.1918 119.359C18.651 119.099 18.9967 118.763 19.2287 118.351C19.4654 117.939 19.5838 117.506 19.5838 117.051V115.517C19.5128 115.602 19.3565 115.68 19.1151 115.751C18.8783 115.818 18.6037 115.877 18.2912 115.929C17.9834 115.976 17.6828 116.019 17.3892 116.057C17.1004 116.09 16.866 116.118 16.6861 116.142C16.2505 116.199 15.8433 116.291 15.4645 116.419C15.0904 116.542 14.7874 116.729 14.5554 116.98C14.3281 117.226 14.2145 117.562 14.2145 117.989C14.2145 118.571 14.4299 119.011 14.8608 119.31C15.2964 119.603 15.848 119.75 16.5156 119.75ZM24.3192 121V110.091H25.9954V121H24.3192ZM23.1261 108.273C22.8278 108.273 22.565 108.159 22.3377 107.932C22.1057 107.7 21.9897 107.435 21.9897 107.136C21.9897 106.81 22.1057 106.54 22.3377 106.327C22.565 106.109 22.8278 106 23.1261 106C23.4528 106 23.7227 106.109 23.9357 106.327C24.1535 106.54 24.2624 106.81 24.2624 107.136C24.2624 107.435 24.1535 107.7 23.9357 107.932C23.7227 108.159 23.4528 108.273 23.1261 108.273ZM27.217 108.273C26.9187 108.273 26.6535 108.159 26.4215 107.932C26.1942 107.7 26.0806 107.435 26.0806 107.136C26.0806 106.81 26.1942 106.54 26.4215 106.327C26.6535 106.109 26.9187 106 27.217 106C27.5437 106 27.8136 106.109 28.0266 106.327C28.2444 106.54 28.3533 106.81 28.3533 107.136C28.3533 107.435 28.2444 107.7 28.0266 107.932C27.8136 108.159 27.5437 108.273 27.217 108.273ZM36.3665 114.778V116.341H30.3438V114.778H36.3665ZM30.7415 110.091V121H29.0653V110.091H30.7415ZM37.6449 110.091V121H35.9688V110.091H37.6449ZM43.9162 121.256C43.2249 121.256 42.5975 121.125 42.0341 120.865C41.4706 120.6 41.0232 120.219 40.6918 119.722C40.3603 119.22 40.1946 118.614 40.1946 117.903C40.1946 117.278 40.3177 116.772 40.5639 116.384C40.8101 115.991 41.1392 115.683 41.5511 115.46C41.9631 115.238 42.4176 115.072 42.9148 114.963C43.4167 114.849 43.9209 114.759 44.4276 114.693C45.0904 114.608 45.6278 114.544 46.0398 114.501C46.4564 114.454 46.7595 114.376 46.9489 114.267C47.143 114.158 47.2401 113.969 47.2401 113.699V113.642C47.2401 112.941 47.0483 112.397 46.6648 112.009C46.286 111.62 45.7107 111.426 44.9389 111.426C44.1387 111.426 43.5114 111.601 43.0568 111.952C42.6023 112.302 42.2827 112.676 42.098 113.074L40.5071 112.506C40.7912 111.843 41.17 111.327 41.6435 110.957C42.1217 110.583 42.6425 110.323 43.206 110.176C43.7741 110.025 44.3329 109.949 44.8821 109.949C45.2325 109.949 45.6349 109.991 46.0895 110.077C46.5488 110.157 46.9915 110.325 47.4176 110.581C47.8485 110.837 48.206 111.223 48.4901 111.739C48.7741 112.255 48.9162 112.946 48.9162 113.812V121H47.2401V119.523H47.1548C47.0412 119.759 46.8518 120.013 46.5866 120.283C46.3215 120.553 45.9688 120.782 45.5284 120.972C45.0881 121.161 44.5507 121.256 43.9162 121.256ZM44.1719 119.75C44.8348 119.75 45.3935 119.62 45.848 119.359C46.3073 119.099 46.6529 118.763 46.8849 118.351C47.1217 117.939 47.2401 117.506 47.2401 117.051V115.517C47.169 115.602 47.0128 115.68 46.7713 115.751C46.5346 115.818 46.2599 115.877 45.9474 115.929C45.6397 115.976 45.339 116.019 45.0455 116.057C44.7566 116.09 44.5223 116.118 44.3423 116.142C43.9067 116.199 43.4995 116.291 43.1207 116.419C42.7467 116.542 42.4437 116.729 42.2116 116.98C41.9844 117.226 41.8707 117.562 41.8707 117.989C41.8707 118.571 42.0862 119.011 42.517 119.31C42.9527 119.603 43.5043 119.75 44.1719 119.75Z" fill="black"/>
<g id="&#208;&#180;&#208;&#190;&#209;&#137;&#208;&#184;&#208;&#186;">
<ellipse id="Ellipse 34" cx="25.3004" cy="40.5396" rx="25.3004" ry="25.7979" fill="#A6A6A6"/>
<ellipse id="Ellipse 35" cx="83.1303" cy="40.5396" rx="25.3004" ry="25.7979" fill="#A6A6A6"/>
<ellipse id="Ellipse 36" cx="49.3958" cy="33.1688" rx="32.5291" ry="33.1688" fill="#A6A6A6"/>
<path id="Polygon 1" d="M19.1167 58.1489L34.6306 71.4546L22.387 78.549L19.1167 58.1489Z" fill="#0EFFF1"/>
<path id="Polygon 2" d="M64.8987 70.4336L80.4126 83.7393L68.169 90.8336L64.8987 70.4336Z" fill="#0EFFF1"/>
<path id="Polygon 3" d="M79.3562 53.235L94.8701 66.5407L82.6265 73.635L79.3562 53.235Z" fill="#0EFFF1"/>
</g>
</g>
</svg>
