<?xml version="1.0" encoding="utf-8"?>
<!-- Generator: Adobe Illustrator 26.5.0, SVG Export Plug-In . SVG Version: 6.00 Build 0)  -->
<svg version="1.1" id="Слой_1" xmlns="http://www.w3.org/2000/svg" xmlns:xlink="http://www.w3.org/1999/xlink" x="0px" y="0px"
	 viewBox="0 0 1080 1080" style="enable-background:new 0 0 1080 1080;" xml:space="preserve">
<style type="text/css">
	.st0{fill:none;}
	.st1{opacity:0.32;fill:#FFE500;enable-background:new    ;}
	.st2{fill:#FFE500;}
	.st3{fill:url(#SVGID_1_);}
</style>
<rect x="17.5" y="17.5" class="st0" width="1045" height="1045"/>
<g>
	<g>
		<circle class="st1" cx="661.7" cy="540" r="400.8"/>
		<circle class="st1" cx="661.7" cy="540" r="343.6"/>
		<circle class="st2" cx="661.7" cy="540" r="295.6"/>
	</g>
	<linearGradient id="SVGID_1_" gradientUnits="userSpaceOnUse" x1="385.0165" y1="544.788" x2="385.2806" y2="932.0815">
		<stop  offset="6.751359e-03" style="stop-color:#F0FBFF"/>
		<stop  offset="0.2439" style="stop-color:#ECF7FA"/>
		<stop  offset="0.5128" style="stop-color:#E1EAED"/>
		<stop  offset="0.7961" style="stop-color:#D0D4D6"/>
		<stop  offset="1" style="stop-color:#BFC0C1"/>
	</linearGradient>
	<path class="st3" d="M752.9,787.7c0,36.4-10.8,70.1-29.5,98.1c-6.7,10.3-14.6,19.6-23.5,28.2l0,0c-14.2,11.2-32.1,17.9-51.4,17.9
		c0,0-181.6-0.2-181.8,0H102.9c-30.8,0-57.9-17-72.7-42.6l0,0c-7.1-15.7-11.4-32.9-12.5-51.2v-0.2c-0.2-2.2-0.2-4.5-0.2-6.9
		c0-75.3,58.5-136.2,130.8-136.2c6.2,0,12.5,0.4,18.5,1.3c-3.9-0.9-5.8-1.3-5.8-1.3s2.2,0.4,6.7,1.5c0.2-0.9,0.4-3,0.9-5.4
		c14.4-76.4,102.6-144.8,190.4-146.1c7.7-0.2,30.8,0.2,59.2,9.3c41.7,13.6,77.7,41.1,102.6,77.2c20.7-9.9,43.7-15.5,68.2-15.5
		C679.3,615.8,752.9,692.9,752.9,787.7z"/>
</g>
</svg>
