<?xml version="1.0" encoding="utf-8"?>
<!-- Generator: Adobe Illustrator 26.5.0, SVG Export Plug-In . SVG Version: 6.00 Build 0)  -->
<svg version="1.1" id="Слой_1" xmlns="http://www.w3.org/2000/svg" xmlns:xlink="http://www.w3.org/1999/xlink" x="0px" y="0px"
	 viewBox="0 0 1080 1080" style="enable-background:new 0 0 1080 1080;" xml:space="preserve">
<style type="text/css">
	.st0{fill:none;}
	.st1{fill:url(#SVGID_1_);}
	.st2{fill:url(#SVGID_00000072252185202369647550000015215523865044757423_);}
	.st3{fill:url(#SVGID_00000009574829175655376930000006359299572245722270_);}
	.st4{fill:url(#SVGID_00000075133226493782305930000006439336065677140659_);}
</style>
<rect x="17.5" y="17.5" class="st0" width="1045" height="1045"/>
<g>
	
		<linearGradient id="SVGID_1_" gradientUnits="userSpaceOnUse" x1="539.8129" y1="773.9996" x2="540.0841" y2="1171.9725" gradientTransform="matrix(1 0 0 1 0 -540)">
		<stop  offset="6.751359e-03" style="stop-color:#F0FBFF"/>
		<stop  offset="0.2439" style="stop-color:#ECF7FA"/>
		<stop  offset="0.5128" style="stop-color:#E1EAED"/>
		<stop  offset="0.7961" style="stop-color:#D0D4D6"/>
		<stop  offset="1" style="stop-color:#BFC0C1"/>
	</linearGradient>
	<path class="st1" d="M1062.9,477.4c0,51.9-15.6,100-41.9,139.6c-9.7,14.5-20.7,28-33.2,40l0,0c-20.3,16-45.6,25.5-73,25.5
		c0,0-258.2-0.4-258.6,0H138.5c-43.8,0-82.1-24.3-103.5-60.6l0,0c-10.2-22.2-16.2-46.9-17.6-72.8v-0.2c-0.2-3.3-0.2-6.4-0.2-9.7
		c0-107,83.4-193.7,186-193.7c8.9,0,17.6,0.6,26.1,1.9c-5.6-1.2-8.3-1.9-8.3-1.9s3.1,0.6,9.3,2.1c0.2-1.5,0.6-4.1,1.2-7.7
		c20.5-108.7,146-206,270.9-207.8c10.8-0.2,43.8,0.2,84.2,13.3C646,164.6,697.2,203.6,732.9,255c29.5-14.1,62.2-22,96.9-22
		C958.5,233,1062.9,342.6,1062.9,477.4z"/>
	<g>
		<g>
			
				<linearGradient id="SVGID_00000069393950263366728850000011808916513055813781_" gradientUnits="userSpaceOnUse" x1="851.5065" y1="1191.8077" x2="977.4828" y2="1191.8077" gradientTransform="matrix(1 0 0 1 0 -540)">
				<stop  offset="0" style="stop-color:#ACFFFA"/>
				<stop  offset="1" style="stop-color:#3B8981"/>
			</linearGradient>
			<path style="fill:url(#SVGID_00000069393950263366728850000011808916513055813781_);" d="M968.9,666.7
				c15.3,26.5,9.5,59.3-13.1,72.4c-22.6,13.1-53.9,1.7-69.3-24.9c-0.2-0.4-0.4-0.8-0.6-1.2c-0.2-0.4-0.4-0.6-0.6-1l-7.1-32.4
				l-26.5-120.5l90,82.3l26.3,24.1l0,0C968.5,665.9,968.7,666.3,968.9,666.7z"/>
		</g>
	</g>
	<g>
		<g>
			
				<linearGradient id="SVGID_00000024723843761466080200000007347310571160725666_" gradientUnits="userSpaceOnUse" x1="473.6308" y1="1345.0791" x2="599.6071" y2="1345.0791" gradientTransform="matrix(1 0 0 1 0 -540)">
				<stop  offset="0" style="stop-color:#ACFFFA"/>
				<stop  offset="1" style="stop-color:#3B8981"/>
			</linearGradient>
			<path style="fill:url(#SVGID_00000024723843761466080200000007347310571160725666_);" d="M590.8,820
				c15.3,26.5,9.5,59.3-13.1,72.4c-22.6,13.1-53.9,1.7-69.3-24.9c-0.2-0.4-0.4-0.8-0.6-1.2c-0.2-0.4-0.4-0.6-0.6-1l-7.1-32.4
				l-26.5-120.5l90.2,82.3l26.3,24.1l0,0C590.4,819.2,590.6,819.6,590.8,820z"/>
		</g>
	</g>
	<g>
		<g>
			
				<linearGradient id="SVGID_00000085964546691477404970000009560757579129156513_" gradientUnits="userSpaceOnUse" x1="123.4521" y1="1255.0659" x2="249.4282" y2="1255.0659" gradientTransform="matrix(1 0 0 1 0 -540)">
				<stop  offset="0" style="stop-color:#ACFFFA"/>
				<stop  offset="1" style="stop-color:#3B8981"/>
			</linearGradient>
			<path style="fill:url(#SVGID_00000085964546691477404970000009560757579129156513_);" d="M240.9,730
				c15.3,26.5,9.5,59.3-13.1,72.4c-22.6,13.1-53.9,1.7-69.3-24.9c-0.2-0.4-0.4-0.8-0.6-1.2c-0.2-0.4-0.4-0.6-0.6-1l-7.1-32.4
				l-26.5-120.5l90.2,82.3l26.3,24.1l0,0C240.3,729.2,240.5,729.6,240.9,730z"/>
		</g>
	</g>
</g>
</svg>
