<?xml version="1.0" encoding="utf-8"?>
<!-- Generator: Adobe Illustrator 26.5.0, SVG Export Plug-In . SVG Version: 6.00 Build 0)  -->
<svg version="1.1" id="Слой_1" xmlns="http://www.w3.org/2000/svg" xmlns:xlink="http://www.w3.org/1999/xlink" x="0px" y="0px"
	 viewBox="0 0 1080 1080" style="enable-background:new 0 0 1080 1080;" xml:space="preserve">
<style type="text/css">
	.st0{fill:none;}
	.st1{fill:url(#SVGID_1_);}
	.st2{fill:url(#SVGID_00000115474210672551559730000002135463837377004955_);}
	.st3{fill:url(#SVGID_00000083051469330253393150000006085765243128436892_);}
	.st4{fill:url(#SVGID_00000122680438483057507780000006600582545691438254_);}
	.st5{fill:url(#SVGID_00000086658176736553710550000009517403633512904866_);}
	.st6{fill:url(#SVGID_00000126298892172875650290000005102610212411686037_);}
	.st7{fill:url(#SVGID_00000109004309841575356260000016730461726014358936_);}
</style>
<rect x="17.5" y="17.5" class="st0" width="1045" height="1045"/>
<g>
	<g>
		<g>
			
				<linearGradient id="SVGID_1_" gradientUnits="userSpaceOnUse" x1="381.0807" y1="1413.4939" x2="507.0716" y2="1413.4939" gradientTransform="matrix(1 0 0 1 0 -540)">
				<stop  offset="0" style="stop-color:#ACFFFA"/>
				<stop  offset="1" style="stop-color:#3B8981"/>
			</linearGradient>
			<path class="st1" d="M498.5,888.3c15.4,26.6,9.5,59.5-13.2,72.5c-22.7,13.2-54,1.6-69.3-24.8c-0.2-0.4-0.4-0.8-0.8-1.2
				c-0.2-0.4-0.4-0.8-0.6-1.2l-7.1-32.5l-26.4-120.4l90.2,82.3l26.2,24l0,0C497.9,887.3,498.3,887.7,498.5,888.3z"/>
		</g>
	</g>
	
		<linearGradient id="SVGID_00000018934892324049117430000011196977149602408374_" gradientUnits="userSpaceOnUse" x1="539.813" y1="705.7388" x2="540.0841" y2="1103.6447" gradientTransform="matrix(1 0 0 1 0 -540)">
		<stop  offset="6.751359e-03" style="stop-color:#F0FBFF"/>
		<stop  offset="0.2439" style="stop-color:#ECF7FA"/>
		<stop  offset="0.5128" style="stop-color:#E1EAED"/>
		<stop  offset="0.7961" style="stop-color:#D0D4D6"/>
		<stop  offset="1" style="stop-color:#BFC0C1"/>
	</linearGradient>
	<path style="fill:url(#SVGID_00000018934892324049117430000011196977149602408374_);" d="M1062.7,409c0,51.8-15.4,99.9-41.8,139.5
		c-9.7,14.6-20.7,28-33.3,40l0,0c-20.3,15.8-45.7,25.4-72.9,25.4c0,0-258.1-0.4-258.5,0H138.6c-43.9,0-82.3-24.2-103.6-60.5l0,0
		c-10.2-22.1-16.2-46.9-17.5-72.7v-0.2c-0.2-3.2-0.2-6.5-0.2-9.7c0-107,83.3-193.7,186-193.7c8.9,0,17.5,0.6,26.2,2
		c-5.5-1.2-8.3-2-8.3-2s3,0.6,9.3,2c0.2-1.4,0.6-4.3,1.2-7.7c20.5-108.7,146-205.9,270.7-207.8c10.8-0.2,43.9,0.2,84.1,13.2
		c59.5,19.3,110.5,58.3,146,109.9c29.4-14.2,62.3-21.9,96.9-21.9C958.3,164.7,1062.7,274.2,1062.7,409z"/>
	<g>
		<g>
			
				<linearGradient id="SVGID_00000114768641973925445570000008146897816084748222_" gradientUnits="userSpaceOnUse" x1="884.3394" y1="1101.3357" x2="964.2002" y2="1211.1002" gradientTransform="matrix(1 0 0 1 0 -540)">
				<stop  offset="0" style="stop-color:#ACFFFA"/>
				<stop  offset="1" style="stop-color:#3B8981"/>
			</linearGradient>
			<path style="fill:url(#SVGID_00000114768641973925445570000008146897816084748222_);" d="M973.7,603.4
				c15.4,26.6,9.5,59.5-13.2,72.5c-22.7,13.2-54,1.6-69.3-24.8c-0.2-0.4-0.4-0.8-0.8-1.2c-0.2-0.4-0.4-0.8-0.6-1.2l-7.1-32.3
				l-26.4-120.4l90.2,82.3l26.2,24l0,0C973.3,602.6,973.5,603,973.7,603.4z"/>
		</g>
	</g>
	<g>
		<g>
			
				<linearGradient id="SVGID_00000129166282131546715850000015327282346597074596_" gradientUnits="userSpaceOnUse" x1="783.4055" y1="1349.8247" x2="909.3963" y2="1349.8247" gradientTransform="matrix(1 0 0 1 0 -540)">
				<stop  offset="0" style="stop-color:#ACFFFA"/>
				<stop  offset="1" style="stop-color:#3B8981"/>
			</linearGradient>
			<path style="fill:url(#SVGID_00000129166282131546715850000015327282346597074596_);" d="M900.8,824.6
				c15.4,26.6,9.5,59.5-13.2,72.5c-22.7,13.2-54,1.6-69.3-24.8c-0.2-0.4-0.4-0.8-0.8-1.2c-0.2-0.4-0.4-0.8-0.6-1.2l-7.1-32.3
				l-26.4-120.4l90.2,82.3l26.2,24l0,0C900.2,823.7,900.6,824.1,900.8,824.6z"/>
		</g>
	</g>
	<g>
		<g>
			
				<linearGradient id="SVGID_00000055701401996810033110000005890732123695476891_" gradientUnits="userSpaceOnUse" x1="147.5253" y1="1219.0336" x2="273.5161" y2="1219.0336" gradientTransform="matrix(1 0 0 1 0 -540)">
				<stop  offset="0" style="stop-color:#ACFFFA"/>
				<stop  offset="1" style="stop-color:#3B8981"/>
			</linearGradient>
			<path style="fill:url(#SVGID_00000055701401996810033110000005890732123695476891_);" d="M264.9,693.8
				c15.4,26.6,9.5,59.5-13.2,72.5c-22.7,13.2-54,1.6-69.3-24.8c-0.2-0.4-0.4-0.8-0.8-1.2c-0.2-0.4-0.4-0.8-0.6-1.2l-7.1-32.3
				l-26.4-120.4l90.2,82.3l26.2,24l0,0C264.3,692.9,264.7,693.4,264.9,693.8z"/>
		</g>
	</g>
	<g>
		<g>
			
				<linearGradient id="SVGID_00000177483888195945757200000008181001984150106002_" gradientUnits="userSpaceOnUse" x1="597.9827" y1="1087.2271" x2="723.9734" y2="1087.2271" gradientTransform="matrix(1 0 0 1 0 -540)">
				<stop  offset="0" style="stop-color:#ACFFFA"/>
				<stop  offset="1" style="stop-color:#3B8981"/>
			</linearGradient>
			<path style="fill:url(#SVGID_00000177483888195945757200000008181001984150106002_);" d="M715.4,562
				c15.4,26.6,9.5,59.5-13.2,72.5c-22.7,13.2-54,1.6-69.3-24.8c-0.2-0.4-0.4-0.8-0.8-1.2c-0.2-0.4-0.4-0.8-0.6-1.2l-7.1-32.3
				L598,454.5l90.2,82.3l26.2,24l0,0C714.8,560.9,715.2,561.3,715.4,562z"/>
		</g>
	</g>
	<g>
		<g>
			
				<linearGradient id="SVGID_00000114789979273265383460000013853431755619942799_" gradientUnits="userSpaceOnUse" x1="174.2844" y1="946.784" x2="765.5822" y2="1409.4407" gradientTransform="matrix(1 0 0 1 0 -540)">
				<stop  offset="0" style="stop-color:#FFFFFF"/>
				<stop  offset="1" style="stop-color:#ACFFFA"/>
			</linearGradient>
			<polygon style="fill:url(#SVGID_00000114789979273265383460000013853431755619942799_);" points="688.4,968.1 463.9,668.2 
				417.4,694.8 251.5,308.1 475.9,608.3 522.4,581.2 			"/>
		</g>
	</g>
</g>
</svg>
