<?xml version="1.0" encoding="utf-8"?>
<!-- Generator: Adobe Illustrator 26.5.0, SVG Export Plug-In . SVG Version: 6.00 Build 0)  -->
<svg version="1.1" xmlns="http://www.w3.org/2000/svg" xmlns:xlink="http://www.w3.org/1999/xlink" x="0px" y="0px"
	 viewBox="0 0 1080 1080" style="enable-background:new 0 0 1080 1080;" xml:space="preserve">
<style type="text/css">
	.st0{display:none;fill:#FF7BAC;}
	.st1{fill:#E2E2E3;}
	.st2{fill:none;}
	.st3{opacity:0.32;fill:#FFE500;enable-background:new    ;}
	.st4{fill:#FFE500;}
	.st5{fill:url(#SVGID_1_);}
</style>
<g id="Слой_2">
</g>
<g id="Слой_1">
	<path class="st0" d="M697,495c0.1,3.2-0.3,6.5-1.1,10c-0.2,0.8-0.4,1.6-0.6,2.4c-1.6,5.3-4.2,10.8-7.8,16.9
		c-0.2,0.4-0.5,0.8-0.7,1.2c-0.1,0.2-0.3,0.4-0.4,0.7c-0.7,1.1-1.4,2.2-2.2,3.4c-0.3,0.5-0.7,1-1,1.5c-0.5,0.7-1,1.5-1.5,2.2
		c-3.1,4.3-6.6,8.9-10.5,13.8c-0.8,1-1.7,2-2.5,3.1h0c-1.1,1.4-2.3,2.8-3.6,4.2c-3.2,3.8-6.6,7.7-10.3,11.9l0,0
		c-0.7,0.8-1.5,1.7-2.2,2.5c-1.9,2.1-3.8,4.3-5.8,6.5c-0.4,0.4-0.8,0.8-1.2,1.3c-0.4,0.5-0.9,0.9-1.3,1.4c-0.7,0.7-1.3,1.4-2,2.2
		c-1.7,1.9-3.5,3.8-5.3,5.8c-0.8,0.9-1.7,1.8-2.5,2.8c-0.6,0.6-1.1,1.2-1.7,1.8c-0.3,0.3-0.6,0.7-1,1c-0.3,0.3-0.5,0.6-0.8,0.8
		c-0.6-0.8-0.9-1.8-1.2-2.8c-1.1-0.9-2.4-1.4-3.6-1.6c-0.7,1.8-0.8,2.8-0.2,3.7c0.3,0.5,0.8,0.9,1.6,1.4c0.2,0.2,0.4,0.5,0.4,0.8
		c0.1,0.6,0.3,0.9,0.6,1.2c-0.4,0.4-0.8,0.8-1.2,1.2c-0.5,0.5-1,1.1-1.5,1.6c-0.2,0.2-0.4,0.4-0.6,0.6c-0.7,0.8-1.5,1.6-2.2,2.4
		c-2,2.2-4.1,4.4-6.2,6.6c-0.1,0.1-0.2,0.2-0.3,0.4h0c-0.1,0.1-0.1,0.2-0.2,0.2c0,0,0,0-0.1,0.1v0c-1,1.1-2,2.2-3.1,3.3
		c-0.2,0.2-0.5,0.5-0.7,0.7c-0.5,0.5-1,1-1.5,1.6c-0.1,0.1-0.2,0.2-0.2,0.3c-1.5,1.6-3,3.2-4.7,5c-3.3,3.5-6.8,7.3-10.7,11.4
		c-0.3,0.4-0.7,0.7-1,1.1c-1.4,1.5-2.9,3.1-4.4,4.7c-1.4,1.5-2.8,3-4.2,4.5c-0.3,0.3-0.6,0.7-0.9,1c-0.8,0.8-1.6,1.7-2.4,2.5
		c-3.1,3.2-6.2,6.6-9.6,10.2c-1-0.7-1.8-1.4-2.6-2.4c-0.1-1.8-1.8-3.2-1.5-5.2c0.2-1,0.2-2.1,1.4-2.5c1.1-0.5,1.6,0.3,2.2,1.1
		c1.2,1.5,2,0.5,2.4-0.7c0.5-1.6,0.6-3.4,0-5.1c-0.8,1-0.9,3.3-3,1.5c-1.2,1.7-3.1,2.7-4.3,4.5c-0.9,1.5-2.8,0.3-4.2,0.3
		c-0.6,0.7-1,1.4-1.4,2.2c1.1,1.2,2.5,2.2,3.6,3.4c0.1,0.1,0.2,0.3,0.4,0.4c0.1,0.1,0.2,0.2,0.3,0.4c0.1,0.1,0.1,0.2,0.2,0.3
		c0.1,0.1,0.1,0.2,0.2,0.3c0.1,0.1,0.1,0.3,0.2,0.4c0.2,0.5,1.5,1.1,0.6,1.6c-1.3,0.6-0.7,3-2.6,2.6c-1.1-0.2-0.5-1.5-0.9-1.9
		c-0.6-0.8-1.1-1.7-1.7-2.5c-0.1-0.1-0.1-0.2-0.2-0.3c0,0,0,0,0-0.1h0c-0.3-0.1-0.6-0.4-0.9-0.6c-0.7,0.8-1.3,1.6-1.6,2.6
		c-0.9,3.4-3.5,5.6-5.8,7.9c-1.3,1.3-3.1,2.4-5.2,1.1c-2.5-1.5-4.4-0.3-6.4,1.1c-1.4,1-2.8,1.9-4.1,2.9c0.1,1,0,1.9-0.2,2.8
		c0.4,0.7,0.8,1.4,1.1,2.1c0.1,0.2,0.2,0.3,0.3,0.5c0.5,0.9,1,1.7,1.8,2.4c0.1,0.1,0.2,0.2,0.2,0.2c0.1,0.1,0.2,0.2,0.4,0.3
		c0.4,0.3,0.7,0.4,1.1,0.2c2.5-1.3,5-1,7.7-0.7c0.2,0,0.3,0,0.5,0.1c0.1,0,0.1,0,0.2,0c0.1,0,0.2,0,0.3,0c0.1,0,0.2,0,0.3,0.1
		c0.1,0,0.3,0.1,0.4,0.1c0,0,0,0,0,0c0.1,0,0.1,0.1,0.2,0.1c0.1,0,0.1,0.1,0.2,0.1c-5.5,5.8-11.2,11.9-17.2,18.2
		c-1.6,1.7-3.2,3.3-4.8,5.1c-1.8,1.9-3.7,3.9-5.5,5.9c-0.7,0.8-1.5,1.5-2.2,2.3c-1.8-1.7-3.7-3.4-5.7-5.2l0,0
		c-1.5-1.4-3-2.8-4.6-4.2h0c-0.9-0.8-1.7-1.6-2.6-2.4c-1.8-1.7-3.6-3.4-5.5-5.1h0c-1.6-1.5-3.3-3.1-5-4.7c-0.4-0.4-0.8-0.8-1.2-1.2
		c-4.7-4.4-9.6-9.1-14.7-14c-0.7-0.7-1.4-1.4-2.1-2.1c-1.8-1.7-3.6-3.5-5.4-5.3c-0.8-0.8-1.7-1.6-2.5-2.5c-3.5-3.4-7-6.9-10.6-10.5
		c-1.3-1.3-2.6-2.6-3.9-3.9c-0.7-0.7-1.4-1.4-2-2.1c-1.7-1.7-3.4-3.4-5.1-5.1c-1.3-1.3-2.5-2.6-3.8-3.9c-2.7-2.7-5.4-5.5-8.1-8.3
		c-0.9-1-1.8-1.9-2.7-2.9c-0.9-1-1.9-1.9-2.8-2.9c-0.5-0.5-1-1-1.4-1.5c-0.6-0.6-1.2-1.2-1.8-1.8c-1-1-1.9-2-2.8-3c0,0,0,0,0,0
		c-0.3-0.3-0.6-0.7-1-1l0,0c-0.3-0.4-0.7-0.8-1.1-1.2c-1.4-1.5-2.8-3-4.2-4.5c-1.1-1.2-2.2-2.4-3.3-3.6c-0.6-0.6-1.2-1.3-1.8-1.9
		c-0.3-0.3-0.6-0.6-0.9-0.9c-1.1-1.2-2.1-2.3-3.2-3.5c-3.3-3.7-6.5-7.2-9.6-10.6c-0.5-0.6-1-1.1-1.5-1.7c-0.6-0.7-1.2-1.4-1.8-2.1
		c-0.9-1-1.8-2-2.6-3c-0.3-0.4-0.7-0.8-1-1.1c-7.3-8.4-13.5-15.9-18.9-22.7c0,0,0,0,0,0c-2.9-3.6-5.4-7-7.8-10.2
		c-0.4-0.6-0.8-1.2-1.2-1.7c-0.5-0.7-1-1.4-1.5-2c-0.5-0.7-1-1.4-1.5-2.1v0c-0.4-0.6-0.9-1.2-1.3-1.8c-3.8-5.5-6.8-10.3-9.3-14.6
		c2.4-0.6,4.9-1.4,7.5-0.7c0.3,0.1,0.7-0.4,1-0.6c-1.1-0.6-2.3-1.4-3.3-2.2c-1.6-1.2-2.7-1-4.1,0.5c0.1-1.3,1.5-1.9,0.6-3
		c1.4-0.5,3.2,0.5,4.3-0.8c1.1-1.3,2.5-1.8,4-2.5c1.6-0.7,1.6-3.1,2.6-4.5c0.6-0.9-0.9-1.1-1.4-1.7c-2.4,1-0.1-1.7-1.4-1.9
		c-0.3,0,0-1.1,0.6-1.4c0.1,0,0.2,0,0.2,0.1c0.4,2.2,2.7,0.8,3.6,2c0.3,0,0.6,0,0.9,0c-0.3-1.3-1.4-2.4-1.1-4c0.1-0.8,0.1-2.2-1.5-2
		c-1.5,0.2-1.4-1.1-1.7-2c0.9-0.7,2.9,0.7,2.7-1.3c-0.1-1.1-1.2-1.9-2.8-1.2c-0.8,0.3-1.9-0.2-2.9-0.3c-3,1-3.5,4.2-5.1,6.3
		c0.4,0.7,0.8,1.5,1.2,2.2c-0.7,0.7-1.6,1.3-0.9,2.6c0.9,1.5,0.3,2.7-0.7,3.9c-1.2,1.4-2.5,0.1-3.7-0.1c-0.4,0-0.7-0.4-1.1-0.6
		c-0.6-0.3-1.2-0.6-1.5,0.2c-0.2,0.6,0.3,0.9,0.8,1c1,0.2,1.9,0.5,1.6,1.7c-0.3,1-1.2,0.6-2,0.7c-0.4,0-0.8,0.1-1.2,0.2
		c-3.2-7.2-4.1-12.4-4.2-16.5v-0.4c0-0.4,0-0.8,0-1.2c0-0.9,0-1.7,0.1-2.4c0.1-2.2,0.3-4.5,0.7-6.7c1.8-12.5,6.8-24.4,13.8-35.2
		c0.5-0.9,1.1-1.7,1.7-2.5c0.3-0.5,0.6-0.9,1-1.4c3.3-4.7,6.9-9.1,10.8-13.2c1.2-1.3,2.5-2.6,3.8-3.9c10.9-10.7,23.3-19.4,35.2-25.1
		c0.7-0.3,1.4-0.7,2.1-1c1.2-0.5,2.3-1,3.4-1.5c2.4-1,4.8-1.9,7.1-2.6c0.5-0.2,0.9-0.3,1.4-0.4c5.4-1.6,10.4-2.4,15-2.4
		c2.9,0,5.7,0.1,8.6,0.4c3.1,0.3,6.2,0.7,9.2,1.3c1,0.2,1.9,0.4,2.8,0.6c3,0.7,6,1.5,9,2.4c0.5,0.2,1,0.3,1.5,0.5c0,0,0.1,0,0.1,0
		c1.7,0.6,3.5,1.2,5.2,2c0.9,0.4,1.9,0.8,2.8,1.2c1.3,0.6,2.6,1.2,3.9,1.9c2,1,4,2.1,6,3.3c3.2,1.9,6.2,4,9.1,6.2
		c2.4,1.9,4.8,3.9,7.1,6c2.1,2,4.2,4.1,6.2,6.3c2.3,2.6,4.5,5.3,6.6,8.2c0.4,0.5,0.7,1,1.1,1.6c0.1,0.2,0.2,0.3,0.3,0.5
		c0.2-0.3,0.4-0.5,0.6-0.8c0.2-0.3,0.4-0.6,0.6-0.8c0.6-0.8,1.2-1.6,1.8-2.5c3.2-4.2,6.8-8.2,10.6-11.9c2.2-2.1,4.4-4,6.8-5.8
		c0.6-0.5,1.3-1,2-1.5c1-0.8,2.1-1.5,3.2-2.3c1.4-1,2.9-1.9,4.3-2.8c2.8-1.7,5.6-3.2,8.5-4.6c2.7-1.3,5.4-2.4,8.1-3.4
		c5-1.8,10.2-3.2,15.6-4.2c0.9-0.2,1.9-0.3,2.8-0.5c0.1,0,0.1,0,0.2,0c4.7-0.7,9.5-1.1,14.4-1.1c4.1,0,8.5,0.7,13.3,1.9
		c2,0.5,4.2,1.2,6.3,2c0.4,0.1,0.8,0.3,1.3,0.4c1.2,0.5,2.4,0.9,3.6,1.5h0c1.9,0.8,3.9,1.7,5.8,2.7c2.3,1.1,4.6,2.4,6.9,3.7
		c0.9,0.5,1.8,1.1,2.8,1.6l0,0c1.3,0.8,2.5,1.6,3.8,2.4c0.7,0.4,1.3,0.9,2,1.3c5.7,3.9,11.3,8.4,16.6,13.3c1.9,1.8,3.7,3.6,5.5,5.4
		c0.2,0.2,0.3,0.4,0.5,0.6c1,1,1.9,2.1,2.8,3.1c0,0,0,0,0,0c1.7,1.9,3.4,3.9,5,6c0.8,1,1.5,2,2.3,3c0.4,0.6,0.8,1.2,1.2,1.8
		c4.3,6.1,7.9,12.5,10.6,19.3c0.5,1.3,1,2.6,1.5,3.9c1.9,5.5,3.3,11.2,3.9,17c0.1,0.5,0.1,1,0.1,1.5c0.1,0.7,0.1,1.4,0.1,2v0
		C697,493.9,697,494.5,697,495z"/>
	<path class="st1" d="M240.5,296.4c0.1-0.3,0.2-0.7,0.4-0.8c0.2-0.1,0.7,0.1,0.8,0.3c0.1,0.2-0.1,0.7-0.3,0.8
		C241.1,296.8,240.7,296.5,240.5,296.4z"/>
	<rect x="11.5" y="11.5" class="st2" width="1057" height="1057"/>
	<g>
		<g>
			<circle class="st3" cx="663.1" cy="540" r="405.4"/>
			<circle class="st3" cx="663.1" cy="540" r="347.5"/>
			<circle class="st4" cx="663.1" cy="540" r="299"/>
		</g>
		<linearGradient id="SVGID_1_" gradientUnits="userSpaceOnUse" x1="383.2368" y1="544.843" x2="383.504" y2="936.5839">
			<stop  offset="6.751359e-03" style="stop-color:#BABABA"/>
			<stop  offset="0.2098" style="stop-color:#B5B5B5"/>
			<stop  offset="0.4402" style="stop-color:#A8A8A8"/>
			<stop  offset="0.6838" style="stop-color:#919191"/>
			<stop  offset="0.9352" style="stop-color:#717171"/>
			<stop  offset="1" style="stop-color:#686868"/>
		</linearGradient>
		<path class="st5" d="M755.3,790.6c0,36.8-10.9,70.9-29.8,99.2c-6.7,10.4-14.8,19.8-23.7,28.5l0,0c-14.4,11.3-32.4,18.1-52,18.1
			c0,0-183.7-0.2-183.9,0h-368c-31.1,0-58.5-17.2-73.6-43.1l0,0c-7.2-15.9-11.5-33.3-12.6-51.8v-0.2c-0.2-2.2-0.2-4.6-0.2-7
			c0-76.2,59.2-137.8,132.3-137.8c6.3,0,12.6,0.4,18.7,1.3c-3.9-0.9-5.9-1.3-5.9-1.3s2.2,0.4,6.7,1.5c0.2-0.9,0.4-3,0.9-5.4
			c14.6-77.3,103.8-146.5,192.6-147.8c7.8-0.2,31.1,0.2,59.8,9.4c42.2,13.7,78.6,41.6,103.8,78.1c20.9-10,44.2-15.7,69-15.7
			C680.9,616.7,755.3,694.6,755.3,790.6z"/>
	</g>
</g>
</svg>
