<?xml version="1.0" encoding="utf-8"?>
<!-- Generator: Adobe Illustrator 26.5.0, SVG Export Plug-In . SVG Version: 6.00 Build 0)  -->
<svg version="1.1" xmlns="http://www.w3.org/2000/svg" xmlns:xlink="http://www.w3.org/1999/xlink" x="0px" y="0px"
	 viewBox="0 0 1080 1080" style="enable-background:new 0 0 1080 1080;" xml:space="preserve">
<style type="text/css">
	.st0{display:none;fill:#FF7BAC;}
	.st1{fill:#E2E2E3;}
	.st2{fill:none;}
	.st3{fill:url(#SVGID_1_);}
	.st4{fill:url(#SVGID_00000027574065764730829960000003036635324477111721_);}
	.st5{fill:url(#SVGID_00000155834449848322471570000002849174330631528593_);}
	.st6{fill:url(#SVGID_00000132060864118331317200000004171021139650921886_);}
	.st7{fill:url(#SVGID_00000151515427508333457440000006421039403936937656_);}
	.st8{fill:url(#SVGID_00000029047906359773121390000002919861049384978862_);}
	.st9{fill:url(#SVGID_00000034077326794630603960000011046412468462519427_);}
</style>
<g id="Слой_1">
	<path class="st0" d="M697,495c0.1,3.2-0.3,6.5-1.1,10c-0.2,0.8-0.4,1.6-0.6,2.4c-1.6,5.3-4.2,10.8-7.8,16.9
		c-0.2,0.4-0.5,0.8-0.7,1.2c-0.1,0.2-0.3,0.4-0.4,0.7c-0.7,1.1-1.4,2.2-2.2,3.4c-0.3,0.5-0.7,1-1,1.5c-0.5,0.7-1,1.5-1.5,2.2
		c-3.1,4.3-6.6,8.9-10.5,13.8c-0.8,1-1.7,2-2.5,3.1h0c-1.1,1.4-2.3,2.8-3.6,4.2c-3.2,3.8-6.6,7.7-10.3,11.9l0,0
		c-0.7,0.8-1.5,1.7-2.2,2.5c-1.9,2.1-3.8,4.3-5.8,6.5c-0.4,0.4-0.8,0.8-1.2,1.3c-0.4,0.5-0.9,0.9-1.3,1.4c-0.7,0.7-1.3,1.4-2,2.2
		c-1.7,1.9-3.5,3.8-5.3,5.8c-0.8,0.9-1.7,1.8-2.5,2.8c-0.6,0.6-1.1,1.2-1.7,1.8c-0.3,0.3-0.6,0.7-1,1c-0.3,0.3-0.5,0.6-0.8,0.8
		c-0.6-0.8-0.9-1.8-1.2-2.8c-1.1-0.9-2.4-1.4-3.6-1.6c-0.7,1.8-0.8,2.8-0.2,3.7c0.3,0.5,0.8,0.9,1.6,1.4c0.2,0.2,0.4,0.5,0.4,0.8
		c0.1,0.6,0.3,0.9,0.6,1.2c-0.4,0.4-0.8,0.8-1.2,1.2c-0.5,0.5-1,1.1-1.5,1.6c-0.2,0.2-0.4,0.4-0.6,0.6c-0.7,0.8-1.5,1.6-2.2,2.4
		c-2,2.2-4.1,4.4-6.2,6.6c-0.1,0.1-0.2,0.2-0.3,0.4h0c-0.1,0.1-0.1,0.2-0.2,0.2c0,0,0,0-0.1,0.1v0c-1,1.1-2,2.2-3.1,3.3
		c-0.2,0.2-0.5,0.5-0.7,0.7c-0.5,0.5-1,1-1.5,1.6c-0.1,0.1-0.2,0.2-0.2,0.3c-1.5,1.6-3,3.2-4.7,5c-3.3,3.5-6.8,7.3-10.7,11.4
		c-0.3,0.4-0.7,0.7-1,1.1c-1.4,1.5-2.9,3.1-4.4,4.7c-1.4,1.5-2.8,3-4.2,4.5c-0.3,0.3-0.6,0.7-0.9,1c-0.8,0.8-1.6,1.7-2.4,2.5
		c-3.1,3.2-6.2,6.6-9.6,10.2c-1-0.7-1.8-1.4-2.6-2.4c-0.1-1.8-1.8-3.2-1.5-5.2c0.2-1,0.2-2.1,1.4-2.5c1.1-0.5,1.6,0.3,2.2,1.1
		c1.2,1.5,2,0.5,2.4-0.7c0.5-1.6,0.6-3.4,0-5.1c-0.8,1-0.9,3.3-3,1.5c-1.2,1.7-3.1,2.7-4.3,4.5c-0.9,1.5-2.8,0.3-4.2,0.3
		c-0.6,0.7-1,1.4-1.4,2.2c1.1,1.2,2.5,2.2,3.6,3.4c0.1,0.1,0.2,0.3,0.4,0.4c0.1,0.1,0.2,0.2,0.3,0.4c0.1,0.1,0.1,0.2,0.2,0.3
		c0.1,0.1,0.1,0.2,0.2,0.3c0.1,0.1,0.1,0.3,0.2,0.4c0.2,0.5,1.5,1.1,0.6,1.6c-1.3,0.6-0.7,3-2.6,2.6c-1.1-0.2-0.5-1.5-0.9-1.9
		c-0.6-0.8-1.1-1.7-1.7-2.5c-0.1-0.1-0.1-0.2-0.2-0.3c0,0,0,0,0-0.1h0c-0.3-0.1-0.6-0.4-0.9-0.6c-0.7,0.8-1.3,1.6-1.6,2.6
		c-0.9,3.4-3.5,5.6-5.8,7.9c-1.3,1.3-3.1,2.4-5.2,1.1c-2.5-1.5-4.4-0.3-6.4,1.1c-1.4,1-2.8,1.9-4.1,2.9c0.1,1,0,1.9-0.2,2.8
		c0.4,0.7,0.8,1.4,1.1,2.1c0.1,0.2,0.2,0.3,0.3,0.5c0.5,0.9,1,1.7,1.8,2.4c0.1,0.1,0.2,0.2,0.2,0.2c0.1,0.1,0.2,0.2,0.4,0.3
		c0.4,0.3,0.7,0.4,1.1,0.2c2.5-1.3,5-1,7.7-0.7c0.2,0,0.3,0,0.5,0.1c0.1,0,0.1,0,0.2,0c0.1,0,0.2,0,0.3,0c0.1,0,0.2,0,0.3,0.1
		c0.1,0,0.3,0.1,0.4,0.1c0,0,0,0,0,0c0.1,0,0.1,0.1,0.2,0.1c0.1,0,0.1,0.1,0.2,0.1c-5.5,5.8-11.2,11.9-17.2,18.2
		c-1.6,1.7-3.2,3.3-4.8,5.1c-1.8,1.9-3.7,3.9-5.5,5.9c-0.7,0.8-1.5,1.5-2.2,2.3c-1.8-1.7-3.7-3.4-5.7-5.2l0,0
		c-1.5-1.4-3-2.8-4.6-4.2h0c-0.9-0.8-1.7-1.6-2.6-2.4c-1.8-1.7-3.6-3.4-5.5-5.1h0c-1.6-1.5-3.3-3.1-5-4.7c-0.4-0.4-0.8-0.8-1.2-1.2
		c-4.7-4.4-9.6-9.1-14.7-14c-0.7-0.7-1.4-1.4-2.1-2.1c-1.8-1.7-3.6-3.5-5.4-5.3c-0.8-0.8-1.7-1.6-2.5-2.5c-3.5-3.4-7-6.9-10.6-10.5
		c-1.3-1.3-2.6-2.6-3.9-3.9c-0.7-0.7-1.4-1.4-2-2.1c-1.7-1.7-3.4-3.4-5.1-5.1c-1.3-1.3-2.5-2.6-3.8-3.9c-2.7-2.7-5.4-5.5-8.1-8.3
		c-0.9-1-1.8-1.9-2.7-2.9c-0.9-1-1.9-1.9-2.8-2.9c-0.5-0.5-1-1-1.4-1.5c-0.6-0.6-1.2-1.2-1.8-1.8c-1-1-1.9-2-2.8-3c0,0,0,0,0,0
		c-0.3-0.3-0.6-0.7-1-1l0,0c-0.3-0.4-0.7-0.8-1.1-1.2c-1.4-1.5-2.8-3-4.2-4.5c-1.1-1.2-2.2-2.4-3.3-3.6c-0.6-0.6-1.2-1.3-1.8-1.9
		c-0.3-0.3-0.6-0.6-0.9-0.9c-1.1-1.2-2.1-2.3-3.2-3.5c-3.3-3.7-6.5-7.2-9.6-10.6c-0.5-0.6-1-1.1-1.5-1.7c-0.6-0.7-1.2-1.4-1.8-2.1
		c-0.9-1-1.8-2-2.6-3c-0.3-0.4-0.7-0.8-1-1.1c-7.3-8.4-13.5-15.9-18.9-22.7c0,0,0,0,0,0c-2.9-3.6-5.4-7-7.8-10.2
		c-0.4-0.6-0.8-1.2-1.2-1.7c-0.5-0.7-1-1.4-1.5-2c-0.5-0.7-1-1.4-1.5-2.1v0c-0.4-0.6-0.9-1.2-1.3-1.8c-3.8-5.5-6.8-10.3-9.3-14.6
		c2.4-0.6,4.9-1.4,7.5-0.7c0.3,0.1,0.7-0.4,1-0.6c-1.1-0.6-2.3-1.4-3.3-2.2c-1.6-1.2-2.7-1-4.1,0.5c0.1-1.3,1.5-1.9,0.6-3
		c1.4-0.5,3.2,0.5,4.3-0.8c1.1-1.3,2.5-1.8,4-2.5c1.6-0.7,1.6-3.1,2.6-4.5c0.6-0.9-0.9-1.1-1.4-1.7c-2.4,1-0.1-1.7-1.4-1.9
		c-0.3,0,0-1.1,0.6-1.4c0.1,0,0.2,0,0.2,0.1c0.4,2.2,2.7,0.8,3.6,2c0.3,0,0.6,0,0.9,0c-0.3-1.3-1.4-2.4-1.1-4c0.1-0.8,0.1-2.2-1.5-2
		c-1.5,0.2-1.4-1.1-1.7-2c0.9-0.7,2.9,0.7,2.7-1.3c-0.1-1.1-1.2-1.9-2.8-1.2c-0.8,0.3-1.9-0.2-2.9-0.3c-3,1-3.5,4.2-5.1,6.3
		c0.4,0.7,0.8,1.5,1.2,2.2c-0.7,0.7-1.6,1.3-0.9,2.6c0.9,1.5,0.3,2.7-0.7,3.9c-1.2,1.4-2.5,0.1-3.7-0.1c-0.4,0-0.7-0.4-1.1-0.6
		c-0.6-0.3-1.2-0.6-1.5,0.2c-0.2,0.6,0.3,0.9,0.8,1c1,0.2,1.9,0.5,1.6,1.7c-0.3,1-1.2,0.6-2,0.7c-0.4,0-0.8,0.1-1.2,0.2
		c-3.2-7.2-4.1-12.4-4.2-16.5v-0.4c0-0.4,0-0.8,0-1.2c0-0.9,0-1.7,0.1-2.4c0.1-2.2,0.3-4.5,0.7-6.7c1.8-12.5,6.8-24.4,13.8-35.2
		c0.5-0.9,1.1-1.7,1.7-2.5c0.3-0.5,0.6-0.9,1-1.4c3.3-4.7,6.9-9.1,10.8-13.2c1.2-1.3,2.5-2.6,3.8-3.9c10.9-10.7,23.3-19.4,35.2-25.1
		c0.7-0.3,1.4-0.7,2.1-1c1.2-0.5,2.3-1,3.4-1.5c2.4-1,4.8-1.9,7.1-2.6c0.5-0.2,0.9-0.3,1.4-0.4c5.4-1.6,10.4-2.4,15-2.4
		c2.9,0,5.7,0.1,8.6,0.4c3.1,0.3,6.2,0.7,9.2,1.3c1,0.2,1.9,0.4,2.8,0.6c3,0.7,6,1.5,9,2.4c0.5,0.2,1,0.3,1.5,0.5c0,0,0.1,0,0.1,0
		c1.7,0.6,3.5,1.2,5.2,2c0.9,0.4,1.9,0.8,2.8,1.2c1.3,0.6,2.6,1.2,3.9,1.9c2,1,4,2.1,6,3.3c3.2,1.9,6.2,4,9.1,6.2
		c2.4,1.9,4.8,3.9,7.1,6c2.1,2,4.2,4.1,6.2,6.3c2.3,2.6,4.5,5.3,6.6,8.2c0.4,0.5,0.7,1,1.1,1.6c0.1,0.2,0.2,0.3,0.3,0.5
		c0.2-0.3,0.4-0.5,0.6-0.8c0.2-0.3,0.4-0.6,0.6-0.8c0.6-0.8,1.2-1.6,1.8-2.5c3.2-4.2,6.8-8.2,10.6-11.9c2.2-2.1,4.4-4,6.8-5.8
		c0.6-0.5,1.3-1,2-1.5c1-0.8,2.1-1.5,3.2-2.3c1.4-1,2.9-1.9,4.3-2.8c2.8-1.7,5.6-3.2,8.5-4.6c2.7-1.3,5.4-2.4,8.1-3.4
		c5-1.8,10.2-3.2,15.6-4.2c0.9-0.2,1.9-0.3,2.8-0.5c0.1,0,0.1,0,0.2,0c4.7-0.7,9.5-1.1,14.4-1.1c4.1,0,8.5,0.7,13.3,1.9
		c2,0.5,4.2,1.2,6.3,2c0.4,0.1,0.8,0.3,1.3,0.4c1.2,0.5,2.4,0.9,3.6,1.5h0c1.9,0.8,3.9,1.7,5.8,2.7c2.3,1.1,4.6,2.4,6.9,3.7
		c0.9,0.5,1.8,1.1,2.8,1.6l0,0c1.3,0.8,2.5,1.6,3.8,2.4c0.7,0.4,1.3,0.9,2,1.3c5.7,3.9,11.3,8.4,16.6,13.3c1.9,1.8,3.7,3.6,5.5,5.4
		c0.2,0.2,0.3,0.4,0.5,0.6c1,1,1.9,2.1,2.8,3.1c0,0,0,0,0,0c1.7,1.9,3.4,3.9,5,6c0.8,1,1.5,2,2.3,3c0.4,0.6,0.8,1.2,1.2,1.8
		c4.3,6.1,7.9,12.5,10.6,19.3c0.5,1.3,1,2.6,1.5,3.9c1.9,5.5,3.3,11.2,3.9,17c0.1,0.5,0.1,1,0.1,1.5c0.1,0.7,0.1,1.4,0.1,2v0
		C697,493.9,697,494.5,697,495z"/>
	<path class="st1" d="M240.5,296.4c0.1-0.3,0.2-0.7,0.4-0.8c0.2-0.1,0.7,0.1,0.8,0.3c0.1,0.2-0.1,0.7-0.3,0.8
		C241.1,296.8,240.7,296.5,240.5,296.4z"/>
	<rect y="0" class="st2" width="1080" height="1080"/>
	<rect x="13" y="13" class="st2" width="1054" height="1054"/>
	<g>
		<g>
			
				<linearGradient id="SVGID_1_" gradientUnits="userSpaceOnUse" x1="381.674" y1="1440.665" x2="508.724" y2="1440.665" gradientTransform="matrix(1 0 0 1 0 -540)">
				<stop  offset="0" style="stop-color:#85D3FF"/>
				<stop  offset="0.2098" style="stop-color:#80D0FC"/>
				<stop  offset="0.46" style="stop-color:#71C5F4"/>
				<stop  offset="0.73" style="stop-color:#5AB5E7"/>
				<stop  offset="1" style="stop-color:#3A9FD6"/>
			</linearGradient>
			<path class="st3" d="M500,915.6c15.6,26.8,9.6,60-13.3,73.1c-22.9,13.3-54.5,1.6-69.8-25c-0.2-0.4-0.4-0.8-0.8-1.2
				c-0.2-0.4-0.4-0.8-0.6-1.2l-7.2-32.8l-26.6-121.4l90.9,82.9l26.4,24.2l0,0C499.4,914.6,499.8,915,500,915.6z"/>
		</g>
		
			<linearGradient id="SVGID_00000152958004852021432580000003495524743737360533_" gradientUnits="userSpaceOnUse" x1="539.8114" y1="726.9604" x2="540.0848" y2="1128.2111" gradientTransform="matrix(1 0 0 1 0 -540)">
			<stop  offset="6.751359e-03" style="stop-color:#BABABA"/>
			<stop  offset="0.2098" style="stop-color:#B5B5B5"/>
			<stop  offset="0.4402" style="stop-color:#A8A8A8"/>
			<stop  offset="0.6838" style="stop-color:#919191"/>
			<stop  offset="0.9352" style="stop-color:#717171"/>
			<stop  offset="1" style="stop-color:#686868"/>
		</linearGradient>
		<path style="fill:url(#SVGID_00000152958004852021432580000003495524743737360533_);" d="M1067.1,432.3
			c0,52.2-15.6,100.8-42.2,140.7c-9.8,14.7-20.9,28.3-33.6,40.3l0,0c-20.5,16-46.1,25.6-73.5,25.6c0,0-260.3-0.4-260.7,0H135.2
			c-44.2,0-82.9-24.4-104.4-61l0,0c-10.2-22.3-16.4-47.3-17.6-73.3v-0.2c-0.2-3.3-0.2-6.6-0.2-9.8c0-107.9,84-195.4,187.6-195.4
			c9,0,17.6,0.6,26.4,2c-5.5-1.2-8.4-2-8.4-2s3.1,0.6,9.4,2c0.2-1.4,0.6-4.3,1.2-7.8c20.7-109.6,147.3-207.7,273-209.5
			c10.9-0.2,44.2,0.2,84.8,13.3C647,116.7,698.4,156,734.3,208c29.7-14.3,62.9-22.1,97.7-22.1
			C961.8,185.9,1067.1,296.3,1067.1,432.3z"/>
		<g>
			
				<linearGradient id="SVGID_00000059310108935755524440000013042888140442618505_" gradientUnits="userSpaceOnUse" x1="889.1631" y1="1132.0266" x2="969.6953" y2="1242.714" gradientTransform="matrix(1 0 0 1 0 -540)">
				<stop  offset="0" style="stop-color:#85D3FF"/>
				<stop  offset="0.2098" style="stop-color:#80D0FC"/>
				<stop  offset="0.46" style="stop-color:#71C5F4"/>
				<stop  offset="0.73" style="stop-color:#5AB5E7"/>
				<stop  offset="1" style="stop-color:#3A9FD6"/>
			</linearGradient>
			<path style="fill:url(#SVGID_00000059310108935755524440000013042888140442618505_);" d="M979.3,634.4
				c15.6,26.8,9.6,60-13.3,73.1c-22.9,13.3-54.5,1.6-69.8-25c-0.2-0.4-0.4-0.8-0.8-1.2c-0.2-0.4-0.4-0.8-0.6-1.2l-7.2-32.6
				l-26.6-121.4l90.9,82.9l26.4,24.2l0,0C978.9,633.6,979.1,634,979.3,634.4z"/>
		</g>
		<g>
			
				<linearGradient id="SVGID_00000135655332649615783890000007758601088304673445_" gradientUnits="userSpaceOnUse" x1="787.3807" y1="1376.4606" x2="914.4307" y2="1376.4606" gradientTransform="matrix(1 0 0 1 0 -540)">
				<stop  offset="0" style="stop-color:#85D3FF"/>
				<stop  offset="0.2098" style="stop-color:#80D0FC"/>
				<stop  offset="0.46" style="stop-color:#71C5F4"/>
				<stop  offset="0.73" style="stop-color:#5AB5E7"/>
				<stop  offset="1" style="stop-color:#3A9FD6"/>
			</linearGradient>
			<path style="fill:url(#SVGID_00000135655332649615783890000007758601088304673445_);" d="M905.8,851.3
				c15.6,26.8,9.6,60-13.3,73.1c-22.9,13.3-54.5,1.6-69.8-25c-0.2-0.4-0.4-0.8-0.8-1.2c-0.2-0.4-0.4-0.8-0.6-1.2l-7.2-32.6
				L787.4,743l90.9,82.9l26.4,24.2l0,0C905.1,850.5,905.5,850.9,905.8,851.3z"/>
		</g>
		<g>
			
				<linearGradient id="SVGID_00000093144457869359422610000002585446176011895464_" gradientUnits="userSpaceOnUse" x1="146.1552" y1="1244.5701" x2="273.2052" y2="1244.5701" gradientTransform="matrix(1 0 0 1 0 -540)">
				<stop  offset="0" style="stop-color:#85D3FF"/>
				<stop  offset="0.2098" style="stop-color:#80D0FC"/>
				<stop  offset="0.46" style="stop-color:#71C5F4"/>
				<stop  offset="0.73" style="stop-color:#5AB5E7"/>
				<stop  offset="1" style="stop-color:#3A9FD6"/>
			</linearGradient>
			<path style="fill:url(#SVGID_00000093144457869359422610000002585446176011895464_);" d="M264.5,719.4
				c15.6,26.8,9.6,60-13.3,73.1c-22.9,13.3-54.5,1.6-69.8-25c-0.2-0.4-0.4-0.8-0.8-1.2c-0.2-0.4-0.4-0.8-0.6-1.2l-7.2-32.6
				l-26.6-121.4l90.9,82.9l26.4,24.2l0,0C263.9,718.6,264.3,719,264.5,719.4z"/>
		</g>
		<g>
			
				<linearGradient id="SVGID_00000039829083963464359180000011048665096827143352_" gradientUnits="userSpaceOnUse" x1="600.3992" y1="1111.6555" x2="727.4491" y2="1111.6555" gradientTransform="matrix(1 0 0 1 0 -540)">
				<stop  offset="0" style="stop-color:#85D3FF"/>
				<stop  offset="0.2098" style="stop-color:#80D0FC"/>
				<stop  offset="0.46" style="stop-color:#71C5F4"/>
				<stop  offset="0.73" style="stop-color:#5AB5E7"/>
				<stop  offset="1" style="stop-color:#3A9FD6"/>
			</linearGradient>
			<path style="fill:url(#SVGID_00000039829083963464359180000011048665096827143352_);" d="M718.8,586.5
				c15.6,26.8,9.6,60-13.3,73.1c-22.9,13.3-54.5,1.6-69.8-25c-0.2-0.4-0.4-0.8-0.8-1.2c-0.2-0.4-0.4-0.8-0.6-1.2l-7.2-32.6
				l-26.6-121.4l90.9,82.9l26.4,24.2l0,0C718.2,585.5,718.6,585.9,718.8,586.5z"/>
		</g>
		<g>
			
				<linearGradient id="SVGID_00000144304991933392213130000004295829947308646816_" gradientUnits="userSpaceOnUse" x1="151.6472" y1="954.725" x2="747.9155" y2="1421.2709" gradientTransform="matrix(1 0 0 1 0 -540)">
				<stop  offset="0" style="stop-color:#FCEE8D"/>
				<stop  offset="1" style="stop-color:#FFE500"/>
			</linearGradient>
			<polygon style="fill:url(#SVGID_00000144304991933392213130000004295829947308646816_);" points="689.6,996.1 463.3,693.6 
				416.4,720.4 249.1,330.5 475.4,633.2 522.3,606 			"/>
		</g>
	</g>
</g>
<g id="Слой_2">
</g>
</svg>
