<?xml version="1.0" encoding="utf-8"?>
<!-- Generator: Adobe Illustrator 26.5.0, SVG Export Plug-In . SVG Version: 6.00 Build 0)  -->
<svg version="1.1" xmlns="http://www.w3.org/2000/svg" xmlns:xlink="http://www.w3.org/1999/xlink" x="0px" y="0px"
	 viewBox="0 0 1080 1080" style="enable-background:new 0 0 1080 1080;" xml:space="preserve">
<style type="text/css">
	.st0{display:none;fill:#FF7BAC;}
	.st1{fill:#E2E2E3;}
	.st2{fill:none;}
	.st3{fill:url(#SVGID_1_);}
	.st4{fill:url(#SVGID_00000078766344310712089640000001862726119686986117_);}
</style>
<g id="Слой_2">
</g>
<g id="Слой_1">
	<path class="st0" d="M697,495c0.1,3.2-0.3,6.5-1.1,10c-0.2,0.8-0.4,1.6-0.6,2.4c-1.6,5.3-4.2,10.8-7.8,16.9
		c-0.2,0.4-0.5,0.8-0.7,1.2c-0.1,0.2-0.3,0.4-0.4,0.7c-0.7,1.1-1.4,2.2-2.2,3.4c-0.3,0.5-0.7,1-1,1.5c-0.5,0.7-1,1.5-1.5,2.2
		c-3.1,4.3-6.6,8.9-10.5,13.8c-0.8,1-1.7,2-2.5,3.1h0c-1.1,1.4-2.3,2.8-3.6,4.2c-3.2,3.8-6.6,7.7-10.3,11.9l0,0
		c-0.7,0.8-1.5,1.7-2.2,2.5c-1.9,2.1-3.8,4.3-5.8,6.5c-0.4,0.4-0.8,0.8-1.2,1.3c-0.4,0.5-0.9,0.9-1.3,1.4c-0.7,0.7-1.3,1.4-2,2.2
		c-1.7,1.9-3.5,3.8-5.3,5.8c-0.8,0.9-1.7,1.8-2.5,2.8c-0.6,0.6-1.1,1.2-1.7,1.8c-0.3,0.3-0.6,0.7-1,1c-0.3,0.3-0.5,0.6-0.8,0.8
		c-0.6-0.8-0.9-1.8-1.2-2.8c-1.1-0.9-2.4-1.4-3.6-1.6c-0.7,1.8-0.8,2.8-0.2,3.7c0.3,0.5,0.8,0.9,1.6,1.4c0.2,0.2,0.4,0.5,0.4,0.8
		c0.1,0.6,0.3,0.9,0.6,1.2c-0.4,0.4-0.8,0.8-1.2,1.2c-0.5,0.5-1,1.1-1.5,1.6c-0.2,0.2-0.4,0.4-0.6,0.6c-0.7,0.8-1.5,1.6-2.2,2.4
		c-2,2.2-4.1,4.4-6.2,6.6c-0.1,0.1-0.2,0.2-0.3,0.4h0c-0.1,0.1-0.1,0.2-0.2,0.2c0,0,0,0-0.1,0.1v0c-1,1.1-2,2.2-3.1,3.3
		c-0.2,0.2-0.5,0.5-0.7,0.7c-0.5,0.5-1,1-1.5,1.6c-0.1,0.1-0.2,0.2-0.2,0.3c-1.5,1.6-3,3.2-4.7,5c-3.3,3.5-6.8,7.3-10.7,11.4
		c-0.3,0.4-0.7,0.7-1,1.1c-1.4,1.5-2.9,3.1-4.4,4.7c-1.4,1.5-2.8,3-4.2,4.5c-0.3,0.3-0.6,0.7-0.9,1c-0.8,0.8-1.6,1.7-2.4,2.5
		c-3.1,3.2-6.2,6.6-9.6,10.2c-1-0.7-1.8-1.4-2.6-2.4c-0.1-1.8-1.8-3.2-1.5-5.2c0.2-1,0.2-2.1,1.4-2.5c1.1-0.5,1.6,0.3,2.2,1.1
		c1.2,1.5,2,0.5,2.4-0.7c0.5-1.6,0.6-3.4,0-5.1c-0.8,1-0.9,3.3-3,1.5c-1.2,1.7-3.1,2.7-4.3,4.5c-0.9,1.5-2.8,0.3-4.2,0.3
		c-0.6,0.7-1,1.4-1.4,2.2c1.1,1.2,2.5,2.2,3.6,3.4c0.1,0.1,0.2,0.3,0.4,0.4c0.1,0.1,0.2,0.2,0.3,0.4c0.1,0.1,0.1,0.2,0.2,0.3
		c0.1,0.1,0.1,0.2,0.2,0.3c0.1,0.1,0.1,0.3,0.2,0.4c0.2,0.5,1.5,1.1,0.6,1.6c-1.3,0.6-0.7,3-2.6,2.6c-1.1-0.2-0.5-1.5-0.9-1.9
		c-0.6-0.8-1.1-1.7-1.7-2.5c-0.1-0.1-0.1-0.2-0.2-0.3c0,0,0,0,0-0.1h0c-0.3-0.1-0.6-0.4-0.9-0.6c-0.7,0.8-1.3,1.6-1.6,2.6
		c-0.9,3.4-3.5,5.6-5.8,7.9c-1.3,1.3-3.1,2.4-5.2,1.1c-2.5-1.5-4.4-0.3-6.4,1.1c-1.4,1-2.8,1.9-4.1,2.9c0.1,1,0,1.9-0.2,2.8
		c0.4,0.7,0.8,1.4,1.1,2.1c0.1,0.2,0.2,0.3,0.3,0.5c0.5,0.9,1,1.7,1.8,2.4c0.1,0.1,0.2,0.2,0.2,0.2c0.1,0.1,0.2,0.2,0.4,0.3
		c0.4,0.3,0.7,0.4,1.1,0.2c2.5-1.3,5-1,7.7-0.7c0.2,0,0.3,0,0.5,0.1c0.1,0,0.1,0,0.2,0c0.1,0,0.2,0,0.3,0c0.1,0,0.2,0,0.3,0.1
		c0.1,0,0.3,0.1,0.4,0.1c0,0,0,0,0,0c0.1,0,0.1,0.1,0.2,0.1c0.1,0,0.1,0.1,0.2,0.1c-5.5,5.8-11.2,11.9-17.2,18.2
		c-1.6,1.7-3.2,3.3-4.8,5.1c-1.8,1.9-3.7,3.9-5.5,5.9c-0.7,0.8-1.5,1.5-2.2,2.3c-1.8-1.7-3.7-3.4-5.7-5.2l0,0
		c-1.5-1.4-3-2.8-4.6-4.2h0c-0.9-0.8-1.7-1.6-2.6-2.4c-1.8-1.7-3.6-3.4-5.5-5.1h0c-1.6-1.5-3.3-3.1-5-4.7c-0.4-0.4-0.8-0.8-1.2-1.2
		c-4.7-4.4-9.6-9.1-14.7-14c-0.7-0.7-1.4-1.4-2.1-2.1c-1.8-1.7-3.6-3.5-5.4-5.3c-0.8-0.8-1.7-1.6-2.5-2.5c-3.5-3.4-7-6.9-10.6-10.5
		c-1.3-1.3-2.6-2.6-3.9-3.9c-0.7-0.7-1.4-1.4-2-2.1c-1.7-1.7-3.4-3.4-5.1-5.1c-1.3-1.3-2.5-2.6-3.8-3.9c-2.7-2.7-5.4-5.5-8.1-8.3
		c-0.9-1-1.8-1.9-2.7-2.9c-0.9-1-1.9-1.9-2.8-2.9c-0.5-0.5-1-1-1.4-1.5c-0.6-0.6-1.2-1.2-1.8-1.8c-1-1-1.9-2-2.8-3c0,0,0,0,0,0
		c-0.3-0.3-0.6-0.7-1-1l0,0c-0.3-0.4-0.7-0.8-1.1-1.2c-1.4-1.5-2.8-3-4.2-4.5c-1.1-1.2-2.2-2.4-3.3-3.6c-0.6-0.6-1.2-1.3-1.8-1.9
		c-0.3-0.3-0.6-0.6-0.9-0.9c-1.1-1.2-2.1-2.3-3.2-3.5c-3.3-3.7-6.5-7.2-9.6-10.6c-0.5-0.6-1-1.1-1.5-1.7c-0.6-0.7-1.2-1.4-1.8-2.1
		c-0.9-1-1.8-2-2.6-3c-0.3-0.4-0.7-0.8-1-1.1c-7.3-8.4-13.5-15.9-18.9-22.7c0,0,0,0,0,0c-2.9-3.6-5.4-7-7.8-10.2
		c-0.4-0.6-0.8-1.2-1.2-1.7c-0.5-0.7-1-1.4-1.5-2c-0.5-0.7-1-1.4-1.5-2.1v0c-0.4-0.6-0.9-1.2-1.3-1.8c-3.8-5.5-6.8-10.3-9.3-14.6
		c2.4-0.6,4.9-1.4,7.5-0.7c0.3,0.1,0.7-0.4,1-0.6c-1.1-0.6-2.3-1.4-3.3-2.2c-1.6-1.2-2.7-1-4.1,0.5c0.1-1.3,1.5-1.9,0.6-3
		c1.4-0.5,3.2,0.5,4.3-0.8c1.1-1.3,2.5-1.8,4-2.5c1.6-0.7,1.6-3.1,2.6-4.5c0.6-0.9-0.9-1.1-1.4-1.7c-2.4,1-0.1-1.7-1.4-1.9
		c-0.3,0,0-1.1,0.6-1.4c0.1,0,0.2,0,0.2,0.1c0.4,2.2,2.7,0.8,3.6,2c0.3,0,0.6,0,0.9,0c-0.3-1.3-1.4-2.4-1.1-4c0.1-0.8,0.1-2.2-1.5-2
		c-1.5,0.2-1.4-1.1-1.7-2c0.9-0.7,2.9,0.7,2.7-1.3c-0.1-1.1-1.2-1.9-2.8-1.2c-0.8,0.3-1.9-0.2-2.9-0.3c-3,1-3.5,4.2-5.1,6.3
		c0.4,0.7,0.8,1.5,1.2,2.2c-0.7,0.7-1.6,1.3-0.9,2.6c0.9,1.5,0.3,2.7-0.7,3.9c-1.2,1.4-2.5,0.1-3.7-0.1c-0.4,0-0.7-0.4-1.1-0.6
		c-0.6-0.3-1.2-0.6-1.5,0.2c-0.2,0.6,0.3,0.9,0.8,1c1,0.2,1.9,0.5,1.6,1.7c-0.3,1-1.2,0.6-2,0.7c-0.4,0-0.8,0.1-1.2,0.2
		c-3.2-7.2-4.1-12.4-4.2-16.5v-0.4c0-0.4,0-0.8,0-1.2c0-0.9,0-1.7,0.1-2.4c0.1-2.2,0.3-4.5,0.7-6.7c1.8-12.5,6.8-24.4,13.8-35.2
		c0.5-0.9,1.1-1.7,1.7-2.5c0.3-0.5,0.6-0.9,1-1.4c3.3-4.7,6.9-9.1,10.8-13.2c1.2-1.3,2.5-2.6,3.8-3.9c10.9-10.7,23.3-19.4,35.2-25.1
		c0.7-0.3,1.4-0.7,2.1-1c1.2-0.5,2.3-1,3.4-1.5c2.4-1,4.8-1.9,7.1-2.6c0.5-0.2,0.9-0.3,1.4-0.4c5.4-1.6,10.4-2.4,15-2.4
		c2.9,0,5.7,0.1,8.6,0.4c3.1,0.3,6.2,0.7,9.2,1.3c1,0.2,1.9,0.4,2.8,0.6c3,0.7,6,1.5,9,2.4c0.5,0.2,1,0.3,1.5,0.5c0,0,0.1,0,0.1,0
		c1.7,0.6,3.5,1.2,5.2,2c0.9,0.4,1.9,0.8,2.8,1.2c1.3,0.6,2.6,1.2,3.9,1.9c2,1,4,2.1,6,3.3c3.2,1.9,6.2,4,9.1,6.2
		c2.4,1.9,4.8,3.9,7.1,6c2.1,2,4.2,4.1,6.2,6.3c2.3,2.6,4.5,5.3,6.6,8.2c0.4,0.5,0.7,1,1.1,1.6c0.1,0.2,0.2,0.3,0.3,0.5
		c0.2-0.3,0.4-0.5,0.6-0.8c0.2-0.3,0.4-0.6,0.6-0.8c0.6-0.8,1.2-1.6,1.8-2.5c3.2-4.2,6.8-8.2,10.6-11.9c2.2-2.1,4.4-4,6.8-5.8
		c0.6-0.5,1.3-1,2-1.5c1-0.8,2.1-1.5,3.2-2.3c1.4-1,2.9-1.9,4.3-2.8c2.8-1.7,5.6-3.2,8.5-4.6c2.7-1.3,5.4-2.4,8.1-3.4
		c5-1.8,10.2-3.2,15.6-4.2c0.9-0.2,1.9-0.3,2.8-0.5c0.1,0,0.1,0,0.2,0c4.7-0.7,9.5-1.1,14.4-1.1c4.1,0,8.5,0.7,13.3,1.9
		c2,0.5,4.2,1.2,6.3,2c0.4,0.1,0.8,0.3,1.3,0.4c1.2,0.5,2.4,0.9,3.6,1.5h0c1.9,0.8,3.9,1.7,5.8,2.7c2.3,1.1,4.6,2.4,6.9,3.7
		c0.9,0.5,1.8,1.1,2.8,1.6l0,0c1.3,0.8,2.5,1.6,3.8,2.4c0.7,0.4,1.3,0.9,2,1.3c5.7,3.9,11.3,8.4,16.6,13.3c1.9,1.8,3.7,3.6,5.5,5.4
		c0.2,0.2,0.3,0.4,0.5,0.6c1,1,1.9,2.1,2.8,3.1c0,0,0,0,0,0c1.7,1.9,3.4,3.9,5,6c0.8,1,1.5,2,2.3,3c0.4,0.6,0.8,1.2,1.2,1.8
		c4.3,6.1,7.9,12.5,10.6,19.3c0.5,1.3,1,2.6,1.5,3.9c1.9,5.5,3.3,11.2,3.9,17c0.1,0.5,0.1,1,0.1,1.5c0.1,0.7,0.1,1.4,0.1,2v0
		C697,493.9,697,494.5,697,495z"/>
	<path class="st1" d="M240.5,296.4c0.1-0.3,0.2-0.7,0.4-0.8c0.2-0.1,0.7,0.1,0.8,0.3c0.1,0.2-0.1,0.7-0.3,0.8
		C241.1,296.8,240.7,296.5,240.5,296.4z"/>
	<rect x="11.5" y="11.5" class="st2" width="1057" height="1057"/>
	<g>
		
			<linearGradient id="SVGID_1_" gradientUnits="userSpaceOnUse" x1="472.1819" y1="826.3736" x2="472.4208" y2="1176.8104" gradientTransform="matrix(1 0 0 1 0 -540)">
			<stop  offset="6.751359e-03" style="stop-color:#BABABA"/>
			<stop  offset="0.2098" style="stop-color:#B5B5B5"/>
			<stop  offset="0.4402" style="stop-color:#A8A8A8"/>
			<stop  offset="0.6838" style="stop-color:#919191"/>
			<stop  offset="0.9352" style="stop-color:#717171"/>
			<stop  offset="1" style="stop-color:#686868"/>
		</linearGradient>
		<path class="st3" d="M932.8,500.6c0,45.6-13.5,88-36.9,122.9c-8.4,12.9-18.4,24.7-29.3,35.3l0,0c-17.9,13.9-40.1,22.4-64.4,22.4
			c0,0-227.3-0.2-227.8,0H118.7c-38.6,0-72.4-21.3-91.2-53.2l0,0c-8.9-19.6-14.4-41.2-15.4-64.2v-0.2c-0.2-2.7-0.2-5.7-0.2-8.7
			c0-94.1,73.5-170.6,163.8-170.6c7.8,0,15.4,0.6,23,1.7c-4.9-1.1-7.4-1.7-7.4-1.7s2.7,0.6,8.2,1.9c0.2-1.3,0.6-3.6,1.1-6.8
			c18.2-95.6,128.6-181.3,238.5-183c9.5-0.2,38.6,0.2,74.1,11.6c52.3,16.9,97.3,51.3,128.8,96.7c26-12.5,54.9-19.4,85.3-19.4
			C840.8,285.5,932.8,382,932.8,500.6z"/>
		
			<linearGradient id="SVGID_00000062890414908162477150000016188389753501720759_" gradientUnits="userSpaceOnUse" x1="683.2964" y1="1093.9277" x2="683.4955" y2="1386.6315" gradientTransform="matrix(1 0 0 1 0 -540)">
			<stop  offset="6.751359e-03" style="stop-color:#BABABA"/>
			<stop  offset="0.2098" style="stop-color:#B5B5B5"/>
			<stop  offset="0.4402" style="stop-color:#A8A8A8"/>
			<stop  offset="0.6838" style="stop-color:#919191"/>
			<stop  offset="0.9352" style="stop-color:#717171"/>
			<stop  offset="1" style="stop-color:#686868"/>
		</linearGradient>
		<path style="fill:url(#SVGID_00000062890414908162477150000016188389753501720759_);" d="M1068.1,732.9
			c0,38.2-11.4,73.5-30.8,102.6c-7.2,10.8-15.4,20.7-24.5,29.3l0,0c-15,11.6-33.6,18.8-53.8,18.8c0,0-190-0.2-190.2,0H388
			c-32.3,0-60.4-17.7-76.2-44.5l0,0c-7.4-16.5-12-34.4-12.9-53.6v-0.2c-0.2-2.3-0.2-4.9-0.2-7.2c0-78.7,61.2-142.5,136.8-142.5
			c6.5,0,12.9,0.4,19.2,1.5c-4-0.8-6.1-1.5-6.1-1.5s2.3,0.4,7,1.5c0.2-1.1,0.4-3,0.8-5.7c15.2-80,107.2-151.3,199.3-152.8
			c8-0.2,32.3,0.2,61.8,9.7c43.7,14.1,81.3,42.9,107.4,80.8c21.7-10.3,45.8-16.3,71.3-16.3C991.3,553.3,1068.1,633.7,1068.1,732.9z"
			/>
	</g>
</g>
</svg>
