<?xml version="1.0" encoding="utf-8"?>
<!-- Generator: Adobe Illustrator 26.5.0, SVG Export Plug-In . SVG Version: 6.00 Build 0)  -->
<svg version="1.1" xmlns="http://www.w3.org/2000/svg" xmlns:xlink="http://www.w3.org/1999/xlink" x="0px" y="0px"
	 viewBox="0 0 1080 1080" style="enable-background:new 0 0 1080 1080;" xml:space="preserve">
<style type="text/css">
	.st0{display:none;fill:#FF7BAC;}
	.st1{fill:#E2E2E3;}
	.st2{fill:none;}
	.st3{fill:url(#SVGID_1_);}
	.st4{fill:url(#SVGID_00000155111337806799107120000018165193139060681394_);}
	.st5{fill:url(#SVGID_00000169533547296921057990000013396525341515766972_);}
	.st6{fill:url(#SVGID_00000070820351878945120320000007051732218685988538_);}
	.st7{fill:url(#SVGID_00000166673241194452132020000006220978686698379947_);}
	.st8{fill:url(#SVGID_00000039131299371199226080000010276014992302326958_);}
	.st9{fill:url(#SVGID_00000003084751599086658310000014781286139871038143_);}
</style>
<g id="Слой_2">
</g>
<g id="Слой_1">
	<path class="st0" d="M697,495c0.1,3.2-0.3,6.5-1.1,10c-0.2,0.8-0.4,1.6-0.6,2.4c-1.6,5.3-4.2,10.8-7.8,16.9
		c-0.2,0.4-0.5,0.8-0.7,1.2c-0.1,0.2-0.3,0.4-0.4,0.7c-0.7,1.1-1.4,2.2-2.2,3.4c-0.3,0.5-0.7,1-1,1.5c-0.5,0.7-1,1.5-1.5,2.2
		c-3.1,4.3-6.6,8.9-10.5,13.8c-0.8,1-1.7,2-2.5,3.1h0c-1.1,1.4-2.3,2.8-3.6,4.2c-3.2,3.8-6.6,7.7-10.3,11.9l0,0
		c-0.7,0.8-1.5,1.7-2.2,2.5c-1.9,2.1-3.8,4.3-5.8,6.5c-0.4,0.4-0.8,0.8-1.2,1.3c-0.4,0.5-0.9,0.9-1.3,1.4c-0.7,0.7-1.3,1.4-2,2.2
		c-1.7,1.9-3.5,3.8-5.3,5.8c-0.8,0.9-1.7,1.8-2.5,2.8c-0.6,0.6-1.1,1.2-1.7,1.8c-0.3,0.3-0.6,0.7-1,1c-0.3,0.3-0.5,0.6-0.8,0.8
		c-0.6-0.8-0.9-1.8-1.2-2.8c-1.1-0.9-2.4-1.4-3.6-1.6c-0.7,1.8-0.8,2.8-0.2,3.7c0.3,0.5,0.8,0.9,1.6,1.4c0.2,0.2,0.4,0.5,0.4,0.8
		c0.1,0.6,0.3,0.9,0.6,1.2c-0.4,0.4-0.8,0.8-1.2,1.2c-0.5,0.5-1,1.1-1.5,1.6c-0.2,0.2-0.4,0.4-0.6,0.6c-0.7,0.8-1.5,1.6-2.2,2.4
		c-2,2.2-4.1,4.4-6.2,6.6c-0.1,0.1-0.2,0.2-0.3,0.4h0c-0.1,0.1-0.1,0.2-0.2,0.2c0,0,0,0-0.1,0.1v0c-1,1.1-2,2.2-3.1,3.3
		c-0.2,0.2-0.5,0.5-0.7,0.7c-0.5,0.5-1,1-1.5,1.6c-0.1,0.1-0.2,0.2-0.2,0.3c-1.5,1.6-3,3.2-4.7,5c-3.3,3.5-6.8,7.3-10.7,11.4
		c-0.3,0.4-0.7,0.7-1,1.1c-1.4,1.5-2.9,3.1-4.4,4.7c-1.4,1.5-2.8,3-4.2,4.5c-0.3,0.3-0.6,0.7-0.9,1c-0.8,0.8-1.6,1.7-2.4,2.5
		c-3.1,3.2-6.2,6.6-9.6,10.2c-1-0.7-1.8-1.4-2.6-2.4c-0.1-1.8-1.8-3.2-1.5-5.2c0.2-1,0.2-2.1,1.4-2.5c1.1-0.5,1.6,0.3,2.2,1.1
		c1.2,1.5,2,0.5,2.4-0.7c0.5-1.6,0.6-3.4,0-5.1c-0.8,1-0.9,3.3-3,1.5c-1.2,1.7-3.1,2.7-4.3,4.5c-0.9,1.5-2.8,0.3-4.2,0.3
		c-0.6,0.7-1,1.4-1.4,2.2c1.1,1.2,2.5,2.2,3.6,3.4c0.1,0.1,0.2,0.3,0.4,0.4c0.1,0.1,0.2,0.2,0.3,0.4c0.1,0.1,0.1,0.2,0.2,0.3
		c0.1,0.1,0.1,0.2,0.2,0.3c0.1,0.1,0.1,0.3,0.2,0.4c0.2,0.5,1.5,1.1,0.6,1.6c-1.3,0.6-0.7,3-2.6,2.6c-1.1-0.2-0.5-1.5-0.9-1.9
		c-0.6-0.8-1.1-1.7-1.7-2.5c-0.1-0.1-0.1-0.2-0.2-0.3c0,0,0,0,0-0.1h0c-0.3-0.1-0.6-0.4-0.9-0.6c-0.7,0.8-1.3,1.6-1.6,2.6
		c-0.9,3.4-3.5,5.6-5.8,7.9c-1.3,1.3-3.1,2.4-5.2,1.1c-2.5-1.5-4.4-0.3-6.4,1.1c-1.4,1-2.8,1.9-4.1,2.9c0.1,1,0,1.9-0.2,2.8
		c0.4,0.7,0.8,1.4,1.1,2.1c0.1,0.2,0.2,0.3,0.3,0.5c0.5,0.9,1,1.7,1.8,2.4c0.1,0.1,0.2,0.2,0.2,0.2c0.1,0.1,0.2,0.2,0.4,0.3
		c0.4,0.3,0.7,0.4,1.1,0.2c2.5-1.3,5-1,7.7-0.7c0.2,0,0.3,0,0.5,0.1c0.1,0,0.1,0,0.2,0c0.1,0,0.2,0,0.3,0c0.1,0,0.2,0,0.3,0.1
		c0.1,0,0.3,0.1,0.4,0.1c0,0,0,0,0,0c0.1,0,0.1,0.1,0.2,0.1c0.1,0,0.1,0.1,0.2,0.1c-5.5,5.8-11.2,11.9-17.2,18.2
		c-1.6,1.7-3.2,3.3-4.8,5.1c-1.8,1.9-3.7,3.9-5.5,5.9c-0.7,0.8-1.5,1.5-2.2,2.3c-1.8-1.7-3.7-3.4-5.7-5.2l0,0
		c-1.5-1.4-3-2.8-4.6-4.2h0c-0.9-0.8-1.7-1.6-2.6-2.4c-1.8-1.7-3.6-3.4-5.5-5.1h0c-1.6-1.5-3.3-3.1-5-4.7c-0.4-0.4-0.8-0.8-1.2-1.2
		c-4.7-4.4-9.6-9.1-14.7-14c-0.7-0.7-1.4-1.4-2.1-2.1c-1.8-1.7-3.6-3.5-5.4-5.3c-0.8-0.8-1.7-1.6-2.5-2.5c-3.5-3.4-7-6.9-10.6-10.5
		c-1.3-1.3-2.6-2.6-3.9-3.9c-0.7-0.7-1.4-1.4-2-2.1c-1.7-1.7-3.4-3.4-5.1-5.1c-1.3-1.3-2.5-2.6-3.8-3.9c-2.7-2.7-5.4-5.5-8.1-8.3
		c-0.9-1-1.8-1.9-2.7-2.9c-0.9-1-1.9-1.9-2.8-2.9c-0.5-0.5-1-1-1.4-1.5c-0.6-0.6-1.2-1.2-1.8-1.8c-1-1-1.9-2-2.8-3c0,0,0,0,0,0
		c-0.3-0.3-0.6-0.7-1-1l0,0c-0.3-0.4-0.7-0.8-1.1-1.2c-1.4-1.5-2.8-3-4.2-4.5c-1.1-1.2-2.2-2.4-3.3-3.6c-0.6-0.6-1.2-1.3-1.8-1.9
		c-0.3-0.3-0.6-0.6-0.9-0.9c-1.1-1.2-2.1-2.3-3.2-3.5c-3.3-3.7-6.5-7.2-9.6-10.6c-0.5-0.6-1-1.1-1.5-1.7c-0.6-0.7-1.2-1.4-1.8-2.1
		c-0.9-1-1.8-2-2.6-3c-0.3-0.4-0.7-0.8-1-1.1c-7.3-8.4-13.5-15.9-18.9-22.7c0,0,0,0,0,0c-2.9-3.6-5.4-7-7.8-10.2
		c-0.4-0.6-0.8-1.2-1.2-1.7c-0.5-0.7-1-1.4-1.5-2c-0.5-0.7-1-1.4-1.5-2.1v0c-0.4-0.6-0.9-1.2-1.3-1.8c-3.8-5.5-6.8-10.3-9.3-14.6
		c2.4-0.6,4.9-1.4,7.5-0.7c0.3,0.1,0.7-0.4,1-0.6c-1.1-0.6-2.3-1.4-3.3-2.2c-1.6-1.2-2.7-1-4.1,0.5c0.1-1.3,1.5-1.9,0.6-3
		c1.4-0.5,3.2,0.5,4.3-0.8c1.1-1.3,2.5-1.8,4-2.5c1.6-0.7,1.6-3.1,2.6-4.5c0.6-0.9-0.9-1.1-1.4-1.7c-2.4,1-0.1-1.7-1.4-1.9
		c-0.3,0,0-1.1,0.6-1.4c0.1,0,0.2,0,0.2,0.1c0.4,2.2,2.7,0.8,3.6,2c0.3,0,0.6,0,0.9,0c-0.3-1.3-1.4-2.4-1.1-4c0.1-0.8,0.1-2.2-1.5-2
		c-1.5,0.2-1.4-1.1-1.7-2c0.9-0.7,2.9,0.7,2.7-1.3c-0.1-1.1-1.2-1.9-2.8-1.2c-0.8,0.3-1.9-0.2-2.9-0.3c-3,1-3.5,4.2-5.1,6.3
		c0.4,0.7,0.8,1.5,1.2,2.2c-0.7,0.7-1.6,1.3-0.9,2.6c0.9,1.5,0.3,2.7-0.7,3.9c-1.2,1.4-2.5,0.1-3.7-0.1c-0.4,0-0.7-0.4-1.1-0.6
		c-0.6-0.3-1.2-0.6-1.5,0.2c-0.2,0.6,0.3,0.9,0.8,1c1,0.2,1.9,0.5,1.6,1.7c-0.3,1-1.2,0.6-2,0.7c-0.4,0-0.8,0.1-1.2,0.2
		c-3.2-7.2-4.1-12.4-4.2-16.5v-0.4c0-0.4,0-0.8,0-1.2c0-0.9,0-1.7,0.1-2.4c0.1-2.2,0.3-4.5,0.7-6.7c1.8-12.5,6.8-24.4,13.8-35.2
		c0.5-0.9,1.1-1.7,1.7-2.5c0.3-0.5,0.6-0.9,1-1.4c3.3-4.7,6.9-9.1,10.8-13.2c1.2-1.3,2.5-2.6,3.8-3.9c10.9-10.7,23.3-19.4,35.2-25.1
		c0.7-0.3,1.4-0.7,2.1-1c1.2-0.5,2.3-1,3.4-1.5c2.4-1,4.8-1.9,7.1-2.6c0.5-0.2,0.9-0.3,1.4-0.4c5.4-1.6,10.4-2.4,15-2.4
		c2.9,0,5.7,0.1,8.6,0.4c3.1,0.3,6.2,0.7,9.2,1.3c1,0.2,1.9,0.4,2.8,0.6c3,0.7,6,1.5,9,2.4c0.5,0.2,1,0.3,1.5,0.5c0,0,0.1,0,0.1,0
		c1.7,0.6,3.5,1.2,5.2,2c0.9,0.4,1.9,0.8,2.8,1.2c1.3,0.6,2.6,1.2,3.9,1.9c2,1,4,2.1,6,3.3c3.2,1.9,6.2,4,9.1,6.2
		c2.4,1.9,4.8,3.9,7.1,6c2.1,2,4.2,4.1,6.2,6.3c2.3,2.6,4.5,5.3,6.6,8.2c0.4,0.5,0.7,1,1.1,1.6c0.1,0.2,0.2,0.3,0.3,0.5
		c0.2-0.3,0.4-0.5,0.6-0.8c0.2-0.3,0.4-0.6,0.6-0.8c0.6-0.8,1.2-1.6,1.8-2.5c3.2-4.2,6.8-8.2,10.6-11.9c2.2-2.1,4.4-4,6.8-5.8
		c0.6-0.5,1.3-1,2-1.5c1-0.8,2.1-1.5,3.2-2.3c1.4-1,2.9-1.9,4.3-2.8c2.8-1.7,5.6-3.2,8.5-4.6c2.7-1.3,5.4-2.4,8.1-3.4
		c5-1.8,10.2-3.2,15.6-4.2c0.9-0.2,1.9-0.3,2.8-0.5c0.1,0,0.1,0,0.2,0c4.7-0.7,9.5-1.1,14.4-1.1c4.1,0,8.5,0.7,13.3,1.9
		c2,0.5,4.2,1.2,6.3,2c0.4,0.1,0.8,0.3,1.3,0.4c1.2,0.5,2.4,0.9,3.6,1.5h0c1.9,0.8,3.9,1.7,5.8,2.7c2.3,1.1,4.6,2.4,6.9,3.7
		c0.9,0.5,1.8,1.1,2.8,1.6l0,0c1.3,0.8,2.5,1.6,3.8,2.4c0.7,0.4,1.3,0.9,2,1.3c5.7,3.9,11.3,8.4,16.6,13.3c1.9,1.8,3.7,3.6,5.5,5.4
		c0.2,0.2,0.3,0.4,0.5,0.6c1,1,1.9,2.1,2.8,3.1c0,0,0,0,0,0c1.7,1.9,3.4,3.9,5,6c0.8,1,1.5,2,2.3,3c0.4,0.6,0.8,1.2,1.2,1.8
		c4.3,6.1,7.9,12.5,10.6,19.3c0.5,1.3,1,2.6,1.5,3.9c1.9,5.5,3.3,11.2,3.9,17c0.1,0.5,0.1,1,0.1,1.5c0.1,0.7,0.1,1.4,0.1,2v0
		C697,493.9,697,494.5,697,495z"/>
	<path class="st1" d="M240.5,296.4c0.1-0.3,0.2-0.7,0.4-0.8c0.2-0.1,0.7,0.1,0.8,0.3c0.1,0.2-0.1,0.7-0.3,0.8
		C241.1,296.8,240.7,296.5,240.5,296.4z"/>
	<rect x="11.5" y="11.5" class="st2" width="1057" height="1057"/>
	<g>
		
			<linearGradient id="SVGID_1_" gradientUnits="userSpaceOnUse" x1="539.811" y1="730.1738" x2="540.0851" y2="1132.2976" gradientTransform="matrix(1 0 0 1 0 -540)">
			<stop  offset="6.751359e-03" style="stop-color:#BABABA"/>
			<stop  offset="0.2098" style="stop-color:#B5B5B5"/>
			<stop  offset="0.4402" style="stop-color:#A8A8A8"/>
			<stop  offset="0.6838" style="stop-color:#919191"/>
			<stop  offset="0.9352" style="stop-color:#717171"/>
			<stop  offset="1" style="stop-color:#686868"/>
		</linearGradient>
		<path class="st3" d="M1068.3,436c0,52.3-15.6,100.9-42.3,140.9c-9.8,14.8-21.1,28.3-33.6,40.4l0,0c-20.4,16-46.1,25.6-73.8,25.6
			c0,0-261-0.4-261.4,0h-523c-44.2,0-83-24.4-104.6-61.1l0,0c-10.2-22.5-16.5-47.3-17.7-73.6v-0.2c-0.2-3.3-0.2-6.5-0.2-9.8
			c0-108.2,84.2-195.7,188-195.7c9,0,17.7,0.6,26.5,1.9c-5.6-1.3-8.5-1.9-8.5-1.9s3.1,0.6,9.6,2.1c0.2-1.5,0.6-4.2,1.3-7.7
			c20.8-109.6,147.6-208,273.7-209.9c10.8-0.2,44.2,0.2,85,13.3c60,19.4,111.5,59,147.6,110.9c29.8-14.4,62.9-22.3,98-22.3
			C962.8,189.2,1068.3,299.9,1068.3,436z"/>
		<g>
			<g>
				
					<linearGradient id="SVGID_00000170258318285224117120000011565500324427475385_" gradientUnits="userSpaceOnUse" x1="854.6365" y1="1152.2869" x2="981.9321" y2="1152.2869" gradientTransform="matrix(1 0 0 1 0 -540)">
					<stop  offset="0" style="stop-color:#ACFFFA"/>
					<stop  offset="1" style="stop-color:#3B8981"/>
				</linearGradient>
				<path style="fill:url(#SVGID_00000170258318285224117120000011565500324427475385_);" d="M973.2,627.3
					c15.6,26.9,9.6,60-13.3,73.2c-22.9,13.3-54.6,1.7-70-25.2c-0.2-0.4-0.4-0.8-0.8-1.3c-0.2-0.4-0.4-0.8-0.6-1l-7.1-32.7
					l-26.7-121.7l91.1,83.2l26.5,24.2l0,0C972.8,626.5,973,626.9,973.2,627.3z"/>
			</g>
		</g>
		<g>
			<g>
				
					<linearGradient id="SVGID_00000018200180575843654660000010432971633162689717_" gradientUnits="userSpaceOnUse" x1="586.3774" y1="1288.6051" x2="713.673" y2="1288.6051" gradientTransform="matrix(1 0 0 1 0 -540)">
					<stop  offset="0" style="stop-color:#ACFFFA"/>
					<stop  offset="1" style="stop-color:#3B8981"/>
				</linearGradient>
				<path style="fill:url(#SVGID_00000018200180575843654660000010432971633162689717_);" d="M705,763.7c15.6,26.9,9.6,60-13.3,73.2
					c-22.9,13.3-54.6,1.7-70-25.2c-0.2-0.4-0.4-0.8-0.8-1.3c-0.2-0.4-0.4-0.8-0.6-1l-7.1-32.7l-26.7-121.7l91.3,83.2l26.3,24.4l0,0
					C704.6,762.8,704.8,763.2,705,763.7z"/>
			</g>
		</g>
		<g>
			<g>
				
					<linearGradient id="SVGID_00000050655032900318088940000013592811858755423378_" gradientUnits="userSpaceOnUse" x1="793.7727" y1="1388.655" x2="921.0684" y2="1388.655" gradientTransform="matrix(1 0 0 1 0 -540)">
					<stop  offset="0" style="stop-color:#ACFFFA"/>
					<stop  offset="1" style="stop-color:#3B8981"/>
				</linearGradient>
				<path style="fill:url(#SVGID_00000050655032900318088940000013592811858755423378_);" d="M912.4,863.7
					c15.6,26.9,9.6,60-13.3,73.2c-22.9,13.3-54.6,1.7-70-25.2c-0.2-0.4-0.4-0.8-0.8-1.3c-0.2-0.4-0.4-0.8-0.6-1l-7.1-32.7
					l-26.7-121.7l91.3,83.2l26.5,24.2l0,0C911.7,862.9,912,863.3,912.4,863.7z"/>
			</g>
		</g>
		<g>
			<g>
				
					<linearGradient id="SVGID_00000003104380563725565060000008814697396003934608_" gradientUnits="userSpaceOnUse" x1="366.8927" y1="1388.655" x2="494.1882" y2="1388.655" gradientTransform="matrix(1 0 0 1 0 -540)">
					<stop  offset="0" style="stop-color:#ACFFFA"/>
					<stop  offset="1" style="stop-color:#3B8981"/>
				</linearGradient>
				<path style="fill:url(#SVGID_00000003104380563725565060000008814697396003934608_);" d="M485.5,863.7
					c15.6,26.9,9.6,60-13.3,73.2c-22.9,13.3-54.6,1.7-70-25.2c-0.2-0.4-0.4-0.8-0.8-1.3c-0.2-0.4-0.4-0.8-0.6-1l-7.1-32.7
					l-26.7-121.7l91.3,83.2l26.5,24.2l0,0C485.1,862.9,485.3,863.3,485.5,863.7z"/>
			</g>
		</g>
		<g>
			<g>
				
					<linearGradient id="SVGID_00000029759946152481159130000014517852155938984622_" gradientUnits="userSpaceOnUse" x1="362.724" y1="1120.6044" x2="490.0194" y2="1120.6044" gradientTransform="matrix(1 0 0 1 0 -540)">
					<stop  offset="0" style="stop-color:#ACFFFA"/>
					<stop  offset="1" style="stop-color:#3B8981"/>
				</linearGradient>
				<path style="fill:url(#SVGID_00000029759946152481159130000014517852155938984622_);" d="M481.3,595.7
					c15.6,26.9,9.6,60-13.3,73.2c-22.9,13.3-54.6,1.7-70-25.2c-0.2-0.4-0.4-0.8-0.8-1.3c-0.2-0.4-0.4-0.8-0.6-1l-7.1-32.7
					l-26.7-121.7L454,570l26.5,24.2l0,0C480.9,594.8,481.1,595.2,481.3,595.7z"/>
			</g>
		</g>
		<g>
			<g>
				
					<linearGradient id="SVGID_00000181050012127658683950000018344756217138417334_" gradientUnits="userSpaceOnUse" x1="143.4476" y1="1248.7935" x2="270.7431" y2="1248.7935" gradientTransform="matrix(1 0 0 1 0 -540)">
					<stop  offset="0" style="stop-color:#ACFFFA"/>
					<stop  offset="1" style="stop-color:#3B8981"/>
				</linearGradient>
				<path style="fill:url(#SVGID_00000181050012127658683950000018344756217138417334_);" d="M262,723.8c15.6,26.9,9.6,60-13.3,73.2
					c-22.9,13.3-54.6,1.7-70-25.2c-0.2-0.4-0.4-0.8-0.8-1.3c-0.2-0.4-0.4-0.8-0.6-1l-7.1-32.7L143.4,615l91.3,83.2l26.5,24.2l0,0
					C261.4,723,261.6,723.4,262,723.8z"/>
			</g>
		</g>
	</g>
</g>
</svg>
