<?xml version="1.0" encoding="utf-8"?>
<!-- Generator: Adobe Illustrator 26.5.0, SVG Export Plug-In . SVG Version: 6.00 Build 0)  -->
<svg version="1.1" xmlns="http://www.w3.org/2000/svg" xmlns:xlink="http://www.w3.org/1999/xlink" x="0px" y="0px"
	 viewBox="0 0 1080 1080" style="enable-background:new 0 0 1080 1080;" xml:space="preserve">
<style type="text/css">
	.st0{display:none;fill:#FF7BAC;}
	.st1{fill:#E2E2E3;}
	.st2{fill:none;}
	.st3{fill:url(#SVGID_1_);}
	.st4{fill:url(#SVGID_00000142877907654294782520000002920475010534829192_);}
	.st5{fill:url(#SVGID_00000036223870546410756530000007230206918993379250_);}
	.st6{fill:url(#SVGID_00000085931608031118519720000006931039537241915537_);}
	.st7{fill:url(#SVGID_00000155864937834254215790000008713701109714395551_);}
	.st8{fill:url(#SVGID_00000156573398338113978510000013897331935089143426_);}
	.st9{fill:url(#SVGID_00000010310470215641924850000004046407863241794223_);}
</style>
<g id="Слой_1">
	<path class="st0" d="M697,495c0.1,3.2-0.3,6.5-1.1,10c-0.2,0.8-0.4,1.6-0.6,2.4c-1.6,5.3-4.2,10.8-7.8,16.9
		c-0.2,0.4-0.5,0.8-0.7,1.2c-0.1,0.2-0.3,0.4-0.4,0.7c-0.7,1.1-1.4,2.2-2.2,3.4c-0.3,0.5-0.7,1-1,1.5c-0.5,0.7-1,1.5-1.5,2.2
		c-3.1,4.3-6.6,8.9-10.5,13.8c-0.8,1-1.7,2-2.5,3.1h0c-1.1,1.4-2.3,2.8-3.6,4.2c-3.2,3.8-6.6,7.7-10.3,11.9l0,0
		c-0.7,0.8-1.5,1.7-2.2,2.5c-1.9,2.1-3.8,4.3-5.8,6.5c-0.4,0.4-0.8,0.8-1.2,1.3c-0.4,0.5-0.9,0.9-1.3,1.4c-0.7,0.7-1.3,1.4-2,2.2
		c-1.7,1.9-3.5,3.8-5.3,5.8c-0.8,0.9-1.7,1.8-2.5,2.8c-0.6,0.6-1.1,1.2-1.7,1.8c-0.3,0.3-0.6,0.7-1,1c-0.3,0.3-0.5,0.6-0.8,0.8
		c-0.6-0.8-0.9-1.8-1.2-2.8c-1.1-0.9-2.4-1.4-3.6-1.6c-0.7,1.8-0.8,2.8-0.2,3.7c0.3,0.5,0.8,0.9,1.6,1.4c0.2,0.2,0.4,0.5,0.4,0.8
		c0.1,0.6,0.3,0.9,0.6,1.2c-0.4,0.4-0.8,0.8-1.2,1.2c-0.5,0.5-1,1.1-1.5,1.6c-0.2,0.2-0.4,0.4-0.6,0.6c-0.7,0.8-1.5,1.6-2.2,2.4
		c-2,2.2-4.1,4.4-6.2,6.6c-0.1,0.1-0.2,0.2-0.3,0.4h0c-0.1,0.1-0.1,0.2-0.2,0.2c0,0,0,0-0.1,0.1v0c-1,1.1-2,2.2-3.1,3.3
		c-0.2,0.2-0.5,0.5-0.7,0.7c-0.5,0.5-1,1-1.5,1.6c-0.1,0.1-0.2,0.2-0.2,0.3c-1.5,1.6-3,3.2-4.7,5c-3.3,3.5-6.8,7.3-10.7,11.4
		c-0.3,0.4-0.7,0.7-1,1.1c-1.4,1.5-2.9,3.1-4.4,4.7c-1.4,1.5-2.8,3-4.2,4.5c-0.3,0.3-0.6,0.7-0.9,1c-0.8,0.8-1.6,1.7-2.4,2.5
		c-3.1,3.2-6.2,6.6-9.6,10.2c-1-0.7-1.8-1.4-2.6-2.4c-0.1-1.8-1.8-3.2-1.5-5.2c0.2-1,0.2-2.1,1.4-2.5c1.1-0.5,1.6,0.3,2.2,1.1
		c1.2,1.5,2,0.5,2.4-0.7c0.5-1.6,0.6-3.4,0-5.1c-0.8,1-0.9,3.3-3,1.5c-1.2,1.7-3.1,2.7-4.3,4.5c-0.9,1.5-2.8,0.3-4.2,0.3
		c-0.6,0.7-1,1.4-1.4,2.2c1.1,1.2,2.5,2.2,3.6,3.4c0.1,0.1,0.2,0.3,0.4,0.4c0.1,0.1,0.2,0.2,0.3,0.4c0.1,0.1,0.1,0.2,0.2,0.3
		c0.1,0.1,0.1,0.2,0.2,0.3c0.1,0.1,0.1,0.3,0.2,0.4c0.2,0.5,1.5,1.1,0.6,1.6c-1.3,0.6-0.7,3-2.6,2.6c-1.1-0.2-0.5-1.5-0.9-1.9
		c-0.6-0.8-1.1-1.7-1.7-2.5c-0.1-0.1-0.1-0.2-0.2-0.3c0,0,0,0,0-0.1h0c-0.3-0.1-0.6-0.4-0.9-0.6c-0.7,0.8-1.3,1.6-1.6,2.6
		c-0.9,3.4-3.5,5.6-5.8,7.9c-1.3,1.3-3.1,2.4-5.2,1.1c-2.5-1.5-4.4-0.3-6.4,1.1c-1.4,1-2.8,1.9-4.1,2.9c0.1,1,0,1.9-0.2,2.8
		c0.4,0.7,0.8,1.4,1.1,2.1c0.1,0.2,0.2,0.3,0.3,0.5c0.5,0.9,1,1.7,1.8,2.4c0.1,0.1,0.2,0.2,0.2,0.2c0.1,0.1,0.2,0.2,0.4,0.3
		c0.4,0.3,0.7,0.4,1.1,0.2c2.5-1.3,5-1,7.7-0.7c0.2,0,0.3,0,0.5,0.1c0.1,0,0.1,0,0.2,0c0.1,0,0.2,0,0.3,0c0.1,0,0.2,0,0.3,0.1
		c0.1,0,0.3,0.1,0.4,0.1c0,0,0,0,0,0c0.1,0,0.1,0.1,0.2,0.1c0.1,0,0.1,0.1,0.2,0.1c-5.5,5.8-11.2,11.9-17.2,18.2
		c-1.6,1.7-3.2,3.3-4.8,5.1c-1.8,1.9-3.7,3.9-5.5,5.9c-0.7,0.8-1.5,1.5-2.2,2.3c-1.8-1.7-3.7-3.4-5.7-5.2l0,0
		c-1.5-1.4-3-2.8-4.6-4.2h0c-0.9-0.8-1.7-1.6-2.6-2.4c-1.8-1.7-3.6-3.4-5.5-5.1h0c-1.6-1.5-3.3-3.1-5-4.7c-0.4-0.4-0.8-0.8-1.2-1.2
		c-4.7-4.4-9.6-9.1-14.7-14c-0.7-0.7-1.4-1.4-2.1-2.1c-1.8-1.7-3.6-3.5-5.4-5.3c-0.8-0.8-1.7-1.6-2.5-2.5c-3.5-3.4-7-6.9-10.6-10.5
		c-1.3-1.3-2.6-2.6-3.9-3.9c-0.7-0.7-1.4-1.4-2-2.1c-1.7-1.7-3.4-3.4-5.1-5.1c-1.3-1.3-2.5-2.6-3.8-3.9c-2.7-2.7-5.4-5.5-8.1-8.3
		c-0.9-1-1.8-1.9-2.7-2.9c-0.9-1-1.9-1.9-2.8-2.9c-0.5-0.5-1-1-1.4-1.5c-0.6-0.6-1.2-1.2-1.8-1.8c-1-1-1.9-2-2.8-3c0,0,0,0,0,0
		c-0.3-0.3-0.6-0.7-1-1l0,0c-0.3-0.4-0.7-0.8-1.1-1.2c-1.4-1.5-2.8-3-4.2-4.5c-1.1-1.2-2.2-2.4-3.3-3.6c-0.6-0.6-1.2-1.3-1.8-1.9
		c-0.3-0.3-0.6-0.6-0.9-0.9c-1.1-1.2-2.1-2.3-3.2-3.5c-3.3-3.7-6.5-7.2-9.6-10.6c-0.5-0.6-1-1.1-1.5-1.7c-0.6-0.7-1.2-1.4-1.8-2.1
		c-0.9-1-1.8-2-2.6-3c-0.3-0.4-0.7-0.8-1-1.1c-7.3-8.4-13.5-15.9-18.9-22.7c0,0,0,0,0,0c-2.9-3.6-5.4-7-7.8-10.2
		c-0.4-0.6-0.8-1.2-1.2-1.7c-0.5-0.7-1-1.4-1.5-2c-0.5-0.7-1-1.4-1.5-2.1v0c-0.4-0.6-0.9-1.2-1.3-1.8c-3.8-5.5-6.8-10.3-9.3-14.6
		c2.4-0.6,4.9-1.4,7.5-0.7c0.3,0.1,0.7-0.4,1-0.6c-1.1-0.6-2.3-1.4-3.3-2.2c-1.6-1.2-2.7-1-4.1,0.5c0.1-1.3,1.5-1.9,0.6-3
		c1.4-0.5,3.2,0.5,4.3-0.8c1.1-1.3,2.5-1.8,4-2.5c1.6-0.7,1.6-3.1,2.6-4.5c0.6-0.9-0.9-1.1-1.4-1.7c-2.4,1-0.1-1.7-1.4-1.9
		c-0.3,0,0-1.1,0.6-1.4c0.1,0,0.2,0,0.2,0.1c0.4,2.2,2.7,0.8,3.6,2c0.3,0,0.6,0,0.9,0c-0.3-1.3-1.4-2.4-1.1-4c0.1-0.8,0.1-2.2-1.5-2
		c-1.5,0.2-1.4-1.1-1.7-2c0.9-0.7,2.9,0.7,2.7-1.3c-0.1-1.1-1.2-1.9-2.8-1.2c-0.8,0.3-1.9-0.2-2.9-0.3c-3,1-3.5,4.2-5.1,6.3
		c0.4,0.7,0.8,1.5,1.2,2.2c-0.7,0.7-1.6,1.3-0.9,2.6c0.9,1.5,0.3,2.7-0.7,3.9c-1.2,1.4-2.5,0.1-3.7-0.1c-0.4,0-0.7-0.4-1.1-0.6
		c-0.6-0.3-1.2-0.6-1.5,0.2c-0.2,0.6,0.3,0.9,0.8,1c1,0.2,1.9,0.5,1.6,1.7c-0.3,1-1.2,0.6-2,0.7c-0.4,0-0.8,0.1-1.2,0.2
		c-3.2-7.2-4.1-12.4-4.2-16.5v-0.4c0-0.4,0-0.8,0-1.2c0-0.9,0-1.7,0.1-2.4c0.1-2.2,0.3-4.5,0.7-6.7c1.8-12.5,6.8-24.4,13.8-35.2
		c0.5-0.9,1.1-1.7,1.7-2.5c0.3-0.5,0.6-0.9,1-1.4c3.3-4.7,6.9-9.1,10.8-13.2c1.2-1.3,2.5-2.6,3.8-3.9c10.9-10.7,23.3-19.4,35.2-25.1
		c0.7-0.3,1.4-0.7,2.1-1c1.2-0.5,2.3-1,3.4-1.5c2.4-1,4.8-1.9,7.1-2.6c0.5-0.2,0.9-0.3,1.4-0.4c5.4-1.6,10.4-2.4,15-2.4
		c2.9,0,5.7,0.1,8.6,0.4c3.1,0.3,6.2,0.7,9.2,1.3c1,0.2,1.9,0.4,2.8,0.6c3,0.7,6,1.5,9,2.4c0.5,0.2,1,0.3,1.5,0.5c0,0,0.1,0,0.1,0
		c1.7,0.6,3.5,1.2,5.2,2c0.9,0.4,1.9,0.8,2.8,1.2c1.3,0.6,2.6,1.2,3.9,1.9c2,1,4,2.1,6,3.3c3.2,1.9,6.2,4,9.1,6.2
		c2.4,1.9,4.8,3.9,7.1,6c2.1,2,4.2,4.1,6.2,6.3c2.3,2.6,4.5,5.3,6.6,8.2c0.4,0.5,0.7,1,1.1,1.6c0.1,0.2,0.2,0.3,0.3,0.5
		c0.2-0.3,0.4-0.5,0.6-0.8c0.2-0.3,0.4-0.6,0.6-0.8c0.6-0.8,1.2-1.6,1.8-2.5c3.2-4.2,6.8-8.2,10.6-11.9c2.2-2.1,4.4-4,6.8-5.8
		c0.6-0.5,1.3-1,2-1.5c1-0.8,2.1-1.5,3.2-2.3c1.4-1,2.9-1.9,4.3-2.8c2.8-1.7,5.6-3.2,8.5-4.6c2.7-1.3,5.4-2.4,8.1-3.4
		c5-1.8,10.2-3.2,15.6-4.2c0.9-0.2,1.9-0.3,2.8-0.5c0.1,0,0.1,0,0.2,0c4.7-0.7,9.5-1.1,14.4-1.1c4.1,0,8.5,0.7,13.3,1.9
		c2,0.5,4.2,1.2,6.3,2c0.4,0.1,0.8,0.3,1.3,0.4c1.2,0.5,2.4,0.9,3.6,1.5h0c1.9,0.8,3.9,1.7,5.8,2.7c2.3,1.1,4.6,2.4,6.9,3.7
		c0.9,0.5,1.8,1.1,2.8,1.6l0,0c1.3,0.8,2.5,1.6,3.8,2.4c0.7,0.4,1.3,0.9,2,1.3c5.7,3.9,11.3,8.4,16.6,13.3c1.9,1.8,3.7,3.6,5.5,5.4
		c0.2,0.2,0.3,0.4,0.5,0.6c1,1,1.9,2.1,2.8,3.1c0,0,0,0,0,0c1.7,1.9,3.4,3.9,5,6c0.8,1,1.5,2,2.3,3c0.4,0.6,0.8,1.2,1.2,1.8
		c4.3,6.1,7.9,12.5,10.6,19.3c0.5,1.3,1,2.6,1.5,3.9c1.9,5.5,3.3,11.2,3.9,17c0.1,0.5,0.1,1,0.1,1.5c0.1,0.7,0.1,1.4,0.1,2v0
		C697,493.9,697,494.5,697,495z"/>
	<path class="st1" d="M240.5,296.4c0.1-0.3,0.2-0.7,0.4-0.8c0.2-0.1,0.7,0.1,0.8,0.3c0.1,0.2-0.1,0.7-0.3,0.8
		C241.1,296.8,240.7,296.5,240.5,296.4z"/>
	<rect y="0" class="st2" width="1080" height="1080"/>
	<g>
		
			<linearGradient id="SVGID_1_" gradientUnits="userSpaceOnUse" x1="539.8115" y1="756.2105" x2="540.0849" y2="1157.3943" gradientTransform="matrix(1 0 0 1 0 -540)">
			<stop  offset="6.751359e-03" style="stop-color:#BABABA"/>
			<stop  offset="0.2098" style="stop-color:#B5B5B5"/>
			<stop  offset="0.4402" style="stop-color:#A8A8A8"/>
			<stop  offset="0.6838" style="stop-color:#919191"/>
			<stop  offset="0.9352" style="stop-color:#717171"/>
			<stop  offset="1" style="stop-color:#686868"/>
		</linearGradient>
		<path class="st3" d="M1067.1,461.5c0,52.2-15.6,100.6-42.2,140.6c-9.8,14.8-21,28.3-33.5,40.3l0,0c-20.4,16-46,25.6-73.6,25.6
			c0,0-260.4-0.4-260.8,0H135.2c-44.1,0-82.8-24.3-104.4-60.9l0,0c-10.2-22.5-16.4-47.2-17.7-73.4v-0.2c-0.2-3.3-0.2-6.4-0.2-9.8
			c0-107.9,84-195.3,187.6-195.3c8.9,0,17.7,0.6,26.4,1.9c-5.6-1.2-8.5-1.9-8.5-1.9s3.1,0.6,9.6,2.1c0.2-1.5,0.6-4.2,1.2-7.7
			c20.8-109.4,147.2-207.5,273-209.4c10.8-0.2,44.1,0.2,84.8,13.3C647,146,698.4,185.5,734.3,237.3c29.7-14.3,62.8-22.3,97.7-22.3
			C961.8,215.2,1067.1,325.7,1067.1,461.5z"/>
		<g>
			
				<linearGradient id="SVGID_00000080196697899332934110000003790847221615193251_" gradientUnits="userSpaceOnUse" x1="853.9009" y1="1177.3368" x2="980.899" y2="1177.3368" gradientTransform="matrix(1 0 0 1 0 -540)">
				<stop  offset="0" style="stop-color:#85D3FF"/>
				<stop  offset="0.2098" style="stop-color:#80D0FC"/>
				<stop  offset="0.46" style="stop-color:#71C5F4"/>
				<stop  offset="0.73" style="stop-color:#5AB5E7"/>
				<stop  offset="1" style="stop-color:#3A9FD6"/>
			</linearGradient>
			<path style="fill:url(#SVGID_00000080196697899332934110000003790847221615193251_);" d="M972.2,652.4
				c15.6,26.8,9.6,59.9-13.3,73c-22.9,13.3-54.5,1.7-69.9-25.2c-0.2-0.4-0.4-0.8-0.8-1.2c-0.2-0.4-0.4-0.8-0.6-1l-7.1-32.6
				l-26.6-121.4l90.9,83l26.4,24.1l0,0C971.8,651.5,972,651.9,972.2,652.4z"/>
		</g>
		<g>
			
				<linearGradient id="SVGID_00000028303835155591387190000010476029680468950950_" gradientUnits="userSpaceOnUse" x1="586.269" y1="1313.3363" x2="713.267" y2="1313.3363" gradientTransform="matrix(1 0 0 1 0 -540)">
				<stop  offset="0" style="stop-color:#85D3FF"/>
				<stop  offset="0.2098" style="stop-color:#80D0FC"/>
				<stop  offset="0.46" style="stop-color:#71C5F4"/>
				<stop  offset="0.73" style="stop-color:#5AB5E7"/>
				<stop  offset="1" style="stop-color:#3A9FD6"/>
			</linearGradient>
			<path style="fill:url(#SVGID_00000028303835155591387190000010476029680468950950_);" d="M704.6,788.4
				c15.6,26.8,9.6,59.9-13.3,73c-22.9,13.3-54.5,1.7-69.9-25.2c-0.2-0.4-0.4-0.8-0.8-1.2c-0.2-0.4-0.4-0.8-0.6-1l-7.1-32.6
				l-26.6-121.4l91.1,83l26.2,24.3l0,0C704.2,787.5,704.4,787.9,704.6,788.4z"/>
		</g>
		<g>
			
				<linearGradient id="SVGID_00000124159241899924550830000003072630576259345032_" gradientUnits="userSpaceOnUse" x1="802.3608" y1="857.7905" x2="911.8362" y2="922.1614">
				<stop  offset="0" style="stop-color:#85D3FF"/>
				<stop  offset="0.2098" style="stop-color:#80D0FC"/>
				<stop  offset="0.46" style="stop-color:#71C5F4"/>
				<stop  offset="0.73" style="stop-color:#5AB5E7"/>
				<stop  offset="1" style="stop-color:#3A9FD6"/>
			</linearGradient>
			<path style="fill:url(#SVGID_00000124159241899924550830000003072630576259345032_);" d="M911.5,888.2
				c15.6,26.8,9.6,59.9-13.3,73c-22.9,13.3-54.5,1.7-69.9-25.2c-0.2-0.4-0.4-0.8-0.8-1.2c-0.2-0.4-0.4-0.8-0.6-1l-7.1-32.6
				l-26.6-121.4l91.1,83l26.4,24.1l0,0C910.9,887.3,911.1,887.8,911.5,888.2z"/>
		</g>
		<g>
			
				<linearGradient id="SVGID_00000052103576291106066320000003179580813165268148_" gradientUnits="userSpaceOnUse" x1="367.2974" y1="1413.1525" x2="494.2953" y2="1413.1525" gradientTransform="matrix(1 0 0 1 0 -540)">
				<stop  offset="0" style="stop-color:#85D3FF"/>
				<stop  offset="0.2098" style="stop-color:#80D0FC"/>
				<stop  offset="0.46" style="stop-color:#71C5F4"/>
				<stop  offset="0.73" style="stop-color:#5AB5E7"/>
				<stop  offset="1" style="stop-color:#3A9FD6"/>
			</linearGradient>
			<path style="fill:url(#SVGID_00000052103576291106066320000003179580813165268148_);" d="M485.6,888.2
				c15.6,26.8,9.6,59.9-13.3,73c-22.9,13.3-54.5,1.7-69.9-25.2c-0.2-0.4-0.4-0.8-0.8-1.2c-0.2-0.4-0.4-0.8-0.6-1l-7.1-32.6
				l-26.6-121.4l91.1,83l26.4,24.1l0,0C485.2,887.3,485.4,887.8,485.6,888.2z"/>
		</g>
		<g>
			
				<linearGradient id="SVGID_00000092445570891988410940000010241633853450595975_" gradientUnits="userSpaceOnUse" x1="363.1384" y1="1145.7284" x2="490.1363" y2="1145.7284" gradientTransform="matrix(1 0 0 1 0 -540)">
				<stop  offset="0" style="stop-color:#85D3FF"/>
				<stop  offset="0.2098" style="stop-color:#80D0FC"/>
				<stop  offset="0.46" style="stop-color:#71C5F4"/>
				<stop  offset="0.73" style="stop-color:#5AB5E7"/>
				<stop  offset="1" style="stop-color:#3A9FD6"/>
			</linearGradient>
			<path style="fill:url(#SVGID_00000092445570891988410940000010241633853450595975_);" d="M481.5,620.7
				c15.6,26.8,9.6,59.9-13.3,73c-22.9,13.3-54.5,1.7-69.9-25.2c-0.2-0.4-0.4-0.8-0.8-1.2c-0.2-0.4-0.4-0.8-0.6-1l-7.1-32.6
				l-26.6-121.4l91.1,83l26.4,24.1l0,0C481,619.9,481.3,620.3,481.5,620.7z"/>
		</g>
		<g>
			
				<linearGradient id="SVGID_00000172406631567005224770000012027074485287102616_" gradientUnits="userSpaceOnUse" x1="151.9405" y1="1252.5359" x2="266.7386" y2="1339.0455" gradientTransform="matrix(1 0 0 1 0 -540)">
				<stop  offset="0" style="stop-color:#85D3FF"/>
				<stop  offset="0.2098" style="stop-color:#80D0FC"/>
				<stop  offset="0.46" style="stop-color:#71C5F4"/>
				<stop  offset="0.73" style="stop-color:#5AB5E7"/>
				<stop  offset="1" style="stop-color:#3A9FD6"/>
			</linearGradient>
			<path style="fill:url(#SVGID_00000172406631567005224770000012027074485287102616_);" d="M264.7,748.6
				c15.6,26.8,9.6,59.9-13.3,73c-22.9,13.3-54.5,1.7-69.9-25.2c-0.2-0.4-0.4-0.8-0.8-1.2c-0.2-0.4-0.4-0.8-0.6-1l-7.1-32.6
				l-26.6-121.4l91.1,83l26.4,24.1l0,0C264,747.8,264.2,748.2,264.7,748.6z"/>
		</g>
	</g>
	<rect x="13" y="13" class="st2" width="1054" height="1054"/>
</g>
<g id="Слой_2">
</g>
</svg>
