<?xml version="1.0" encoding="utf-8"?>
<!-- Generator: Adobe Illustrator 26.5.0, SVG Export Plug-In . SVG Version: 6.00 Build 0)  -->
<svg version="1.1" id="Слой_1" xmlns="http://www.w3.org/2000/svg" xmlns:xlink="http://www.w3.org/1999/xlink" x="0px" y="0px"
	 viewBox="0 0 1080 1080" style="enable-background:new 0 0 1080 1080;" xml:space="preserve">
<style type="text/css">
	.st0{fill:none;}
	.st1{fill:url(#SVGID_1_);}
	.st2{fill:url(#SVGID_00000102530378591583628090000012010745918106800794_);}
	.st3{fill:#7F7F7F;}
	.st4{fill:#BABABA;}
</style>
<g>
	<rect x="17.5" y="17.5" class="st0" width="1045" height="1045"/>
	<g>
		
			<linearGradient id="SVGID_1_" gradientUnits="userSpaceOnUse" x1="472.8015" y1="795.329" x2="473.038" y2="1142.0234" gradientTransform="matrix(1 0 0 1 0 -540)">
			<stop  offset="6.751359e-03" style="stop-color:#F0FBFF"/>
			<stop  offset="0.2439" style="stop-color:#ECF7FA"/>
			<stop  offset="0.5128" style="stop-color:#E1EAED"/>
			<stop  offset="0.7961" style="stop-color:#D0D4D6"/>
			<stop  offset="1" style="stop-color:#BFC0C1"/>
		</linearGradient>
		<path class="st1" d="M928.4,467.4c0,45.1-13.4,87.1-36.5,121.5c-8.4,12.7-18.2,24.4-29,34.9l0,0c-17.8,13.8-39.7,22.1-63.7,22.1
			c0,0-224.9-0.2-225.3,0H123.2c-38.2,0-71.6-21.1-90.2-52.6l0,0c-8.8-19.4-14.2-40.7-15.2-63.5v-0.2c-0.2-2.7-0.2-5.6-0.2-8.6
			c0-93.1,72.7-168.7,162.1-168.7c7.7,0,15.2,0.6,22.8,1.7c-4.8-1-7.3-1.7-7.3-1.7s2.7,0.6,8.1,1.9c0.2-1.3,0.6-3.6,1-6.7
			c18-94.6,127.2-179.4,236-181.1c9.4-0.2,38.2,0.2,73.3,11.5c51.8,16.7,96.3,50.7,127.4,95.6c25.7-12.3,54.3-19.2,84.4-19.2
			C837.6,254.6,928.4,349.8,928.4,467.4z"/>
		
			<linearGradient id="SVGID_00000080203064247111144270000010914546128843461284_" gradientUnits="userSpaceOnUse" x1="681.8706" y1="1058.6506" x2="682.0677" y2="1348.2286" gradientTransform="matrix(1 0 0 1 0 -540)">
			<stop  offset="6.751359e-03" style="stop-color:#F0FBFF"/>
			<stop  offset="0.2439" style="stop-color:#ECF7FA"/>
			<stop  offset="0.5128" style="stop-color:#E1EAED"/>
			<stop  offset="0.7961" style="stop-color:#D0D4D6"/>
			<stop  offset="1" style="stop-color:#BFC0C1"/>
		</linearGradient>
		<path style="fill:url(#SVGID_00000080203064247111144270000010914546128843461284_);" d="M1062.5,695.6
			c0,37.8-11.3,72.7-30.5,101.5c-7.1,10.7-15.2,20.5-24.2,29l0,0c-14.8,11.5-33.2,18.6-53.3,18.6c0,0-187.9-0.2-188.2,0H389.8
			c-32,0-59.7-17.5-75.4-44.1l0,0c-7.3-16.3-11.9-34-12.7-53v-0.2c-0.2-2.3-0.2-4.8-0.2-7.1c0-77.9,60.6-141,135.3-141
			c6.5,0,12.7,0.4,19,1.5c-4-0.8-6.1-1.5-6.1-1.5s2.3,0.4,6.9,1.5c0.2-1,0.4-2.9,0.8-5.6c15-79.1,106.1-149.7,197.1-151.2
			c7.9-0.2,32,0.2,61.2,9.6c43.2,14,80.4,42.4,106.3,80c21.5-10.2,45.3-16.1,70.6-16.1C986.5,517.9,1062.5,597.5,1062.5,695.6z"/>
	</g>
	<g>
		<path class="st3" d="M534.8,641.1H516c0-27.8,1.5-49.7,4.4-65.8c2.9-16.1,6.7-28.6,11.3-38c4.6-9.4,16.3-26.3,35.3-51.2
			c14.8-19.4,25.3-37.6,31.3-54.5c6.1-17.1,9-35.9,9-56.4c0-27.8-7.7-50.1-23.4-67.2c-15.7-16.9-34.7-25.5-57.4-25.5
			c-19.6,0-35.9,4.8-48.9,14.4c-13.2,9.6-19.6,19.4-19.6,29.7c0,5.6,4.6,11.9,13.8,19c14,10.9,20.9,22.6,20.9,35.3
			c0,11.3-3.8,20.7-11.1,28.2s-16.5,11.3-27.8,11.3c-13.4,0-24.4-5.2-33.6-15.9c-9.2-10.7-13.6-24.4-13.6-41.8
			c0-27.1,12.5-51.4,37.6-73.1c25.1-21.5,56.4-32.4,94.4-32.4c38.8,0,71,12.1,96.5,36.1c25.3,24,38,53.5,38,88.1
			c0,22.1-4.4,42.2-13.2,60.1c-6.7,13.4-23.2,32.4-49.9,56.6c-34.7,31.1-55.8,54.1-63.1,68.9C539.6,582.2,535.6,606.9,534.8,641.1z
			 M526.4,717.4c11.7,0,21.7,4.2,30.1,12.3c8.4,8.4,12.3,18.2,12.3,29.7c0,12.3-4.2,22.8-12.3,31.3c-8.4,8.6-18.4,12.9-30.1,12.9
			s-21.7-4.2-30.1-12.7c-8.4-8.6-12.3-19-12.3-31.5c0-11.7,4.2-21.7,12.3-29.9C504.5,721.5,514.5,717.4,526.4,717.4z"/>
	</g>
	<path class="st4" d="M528.1,641.1c-4,0-7.9,0-12.1,0c-1-45.7,3.6-78.1,7.3-97.3c2.7-13.6,5-22.8,9.6-32.4c4-7.9,14-22.3,29.9-43.4
		c12.7-16.5,21.5-32,26.7-46.6c5.2-14.6,7.7-30.5,7.7-48c0-23.6-6.7-42.8-20-57.2s-29.7-21.7-48.9-21.7c-16.7,0-30.5,4.2-41.6,12.3
		c-11.1,8.1-16.7,16.7-16.7,25.3c0,4.8,4,10.2,11.7,16.3c11.9,9.2,17.8,19.2,17.8,30.1c0,9.6-3.1,17.5-9.4,24
		c-6.3,6.5-14.2,9.6-23.6,9.6c-11.3,0-20.9-4.6-28.6-13.6c-7.7-9-11.7-20.9-11.7-35.5c0-23.2,10.7-43.9,32-62.2
		c21.3-18.4,48-27.6,80.4-27.6c33.2,0,60.6,10.2,82.1,30.7c21.5,20.5,32.4,45.5,32.4,75c0,18.8-3.8,35.9-11.1,51.2
		c-8.1,16.7-16.5,21.7-42.4,48.2c-18.4,18.6-34.7,36.5-40.3,43.6C542.7,542.4,525.8,577.4,528.1,641.1z"/>
	<path class="st4" d="M524.3,714.6c10,0,18.6,3.6,25.7,10.4c7.1,7.1,10.4,15.5,10.4,25.3c0,10.4-3.6,19.4-10.4,26.7
		c-7.1,7.3-15.7,11.1-25.7,11.1c-10,0-18.6-3.6-25.7-10.9c-7.1-7.3-10.4-16.1-10.4-26.7c0-10,3.6-18.6,10.4-25.5
		C505.8,718.2,514.3,714.6,524.3,714.6z"/>
</g>
</svg>
